<?xml version="1.0" encoding="utf-8"?>
<!-- Generator: Adobe Illustrator 16.0.0, SVG Export Plug-In . SVG Version: 6.00 Build 0)  -->
<!DOCTYPE svg PUBLIC "-//W3C//DTD SVG 1.1//EN" "http://www.w3.org/Graphics/SVG/1.1/DTD/svg11.dtd">
<svg version="1.1" xmlns="http://www.w3.org/2000/svg" xmlns:xlink="http://www.w3.org/1999/xlink" x="0px" y="0px" width="480px"
	 height="320px" viewBox="0 0 480 320" enable-background="new 0 0 480 320" xml:space="preserve">
<g>
	<rect x="45" y="109.674" fill="#FFFFFF" stroke="#000000" stroke-miterlimit="10" width="67.935" height="57.609"/>
	<text transform="matrix(1 0 0 1 62.9346 123.26)" font-family="'MyriadPro-Regular'" font-size="12">level1</text>
</g>
<g>
	<rect x="149" y="109.674" fill="#FFFFFF" stroke="#000000" stroke-miterlimit="10" width="67.935" height="57.609"/>
	<text transform="matrix(1 0 0 1 166.9346 123.26)" font-family="'MyriadPro-Regular'" font-size="12">level2</text>
</g>
<g>
	<rect x="255" y="109.674" fill="#FFFFFF" stroke="#000000" stroke-miterlimit="10" width="67.936" height="57.609"/>
	<text transform="matrix(1 0 0 1 272.9346 123.26)" font-family="'MyriadPro-Regular'" font-size="12">level3</text>
</g>
<g>
	<rect x="365" y="109.674" fill="#FFFFFF" stroke="#000000" stroke-miterlimit="10" width="67.935" height="57.609"/>
	<text transform="matrix(1 0 0 1 382.9346 123.26)" font-family="'MyriadPro-Regular'" font-size="12">level4</text>
</g>
<g>
	<rect x="45" y="222.674" fill="#FFFFFF" stroke="#000000" stroke-miterlimit="10" width="67.935" height="57.609"/>
	<text transform="matrix(1 0 0 1 62.9346 236.26)" font-family="'MyriadPro-Regular'" font-size="12">level5</text>
</g>
<g>
	<rect x="149" y="222.674" fill="#FFFFFF" stroke="#000000" stroke-miterlimit="10" width="67.935" height="57.609"/>
	<text transform="matrix(1 0 0 1 166.9346 236.26)" font-family="'MyriadPro-Regular'" font-size="12">level6</text>
</g>
<g>
	<rect x="255" y="222.674" fill="#FFFFFF" stroke="#000000" stroke-miterlimit="10" width="67.936" height="57.609"/>
	<text transform="matrix(1 0 0 1 272.9346 236.26)" font-family="'MyriadPro-Regular'" font-size="12">level7</text>
</g>
<g>
	<rect x="365" y="222.674" fill="#FFFFFF" stroke="#000000" stroke-miterlimit="10" width="67.935" height="57.609"/>
	<text transform="matrix(1 0 0 1 382.9346 236.26)" font-family="'MyriadPro-Regular'" font-size="12">level8</text>
</g>
<g>
	<rect x="525" y="109.674" fill="#FFFFFF" stroke="#000000" stroke-miterlimit="10" width="67.936" height="57.609"/>
	<text transform="matrix(1 0 0 1 542.9346 123.26)" font-family="'MyriadPro-Regular'" font-size="12">level11</text>
</g>
<g>
	<rect x="629" y="109.674" fill="#FFFFFF" stroke="#000000" stroke-miterlimit="10" width="67.936" height="57.609"/>
	<text transform="matrix(1 0 0 1 646.9346 123.26)" font-family="'MyriadPro-Regular'" font-size="12">level12</text>
</g>
<g>
	<rect x="735" y="109.674" fill="#FFFFFF" stroke="#000000" stroke-miterlimit="10" width="67.936" height="57.609"/>
	<text transform="matrix(1 0 0 1 752.9346 123.26)" font-family="'MyriadPro-Regular'" font-size="12">level13</text>
</g>
<g>
	<rect x="845" y="109.674" fill="#FFFFFF" stroke="#000000" stroke-miterlimit="10" width="67.935" height="57.609"/>
	<text transform="matrix(1 0 0 1 862.9346 123.26)" font-family="'MyriadPro-Regular'" font-size="12">level14</text>
</g>
<g>
	<rect x="525" y="222.674" fill="#FFFFFF" stroke="#000000" stroke-miterlimit="10" width="67.936" height="57.609"/>
	<text transform="matrix(1 0 0 1 542.9346 236.26)" font-family="'MyriadPro-Regular'" font-size="12">level15</text>
</g>
<g>
	<rect x="629" y="222.674" fill="#FFFFFF" stroke="#000000" stroke-miterlimit="10" width="67.936" height="57.609"/>
	<text transform="matrix(1 0 0 1 646.9346 236.26)" font-family="'MyriadPro-Regular'" font-size="12">level16</text>
</g>
<g>
	<rect x="735" y="222.674" fill="#FFFFFF" stroke="#000000" stroke-miterlimit="10" width="67.936" height="57.609"/>
	<text transform="matrix(1 0 0 1 752.9346 236.26)" font-family="'MyriadPro-Regular'" font-size="12">level17</text>
</g>
<g>
	<rect x="845" y="222.674" fill="#FFFFFF" stroke="#000000" stroke-miterlimit="10" width="67.935" height="57.609"/>
	<text transform="matrix(1 0 0 1 862.9346 236.26)" font-family="'MyriadPro-Regular'" font-size="12">level18</text>
</g>
<g>
	<rect x="1005" y="109.674" fill="#FFFFFF" stroke="#000000" stroke-miterlimit="10" width="67.936" height="57.609"/>
	<text transform="matrix(1 0 0 1 1022.9346 123.26)" font-family="'MyriadPro-Regular'" font-size="12">level21</text>
</g>
<g>
	<rect x="1109" y="109.674" fill="#FFFFFF" stroke="#000000" stroke-miterlimit="10" width="67.936" height="57.609"/>
	<text transform="matrix(1 0 0 1 1126.9346 123.26)" font-family="'MyriadPro-Regular'" font-size="12">level22</text>
</g>
<g>
	<rect x="1215" y="109.674" fill="#FFFFFF" stroke="#000000" stroke-miterlimit="10" width="67.936" height="57.609"/>
	<text transform="matrix(1 0 0 1 1232.9346 123.26)" font-family="'MyriadPro-Regular'" font-size="12">level23</text>
</g>
<g>
	<rect x="1325" y="109.674" fill="#FFFFFF" stroke="#000000" stroke-miterlimit="10" width="67.935" height="57.609"/>
	<text transform="matrix(1 0 0 1 1342.9346 123.26)" font-family="'MyriadPro-Regular'" font-size="12">level24</text>
</g>
<g>
	<rect x="1005" y="222.674" fill="#FFFFFF" stroke="#000000" stroke-miterlimit="10" width="67.936" height="57.609"/>
	<text transform="matrix(1 0 0 1 1022.9346 236.26)" font-family="'MyriadPro-Regular'" font-size="12">level25</text>
</g>
<g>
	<rect x="1109" y="222.674" fill="#FFFFFF" stroke="#000000" stroke-miterlimit="10" width="67.936" height="57.609"/>
	<text transform="matrix(1 0 0 1 1126.9346 236.26)" font-family="'MyriadPro-Regular'" font-size="12">level26</text>
</g>
<g>
	<rect x="1215" y="222.674" fill="#FFFFFF" stroke="#000000" stroke-miterlimit="10" width="67.936" height="57.609"/>
	<text transform="matrix(1 0 0 1 1232.9346 236.26)" font-family="'MyriadPro-Regular'" font-size="12">level27</text>
</g>
<g>
	<rect x="1325" y="222.674" fill="#FFFFFF" stroke="#000000" stroke-miterlimit="10" width="67.935" height="57.609"/>
	<text transform="matrix(1 0 0 1 1342.9346 236.26)" font-family="'MyriadPro-Regular'" font-size="12">level28</text>
</g>
</svg>
