<?xml version="1.0" encoding="utf-8"?>
<!-- Generator: Adobe Illustrator 16.0.0, SVG Export Plug-In . SVG Version: 6.00 Build 0)  -->
<!DOCTYPE svg PUBLIC "-//W3C//DTD SVG 1.1//EN" "http://www.w3.org/Graphics/SVG/1.1/DTD/svg11.dtd">
<svg version="1.1" id="Layer_1" xmlns="http://www.w3.org/2000/svg" xmlns:xlink="http://www.w3.org/1999/xlink" x="0px" y="0px"
	 width="480px" height="320px" viewBox="0 0 480 320" enable-background="new 0 0 480 320" xml:space="preserve">
<g>
	<circle fill="#FFFFFF" stroke="#00FFFF" stroke-miterlimit="10" cx="260.686" cy="222.833" r="6.522"/>
	<text transform="matrix(1 0 0 1 252.9844 235.8772)" font-family="'MyriadPro-Regular'" font-size="8">bulb</text>
</g>
<g>
	<circle fill="none" stroke="#FF0000" stroke-miterlimit="10" cx="173.507" cy="194.5" r="6.522"/>
	<text transform="matrix(1 0 0 1 169.8066 195.2942)" font-family="'MyriadPro-Regular'" font-size="4">bulb</text>
</g>
<g>
	<circle fill="none" stroke="#00FF00" stroke-miterlimit="10" cx="219.507" cy="194.5" r="6.522"/>
	<text transform="matrix(1 0 0 1 214.5566 197.2942)" font-family="'MyriadPro-Regular'" font-size="5">bulb</text>
</g>
<g>
	<rect x="124.647" y="7.333" fill="#FFFFFF" stroke="#000000" stroke-miterlimit="10" width="110" height="8"/>
	<text transform="matrix(1 0 0 1 169.6475 14.8333)" font-family="'MyriadPro-Regular'" font-size="12">moving box</text>
	<circle fill="#FFFFFF" stroke="#00FF00" stroke-miterlimit="10" cx="69.163" cy="11.333" r="5.5"/>
	<circle fill="#FFFFFF" stroke="#FF0000" stroke-miterlimit="10" cx="439.162" cy="11.333" r="5.5"/>
</g>
<g>
	<rect x="40.34" y="205.824" fill="#FFFFFF" stroke="#000000" stroke-miterlimit="10" width="8" height="35.979"/>
	<text transform="matrix(1 0 0 1 41.8472 223.8176)" font-family="'MyriadPro-Regular'" font-size="12">moving box</text>
	<circle fill="#FFFFFF" stroke="#00FF00" stroke-miterlimit="10" cx="44.34" cy="267.227" r="5.5"/>
	<circle fill="#FFFFFF" stroke="#FF0000" stroke-miterlimit="10" cx="44.34" cy="30.774" r="5.5"/>
</g>
<g>
	<circle fill="#FFFFFF" stroke="#0000FF" stroke-miterlimit="10" cx="259.507" cy="194.5" r="6.522"/>
	<text transform="matrix(1 0 0 1 251.8066 207.5442)" font-family="'MyriadPro-Regular'" font-size="8">bulb</text>
</g>
<g>
	<circle fill="#FFFFFF" stroke="#FFFF00" stroke-miterlimit="10" cx="173.507" cy="224.5" r="6.522"/>
	<text transform="matrix(1 0 0 1 165.8066 237.5442)" font-family="'MyriadPro-Regular'" font-size="8">bulb</text>
</g>
<g>
	<circle fill="#FFFFFF" stroke="#FF00FF" stroke-miterlimit="10" cx="219.507" cy="224.5" r="6.522"/>
	<text transform="matrix(1 0 0 1 211.8066 237.5442)" font-family="'MyriadPro-Regular'" font-size="8">bulb</text>
</g>
<g>
	<circle fill="none" stroke="#F37C20" stroke-miterlimit="10" cx="299.507" cy="194.5" r="6.522"/>
	<text transform="matrix(1 0 0 1 291.8066 207.5442)" font-family="'MyriadPro-Regular'" font-size="8">bulb</text>
</g>
<g>
	<circle fill="none" stroke="#000000" stroke-miterlimit="10" cx="439.162" cy="148.569" r="29.972"/>
	<text transform="matrix(1 0 0 1 432.0488 130.0891)" font-family="'MyriadPro-Regular'" font-size="4.1964">rotate:5</text>
	<text transform="matrix(1 0 0 1 419.0088 147.2776)" font-family="'MyriadPro-Regular'" font-size="2.7346">arc</text>
	<text transform="matrix(1 0 0 1 435.5459 134.0227)" font-family="'MyriadPro-Regular'" font-size="4.1964">fill:30</text>
	<circle fill="none" stroke="#00FF00" stroke-miterlimit="10" cx="437.97" cy="118.598" r="2.435"/>
	<circle fill="none" stroke="#FF0000" stroke-miterlimit="10" cx="415.961" cy="129.79" r="2.397"/>
</g>
<g>
	<circle fill="none" stroke="#000000" stroke-miterlimit="10" cx="439.162" cy="73.611" r="29.972"/>
	<text transform="matrix(1 0 0 1 432.0488 55.1301)" font-family="'MyriadPro-Regular'" font-size="4.1964">rotate:1</text>
	<circle fill="#FFFFFF" stroke="#00FF00" stroke-miterlimit="10" cx="446.044" cy="45.319" r="6.522"/>
	<text transform="matrix(1 0 0 1 433.9736 65.9485)" font-family="'MyriadPro-Regular'" font-size="6">bulb</text>
</g>
<text transform="matrix(1 0 0 1 289.167 184.1672)" font-family="'MyriadPro-Regular'" font-size="8">Timer</text>
<text transform="matrix(1 0 0 1 247.5 184.1672)" font-family="'MyriadPro-Regular'" font-size="8">deduct</text>
<g>
	<circle fill="none" stroke="#BABABA" stroke-miterlimit="10" cx="300.686" cy="230.833" r="6.522"/>
	<text transform="matrix(1 0 0 1 296.9844 232.4768)" font-family="'MyriadPro-Regular'" font-size="4">bulb</text>
</g>
<text transform="matrix(1 0 0 1 291.167 222.1672)" font-family="'MyriadPro-Regular'" font-size="8">stone</text>
<g>
	<rect x="201" y="128.67" fill="none" stroke="#000000" stroke-miterlimit="10" width="19" height="6"/>
	<text transform="matrix(0.6748 0 0 1 208.7002 133.8362)" font-family="'MyriadPro-Regular'" font-size="6">box</text>
</g>
<g>
	
		<rect x="367.241" y="296.39" transform="matrix(0.8284 0.5601 -0.5601 0.8284 234.3095 -162.4133)" fill="none" stroke="#00FF00" stroke-miterlimit="10" width="29.997" height="9.667"/>
	<text transform="matrix(0.559 0.3779 -0.5601 0.8284 380.1201 301.1858)" font-family="'MyriadPro-Regular'" font-size="6.0004">rectbulb</text>
</g>
<g>
	
		<rect x="412.618" y="305.538" transform="matrix(0.9818 -0.1898 0.1898 0.9818 -51.1388 86.8097)" fill="none" stroke="#BABABA" stroke-miterlimit="10" width="29.995" height="9.668"/>
	<text transform="matrix(0.6625 -0.1281 0.1898 0.9818 426.0703 311.8547)" font-family="'MyriadPro-Regular'" font-size="6">rectbulb</text>
</g>
<g>
	
		<rect x="451.14" y="279.904" transform="matrix(0.5601 -0.8284 0.8284 0.5601 -30.8391 511.3972)" fill="none" stroke="#FF0000" stroke-miterlimit="10" width="29.991" height="9.667"/>
	<text transform="matrix(0.3779 -0.559 0.8284 0.5601 466.0928 286.9084)" font-family="'MyriadPro-Regular'" font-size="6.0004">rectbulb</text>
</g>
<g>
	
		<rect x="460.263" y="234.575" transform="matrix(-0.1898 -0.9818 0.9818 -0.1898 330.4148 751.4705)" fill="none" stroke="#00FF00" stroke-miterlimit="10" width="29.995" height="9.666"/>
	<text transform="matrix(-0.1281 -0.6625 0.9818 -0.1898 476.7568 240.9651)" font-family="'MyriadPro-Regular'" font-size="6">rectbulb</text>
</g>
<g>
	
		<rect x="434.669" y="196.063" transform="matrix(-0.8285 -0.56 0.56 -0.8285 709.7222 619.15)" fill="none" stroke="#00FF00" stroke-miterlimit="10" width="30" height="9.669"/>
	<text transform="matrix(-0.559 -0.3779 0.5601 -0.8284 451.8105 200.9368)" font-family="'MyriadPro-Regular'" font-size="6.0004">rectbulb</text>
</g>
<g>
	
		<rect x="389.316" y="186.932" transform="matrix(-0.9818 0.1898 -0.1898 -0.9818 837.6753 303.3005)" fill="none" stroke="#00FF00" stroke-miterlimit="10" width="29.995" height="9.667"/>
	<text transform="matrix(-0.6625 0.1281 -0.1898 -0.9818 405.8652 190.2727)" font-family="'MyriadPro-Regular'" font-size="6">rectbulb</text>
</g>
<g>
	
		<rect x="350.792" y="212.515" transform="matrix(-0.56 0.8285 -0.8285 -0.56 750.7051 35.9991)" fill="none" stroke="#00FF00" stroke-miterlimit="10" width="30.003" height="9.67"/>
	<text transform="matrix(-0.3779 0.559 -0.8284 -0.5601 365.8398 215.22)" font-family="'MyriadPro-Regular'" font-size="6.0004">rectbulb</text>
</g>
<g>
	
		<rect x="341.676" y="257.888" transform="matrix(0.1898 0.9818 -0.9818 0.1898 546.9148 -137.336)" fill="none" stroke="#00FF00" stroke-miterlimit="10" width="29.994" height="9.668"/>
	<text transform="matrix(0.1281 0.6625 -0.9818 0.1898 355.1738 261.1663)" font-family="'MyriadPro-Regular'" font-size="6">rectbulb</text>
</g>
<g>
	<circle fill="#FFFFFF" stroke="#00FF00" stroke-miterlimit="10" cx="253.174" cy="127.416" r="6.522"/>
	<text transform="matrix(1 0 0 1 248.2227 130.2102)" font-family="'MyriadPro-Regular'" font-size="2">bulb</text>
	<text transform="matrix(1 0 0 1 248.5 124.5002)" font-family="'MyriadPro-Regular'" font-size="3">rcx:240</text>
	<text transform="matrix(1 0 0 1 248.5 131.5002)" font-family="'MyriadPro-Regular'" font-size="3">rcy:190</text>
	<text transform="matrix(1 0 0 1 247.5 128.5002)" font-family="'MyriadPro-Regular'" font-size="3">rad:201.8</text>
</g>
<g>
	<rect x="235.5" y="151.625" fill="none" stroke="#00FF00" stroke-miterlimit="10" width="39.5" height="14.878"/>
	<text transform="matrix(0.6748 0 0 1 249.3252 165.7112)" font-family="'MyriadPro-Regular'" font-size="5">rectbulb</text>
	<text transform="matrix(1 0 0 1 251.5 154.5002)" font-family="'MyriadPro-Regular'" font-size="3">rcx:240</text>
	<text transform="matrix(1 0 0 1 251.5 161.5002)" font-family="'MyriadPro-Regular'" font-size="3">rcy:190</text>
	<text transform="matrix(1 0 0 1 250.5 158.5002)" font-family="'MyriadPro-Regular'" font-size="3">rad:201.8</text>
</g>
<rect x="61.938" y="-207.823" fill="none" stroke="#000000" stroke-miterlimit="10" width="345.417" height="169.658"/>
<g>
	<rect x="130.146" y="138.337" fill="none" stroke="#BABABA" stroke-miterlimit="10" width="19" height="6"/>
	<text transform="matrix(0.6748 0 0 1 131.5127 143.5032)" font-family="'MyriadPro-Regular'" font-size="6">rectbulb</text>
</g>
<g>
	<rect x="160.146" y="168.336" fill="none" stroke="#00FF00" stroke-miterlimit="10" width="19" height="6"/>
	<text transform="matrix(0.6748 0 0 1 161.5127 173.5032)" font-family="'MyriadPro-Regular'" font-size="6">rectbulb</text>
</g>
<g>
	<rect x="160.146" y="138.336" fill="none" stroke="#FF0000" stroke-miterlimit="10" width="19" height="6"/>
	<text transform="matrix(0.6748 0 0 1 161.5127 143.5032)" font-family="'MyriadPro-Regular'" font-size="6">rectbulb</text>
</g>
</svg>
