<?xml version="1.0" encoding="utf-8"?>
<!-- Generator: Adobe Illustrator 16.0.0, SVG Export Plug-In . SVG Version: 6.00 Build 0)  -->
<!DOCTYPE svg PUBLIC "-//W3C//DTD SVG 1.1//EN" "http://www.w3.org/Graphics/SVG/1.1/DTD/svg11.dtd">
<svg version="1.1" id="Layer_1" xmlns="http://www.w3.org/2000/svg" xmlns:xlink="http://www.w3.org/1999/xlink" x="0px" y="0px"
	 width="480px" height="320px" viewBox="0 0 480 320" enable-background="new 0 0 480 320" xml:space="preserve">
<g>
	<circle fill="#FFFFFF" stroke="#FF0000" stroke-miterlimit="10" cx="217.074" cy="195.74" r="6.522"/>
	<text transform="matrix(1 0 0 1 209.3735 208.7825)" fill="#010101" font-family="'MyriadPro-Regular'" font-size="8">bulb</text>
</g>
<g>
	<circle fill="#FFFFFF" stroke="#FF0000" stroke-miterlimit="10" cx="271.273" cy="195.74" r="6.522"/>
	<text transform="matrix(1 0 0 1 263.5723 208.7825)" fill="#010101" font-family="'MyriadPro-Regular'" font-size="8">bulb</text>
</g>
<g>
	<circle fill="#FFFFFF" stroke="#00FF00" stroke-miterlimit="10" cx="325.473" cy="195.74" r="6.522"/>
	<text transform="matrix(1 0 0 1 317.7715 208.7834)" fill="#010101" font-family="'MyriadPro-Regular'" font-size="8">bulb</text>
</g>
<g>
	<circle fill="#FFFFFF" stroke="#00FF00" stroke-miterlimit="10" cx="162.876" cy="245.74" r="6.522"/>
	<text transform="matrix(1 0 0 1 155.1748 258.7825)" fill="#010101" font-family="'MyriadPro-Regular'" font-size="8">bulb</text>
</g>
<g>
	<circle fill="#FFFFFF" stroke="#FF0000" stroke-miterlimit="10" cx="271.273" cy="245.74" r="6.522"/>
	<text transform="matrix(1 0 0 1 263.5723 258.7825)" fill="#010101" font-family="'MyriadPro-Regular'" font-size="8">bulb</text>
</g>
<g>
	<circle fill="#FFFFFF" stroke="#00FF00" stroke-miterlimit="10" cx="325.473" cy="245.74" r="6.522"/>
	<text transform="matrix(1 0 0 1 317.7715 258.7834)" fill="#010101" font-family="'MyriadPro-Regular'" font-size="8">bulb</text>
</g>
<g>
	<circle fill="#FFFFFF" stroke="#00FF00" stroke-miterlimit="10" cx="130.966" cy="171.74" r="6.522"/>
	<text transform="matrix(1 0 0 1 123.2646 184.7825)" fill="#010101" font-family="'MyriadPro-Regular'" font-size="8">bulb</text>
</g>
<g>
	<circle fill="#FFFFFF" stroke="#00FF00" stroke-miterlimit="10" cx="186.134" cy="171.74" r="6.522"/>
	<text transform="matrix(1 0 0 1 178.4331 184.7825)" fill="#010101" font-family="'MyriadPro-Regular'" font-size="8">bulb</text>
</g>
<g>
	<circle fill="#FFFFFF" stroke="#FF0000" stroke-miterlimit="10" cx="241.302" cy="171.74" r="6.522"/>
	<text transform="matrix(1 0 0 1 233.6011 184.7825)" fill="#010101" font-family="'MyriadPro-Regular'" font-size="8">bulb</text>
</g>
<g>
	<circle fill="#FFFFFF" stroke="#00FF00" stroke-miterlimit="10" cx="296.471" cy="171.74" r="6.522"/>
	<text transform="matrix(1 0 0 1 288.7695 184.7825)" fill="#010101" font-family="'MyriadPro-Regular'" font-size="8">bulb</text>
</g>
<g>
	<circle fill="#FFFFFF" stroke="#00FF00" stroke-miterlimit="10" cx="186.032" cy="121.74" r="6.522"/>
	<text transform="matrix(1 0 0 1 178.3306 134.7825)" fill="#010101" font-family="'MyriadPro-Regular'" font-size="8">bulb</text>
</g>
<g>
	<circle fill="#FFFFFF" stroke="#00FF00" stroke-miterlimit="10" cx="241.209" cy="121.74" r="6.522"/>
	<text transform="matrix(1 0 0 1 233.5083 134.7825)" fill="#010101" font-family="'MyriadPro-Regular'" font-size="8">bulb</text>
</g>
<g>
	<circle fill="#FFFFFF" stroke="#00FF00" stroke-miterlimit="10" cx="351.563" cy="121.647" r="6.522"/>
	<text transform="matrix(1 0 0 1 343.8633 134.6897)" fill="#010101" font-family="'MyriadPro-Regular'" font-size="8">bulb</text>
</g>
<g>
	<circle fill="#FFFFFF" stroke="#00FF00" stroke-miterlimit="10" cx="130.854" cy="121.74" r="6.522"/>
	<text transform="matrix(1 0 0 1 123.1533 134.7825)" fill="#010101" font-family="'MyriadPro-Regular'" font-size="8">bulb</text>
</g>
<g>
	<circle fill="#FFFFFF" stroke="#00FF00" stroke-miterlimit="10" cx="296.386" cy="121.74" r="6.522"/>
	<text transform="matrix(1 0 0 1 288.6855 134.7825)" fill="#010101" font-family="'MyriadPro-Regular'" font-size="8">bulb</text>
</g>
<g>
	<circle fill="#FFFFFF" stroke="#00FF00" stroke-miterlimit="10" cx="351.639" cy="171.74" r="6.522"/>
	<text transform="matrix(1 0 0 1 343.9375 184.7825)" fill="#010101" font-family="'MyriadPro-Regular'" font-size="8">bulb</text>
</g>
<g>
	<circle fill="#FFFFFF" stroke="#00FF00" stroke-miterlimit="10" cx="162.876" cy="195.74" r="6.522"/>
	<text transform="matrix(1 0 0 1 155.1748 208.7825)" fill="#010101" font-family="'MyriadPro-Regular'" font-size="8">bulb</text>
</g>
<g>
	<circle fill="#FFFFFF" stroke="#FF0000" stroke-miterlimit="10" cx="217.074" cy="245.74" r="6.522"/>
	<text transform="matrix(1 0 0 1 209.3735 258.7825)" fill="#010101" font-family="'MyriadPro-Regular'" font-size="8">bulb</text>
</g>
<g>
	<circle fill="#FFFFFF" stroke="#00FF00" stroke-miterlimit="10" cx="130.977" cy="271.74" r="6.522"/>
	<text transform="matrix(1 0 0 1 123.2754 284.7825)" fill="#010101" font-family="'MyriadPro-Regular'" font-size="8">bulb</text>
</g>
<g>
	<circle fill="#FFFFFF" stroke="#00FF00" stroke-miterlimit="10" cx="186.156" cy="271.74" r="6.522"/>
	<text transform="matrix(1 0 0 1 178.4546 284.7825)" fill="#010101" font-family="'MyriadPro-Regular'" font-size="8">bulb</text>
</g>
<g>
	<circle fill="#FFFFFF" stroke="#FF0000" stroke-miterlimit="10" cx="241.334" cy="271.74" r="6.522"/>
	<text transform="matrix(1 0 0 1 233.6333 284.7825)" fill="#010101" font-family="'MyriadPro-Regular'" font-size="8">bulb</text>
</g>
<g>
	<circle fill="#FFFFFF" stroke="#00FF00" stroke-miterlimit="10" cx="351.691" cy="271.74" r="6.522"/>
	<text transform="matrix(1 0 0 1 343.9912 284.7834)" fill="#010101" font-family="'MyriadPro-Regular'" font-size="8">bulb</text>
</g>
<g>
	<circle fill="#FFFFFF" stroke="#00FF00" stroke-miterlimit="10" cx="296.514" cy="271.74" r="6.522"/>
	<text transform="matrix(1 0 0 1 288.8125 284.7825)" fill="#010101" font-family="'MyriadPro-Regular'" font-size="8">bulb</text>
</g>
<g>
	<circle fill="#FFFFFF" stroke="#00FF00" stroke-miterlimit="10" cx="379.672" cy="195.74" r="6.522"/>
	<text transform="matrix(1 0 0 1 371.9707 208.7834)" fill="#010101" font-family="'MyriadPro-Regular'" font-size="8">bulb</text>
</g>
<g>
	<circle fill="#FFFFFF" stroke="#00FF00" stroke-miterlimit="10" cx="379.672" cy="245.74" r="6.522"/>
	<text transform="matrix(1 0 0 1 371.9707 258.7834)" fill="#010101" font-family="'MyriadPro-Regular'" font-size="8">bulb</text>
</g>
<g>
	<circle fill="#FFFFFF" stroke="#00FF00" stroke-miterlimit="10" cx="108.677" cy="245.74" r="6.522"/>
	<text transform="matrix(1 0 0 1 100.9756 258.7825)" fill="#010101" font-family="'MyriadPro-Regular'" font-size="8">bulb</text>
</g>
<g>
	<circle fill="#FFFFFF" stroke="#00FF00" stroke-miterlimit="10" cx="75.798" cy="171.74" r="6.522"/>
	<text transform="matrix(1 0 0 1 68.0967 184.7825)" fill="#010101" font-family="'MyriadPro-Regular'" font-size="8">bulb</text>
</g>
<g>
	<circle fill="#FFFFFF" stroke="#00FF00" stroke-miterlimit="10" cx="75.677" cy="121.74" r="6.522"/>
	<text transform="matrix(1 0 0 1 67.9756 134.7825)" fill="#010101" font-family="'MyriadPro-Regular'" font-size="8">bulb</text>
</g>
<g>
	<circle fill="#FFFFFF" stroke="#00FF00" stroke-miterlimit="10" cx="108.677" cy="195.74" r="6.522"/>
	<text transform="matrix(1 0 0 1 100.9756 208.7825)" fill="#010101" font-family="'MyriadPro-Regular'" font-size="8">bulb</text>
</g>
<g>
	<circle fill="#FFFFFF" stroke="#00FF00" stroke-miterlimit="10" cx="75.798" cy="271.74" r="6.522"/>
	<text transform="matrix(1 0 0 1 68.0967 284.7825)" fill="#010101" font-family="'MyriadPro-Regular'" font-size="8">bulb</text>
</g>
<g>
	<circle fill="#FFFFFF" stroke="#00FF00" stroke-miterlimit="10" cx="406.741" cy="121.647" r="6.522"/>
	<text transform="matrix(1 0 0 1 399.041 134.6897)" fill="#010101" font-family="'MyriadPro-Regular'" font-size="8">bulb</text>
</g>
<g>
	<circle fill="#FFFFFF" stroke="#00FF00" stroke-miterlimit="10" cx="406.807" cy="171.74" r="6.522"/>
	<text transform="matrix(1 0 0 1 399.1055 184.7825)" fill="#010101" font-family="'MyriadPro-Regular'" font-size="8">bulb</text>
</g>
<g>
	<circle fill="#FFFFFF" stroke="#00FF00" stroke-miterlimit="10" cx="406.871" cy="271.74" r="6.522"/>
	<text transform="matrix(1 0 0 1 399.1699 284.7834)" fill="#010101" font-family="'MyriadPro-Regular'" font-size="8">bulb</text>
</g>
<g>
	<rect x="359.398" y="223.333" fill="#FFFFFF" stroke="#000000" stroke-miterlimit="10" width="70.861" height="8"/>
	<text transform="matrix(1 0 0 1 365.2598 230.8333)" font-family="'MyriadPro-Regular'" font-size="12">moving box</text>
	<circle fill="#FFFFFF" stroke="#00FF00" stroke-miterlimit="10" cx="74.776" cy="227.333" r="5.5"/>
	<circle fill="#FFFFFF" stroke="#FF0000" stroke-miterlimit="10" cx="434.775" cy="227.333" r="5.5"/>
</g>
<g>
	<rect x="77.398" y="143.333" fill="#FFFFFF" stroke="#000000" stroke-miterlimit="10" width="70.861" height="8"/>
	<text transform="matrix(1 0 0 1 83.2603 150.8333)" font-family="'MyriadPro-Regular'" font-size="12">moving box</text>
	<circle fill="#FFFFFF" stroke="#00FF00" stroke-miterlimit="10" cx="74.776" cy="147.333" r="5.5"/>
	<circle fill="#FFFFFF" stroke="#FF0000" stroke-miterlimit="10" cx="444.775" cy="147.333" r="5.5"/>
</g>
<text transform="matrix(0.6748 0 0 1 453.1992 174.262)" font-family="'MyriadPro-Regular'" font-size="6">box</text>
<g>
	
		<rect x="0" y="218.262" transform="matrix(-0.9414 -0.3373 0.3373 -0.9414 -35.7397 436.8341)" fill="none" stroke="#000000" stroke-miterlimit="10" width="40.166" height="6.521"/>
	<text transform="matrix(0.6748 0 0 1 13.1992 224.262)" font-family="'MyriadPro-Regular'" font-size="6">box</text>
</g>
<g>
	
		<rect x="0" y="268.262" transform="matrix(-0.9414 -0.3373 0.3373 -0.9414 -52.6069 533.9032)" fill="none" stroke="#000000" stroke-miterlimit="10" width="40.166" height="6.521"/>
	<text transform="matrix(0.6748 0 0 1 13.1992 274.262)" font-family="'MyriadPro-Regular'" font-size="6">box</text>
</g>
<text transform="matrix(0.6748 0 0 1 453.1992 224.262)" font-family="'MyriadPro-Regular'" font-size="6">box</text>
<text transform="matrix(0.6748 0 0 1 453.1992 274.262)" font-family="'MyriadPro-Regular'" font-size="6">box</text>
<g>
	
		<rect x="0" y="168.262" transform="matrix(-0.9414 -0.3373 0.3373 -0.9414 -18.8724 339.7651)" fill="none" stroke="#000000" stroke-miterlimit="10" width="40.166" height="6.521"/>
	<text transform="matrix(0.6748 0 0 1 13.1992 174.262)" font-family="'MyriadPro-Regular'" font-size="6">box</text>
</g>
<g>
	
		<rect x="439.999" y="168.261" transform="matrix(-0.938 0.3467 -0.3467 -0.938 951.0966 172.8969)" fill="none" stroke="#000000" stroke-miterlimit="10" width="40.167" height="6.522"/>
	<text transform="matrix(0.6748 0 0 1 453.1992 174.262)" font-family="'MyriadPro-Regular'" font-size="6">box</text>
</g>
<g>
	
		<rect x="439.999" y="218.261" transform="matrix(-0.938 0.3467 -0.3467 -0.938 968.4314 269.7958)" fill="none" stroke="#000000" stroke-miterlimit="10" width="40.167" height="6.522"/>
	<text transform="matrix(0.6748 0 0 1 453.1992 224.262)" font-family="'MyriadPro-Regular'" font-size="6">box</text>
</g>
<g>
	
		<rect x="439.999" y="268.261" transform="matrix(-0.938 0.3467 -0.3467 -0.938 985.7662 366.6947)" fill="none" stroke="#000000" stroke-miterlimit="10" width="40.167" height="6.522"/>
	<text transform="matrix(0.6748 0 0 1 453.1992 274.262)" font-family="'MyriadPro-Regular'" font-size="6">box</text>
</g>
</svg>
