<?xml version="1.0" encoding="utf-8"?>
<!-- Generator: Adobe Illustrator 16.0.0, SVG Export Plug-In . SVG Version: 6.00 Build 0)  -->
<!DOCTYPE svg PUBLIC "-//W3C//DTD SVG 1.1//EN" "http://www.w3.org/Graphics/SVG/1.1/DTD/svg11.dtd">
<svg version="1.1" id="Layer_1" xmlns="http://www.w3.org/2000/svg" xmlns:xlink="http://www.w3.org/1999/xlink" x="0px" y="0px"
	 width="480px" height="320px" viewBox="0 0 480 320" enable-background="new 0 0 480 320" xml:space="preserve">
<g>
	<circle fill="#FFFFFF" stroke="#FF0000" stroke-miterlimit="10" cx="125.507" cy="215.5" r="6.522"/>
	<text transform="matrix(1 0 0 1 117.8066 228.5442)" font-family="'MyriadPro-Regular'" font-size="8">bulb</text>
</g>
<g>
	<circle fill="#FFFFFF" stroke="#00FF00" stroke-miterlimit="10" cx="171.507" cy="215.5" r="6.522"/>
	<text transform="matrix(1 0 0 1 163.8066 228.5442)" font-family="'MyriadPro-Regular'" font-size="8">bulb</text>
</g>
<g>
	<circle fill="#FFFFFF" stroke="#0000FF" stroke-miterlimit="10" cx="211.507" cy="215.5" r="6.522"/>
	<text transform="matrix(1 0 0 1 203.8066 228.5442)" font-family="'MyriadPro-Regular'" font-size="8">bulb</text>
</g>
<g>
	<circle fill="#FFFFFF" stroke="#FF0000" stroke-miterlimit="10" cx="273.507" cy="215.5" r="6.522"/>
	<text transform="matrix(1 0 0 1 265.8066 228.5442)" font-family="'MyriadPro-Regular'" font-size="8">bulb</text>
</g>
<g>
	<circle fill="#FFFFFF" stroke="#00FF00" stroke-miterlimit="10" cx="319.507" cy="215.5" r="6.522"/>
	<text transform="matrix(1 0 0 1 311.8066 228.5442)" font-family="'MyriadPro-Regular'" font-size="8">bulb</text>
</g>
<g>
	<circle fill="#FFFFFF" stroke="#0000FF" stroke-miterlimit="10" cx="359.507" cy="215.5" r="6.522"/>
	<text transform="matrix(1 0 0 1 351.8066 228.5442)" font-family="'MyriadPro-Regular'" font-size="8">bulb</text>
</g>
<g>
	<circle fill="#FFFFFF" stroke="#FF0000" stroke-miterlimit="10" cx="125.507" cy="255.5" r="6.522"/>
	<text transform="matrix(1 0 0 1 117.8066 268.5442)" font-family="'MyriadPro-Regular'" font-size="8">bulb</text>
</g>
<g>
	<circle fill="#FFFFFF" stroke="#00FF00" stroke-miterlimit="10" cx="171.507" cy="255.5" r="6.522"/>
	<text transform="matrix(1 0 0 1 163.8066 268.5442)" font-family="'MyriadPro-Regular'" font-size="8">bulb</text>
</g>
<g>
	<circle fill="#FFFFFF" stroke="#0000FF" stroke-miterlimit="10" cx="211.507" cy="255.5" r="6.522"/>
	<text transform="matrix(1 0 0 1 203.8066 268.5442)" font-family="'MyriadPro-Regular'" font-size="8">bulb</text>
</g>
<g>
	<circle fill="#FFFFFF" stroke="#FF0000" stroke-miterlimit="10" cx="273.507" cy="255.5" r="6.522"/>
	<text transform="matrix(1 0 0 1 265.8066 268.5442)" font-family="'MyriadPro-Regular'" font-size="8">bulb</text>
</g>
<g>
	<circle fill="#FFFFFF" stroke="#00FF00" stroke-miterlimit="10" cx="319.507" cy="255.5" r="6.522"/>
	<text transform="matrix(1 0 0 1 311.8066 268.5442)" font-family="'MyriadPro-Regular'" font-size="8">bulb</text>
</g>
<g>
	<circle fill="#FFFFFF" stroke="#0000FF" stroke-miterlimit="10" cx="359.507" cy="255.5" r="6.522"/>
	<text transform="matrix(1 0 0 1 351.8066 268.5442)" font-family="'MyriadPro-Regular'" font-size="8">bulb</text>
</g>
</svg>
