<?xml version="1.0" encoding="utf-8"?>
<!-- Generator: Adobe Illustrator 16.0.0, SVG Export Plug-In . SVG Version: 6.00 Build 0)  -->
<!DOCTYPE svg PUBLIC "-//W3C//DTD SVG 1.1//EN" "http://www.w3.org/Graphics/SVG/1.1/DTD/svg11.dtd">
<svg version="1.1" id="Layer_1" xmlns="http://www.w3.org/2000/svg" xmlns:xlink="http://www.w3.org/1999/xlink" x="0px" y="0px"
	 width="480px" height="320px" viewBox="0 0 480 320" enable-background="new 0 0 480 320" xml:space="preserve">
<g>
	
		<rect x="-0.008" y="218.259" transform="matrix(-0.9414 -0.3373 0.3373 -0.9414 -35.7445 436.8304)" fill="none" stroke="#010101" stroke-miterlimit="10" width="40.166" height="6.523"/>
	<text transform="matrix(0.6748 0 0 1 13.1992 224.261)" fill="#010101" font-family="'MyriadPro-Regular'" font-size="6">box</text>
</g>
<g>
	
		<rect x="-0.015" y="268.256" transform="matrix(-0.9414 -0.3373 0.3373 -0.9414 -52.6205 533.8925)" fill="none" stroke="#010101" stroke-miterlimit="10" width="40.166" height="6.523"/>
	<text transform="matrix(0.6748 0 0 1 13.1992 274.261)" fill="#010101" font-family="'MyriadPro-Regular'" font-size="6">box</text>
</g>
<g>
	
		<rect x="-0.012" y="168.258" transform="matrix(-0.9414 -0.3373 0.3373 -0.9414 -18.887 339.7572)" fill="none" stroke="#010101" stroke-miterlimit="10" width="40.166" height="6.523"/>
	<text transform="matrix(0.6748 0 0 1 13.1992 174.262)" fill="#010101" font-family="'MyriadPro-Regular'" font-size="6">box</text>
</g>
<g>
	
		<rect x="440" y="168.26" transform="matrix(-0.938 0.3467 -0.3467 -0.938 951.0992 172.8996)" fill="none" stroke="#010101" stroke-miterlimit="10" width="40.168" height="6.524"/>
	<text transform="matrix(0.6748 0 0 1 453.1992 174.262)" fill="#010101" font-family="'MyriadPro-Regular'" font-size="6">box</text>
</g>
<g>
	
		<rect x="439.997" y="218.267" transform="matrix(-0.938 0.3467 -0.3467 -0.938 968.4327 269.8104)" fill="none" stroke="#010101" stroke-miterlimit="10" width="40.17" height="6.524"/>
	<text transform="matrix(0.6748 0 0 1 453.1992 224.261)" fill="#010101" font-family="'MyriadPro-Regular'" font-size="6">box</text>
</g>
<g>
	
		<rect x="439.997" y="268.263" transform="matrix(-0.938 0.3467 -0.3467 -0.938 985.7657 366.6999)" fill="none" stroke="#010101" stroke-miterlimit="10" width="40.17" height="6.522"/>
	<text transform="matrix(0.6748 0 0 1 453.1992 274.261)" fill="#010101" font-family="'MyriadPro-Regular'" font-size="6">box</text>
</g>
<rect x="395.992" y="138.546" transform="matrix(-0.9912 -0.1327 0.1327 -0.9912 789.5249 336.8915)" fill="none" width="20" height="7.167"/>
<g>
	
		<rect x="396.503" y="139.047" transform="matrix(-0.9912 -0.1327 0.1327 -0.9912 789.559 336.7269)" fill="none" stroke="#BABABA" stroke-miterlimit="10" width="19" height="6"/>
	<text transform="matrix(0.6688 0.0896 -0.1327 0.9912 397.6533 143.115)" font-family="'MyriadPro-Regular'" font-size="6">rectbulb</text>
</g>
<rect x="376.168" y="135.891" transform="matrix(-0.9912 -0.1327 0.1327 -0.9912 750.4063 328.9742)" fill="none" width="20" height="7.167"/>
<g>
	
		<rect x="376.68" y="136.392" transform="matrix(-0.9912 -0.1327 0.1327 -0.9912 750.4403 328.8096)" fill="none" stroke="#BABABA" stroke-miterlimit="10" width="19" height="6"/>
	<text transform="matrix(0.6688 0.0896 -0.1327 0.9912 377.8301 140.4602)" font-family="'MyriadPro-Regular'" font-size="6">rectbulb</text>
</g>
<rect x="356.345" y="133.237" transform="matrix(-0.9912 -0.1327 0.1327 -0.9912 711.2875 321.0578)" fill="none" width="20" height="7.167"/>
<g>
	
		<rect x="356.856" y="133.738" transform="matrix(-0.9912 -0.1327 0.1327 -0.9912 711.3215 320.8932)" fill="none" stroke="#BABABA" stroke-miterlimit="10" width="19" height="6"/>
	<text transform="matrix(0.6688 0.0896 -0.1327 0.9912 358.0068 137.8059)" font-family="'MyriadPro-Regular'" font-size="6">rectbulb</text>
</g>
<rect x="336.522" y="130.582" transform="matrix(-0.9912 -0.1327 0.1327 -0.9912 672.1688 313.1404)" fill="none" width="20" height="7.167"/>
<g>
	
		<rect x="337.033" y="131.083" transform="matrix(-0.9912 -0.1327 0.1327 -0.9912 672.2028 312.976)" fill="none" stroke="#BABABA" stroke-miterlimit="10" width="19" height="6"/>
	<text transform="matrix(0.6688 0.0896 -0.1327 0.9912 338.1836 135.1511)" font-family="'MyriadPro-Regular'" font-size="6">rectbulb</text>
</g>
<rect x="316.699" y="127.927" transform="matrix(-0.9912 -0.1327 0.1327 -0.9912 633.0502 305.223)" fill="none" width="20" height="7.167"/>
<g>
	
		<rect x="317.21" y="128.428" transform="matrix(-0.9912 -0.1327 0.1327 -0.9912 633.0841 305.0587)" fill="none" stroke="#BABABA" stroke-miterlimit="10" width="19" height="6"/>
	<text transform="matrix(0.6688 0.0896 -0.1327 0.9912 318.3604 132.4963)" font-family="'MyriadPro-Regular'" font-size="6">rectbulb</text>
</g>
<rect x="296.876" y="125.273" transform="matrix(-0.9912 -0.1327 0.1327 -0.9912 593.9333 297.3068)" fill="none" width="20" height="7.167"/>
<g>
	
		<rect x="297.388" y="125.774" transform="matrix(-0.9912 -0.1327 0.1327 -0.9912 593.9673 297.1425)" fill="none" stroke="#BABABA" stroke-miterlimit="10" width="19" height="6"/>
	<text transform="matrix(0.6688 0.0896 -0.1327 0.9912 298.5381 129.842)" font-family="'MyriadPro-Regular'" font-size="6">rectbulb</text>
</g>
<rect x="277.053" y="122.618" transform="matrix(-0.9912 -0.1327 0.1327 -0.9912 554.8146 289.3894)" fill="none" width="20" height="7.167"/>
<g>
	
		<rect x="277.564" y="123.119" transform="matrix(-0.9912 -0.1327 0.1327 -0.9912 554.8486 289.2251)" fill="none" stroke="#BABABA" stroke-miterlimit="10" width="19" height="6"/>
	<text transform="matrix(0.6688 0.0896 -0.1327 0.9912 278.7148 127.1873)" font-family="'MyriadPro-Regular'" font-size="6">rectbulb</text>
</g>
<rect x="257.23" y="119.963" transform="matrix(-0.9912 -0.1327 0.1327 -0.9912 515.696 281.472)" fill="none" width="20" height="7.167"/>
<g>
	
		<rect x="257.741" y="120.464" transform="matrix(-0.9912 -0.1327 0.1327 -0.9912 515.7299 281.3078)" fill="none" stroke="#BABABA" stroke-miterlimit="10" width="19" height="6"/>
	<text transform="matrix(0.6688 0.0896 -0.1327 0.9912 258.8916 124.5325)" font-family="'MyriadPro-Regular'" font-size="6">rectbulb</text>
</g>
<rect x="237.407" y="117.309" transform="matrix(-0.9912 -0.1327 0.1327 -0.9912 476.5772 273.5556)" fill="none" width="20" height="7.167"/>
<g>
	
		<rect x="237.918" y="117.81" transform="matrix(-0.9912 -0.1327 0.1327 -0.9912 476.6111 273.3915)" fill="none" stroke="#BABABA" stroke-miterlimit="10" width="19" height="6"/>
	<text transform="matrix(0.6688 0.0896 -0.1327 0.9912 239.0684 121.8782)" font-family="'MyriadPro-Regular'" font-size="6">rectbulb</text>
</g>
<rect x="217.583" y="114.654" transform="matrix(-0.9912 -0.1327 0.1327 -0.9912 437.4585 265.6382)" fill="none" width="20" height="7.167"/>
<g>
	
		<rect x="218.094" y="115.155" transform="matrix(-0.9912 -0.1327 0.1327 -0.9912 437.4919 265.4742)" fill="none" stroke="#BABABA" stroke-miterlimit="10" width="19" height="6"/>
	<text transform="matrix(0.6688 0.0896 -0.1327 0.9912 219.2451 119.2234)" font-family="'MyriadPro-Regular'" font-size="6">rectbulb</text>
</g>
<rect x="197.761" y="112" transform="matrix(-0.9912 -0.1327 0.1327 -0.9912 398.3417 257.722)" fill="none" width="20" height="7.167"/>
<g>
	
		<rect x="198.272" y="112.501" transform="matrix(-0.9912 -0.1327 0.1327 -0.9912 398.3751 257.558)" fill="none" stroke="#BABABA" stroke-miterlimit="10" width="19" height="6"/>
	<text transform="matrix(0.6688 0.0896 -0.1327 0.9912 199.4229 116.5691)" font-family="'MyriadPro-Regular'" font-size="6">rectbulb</text>
</g>
<rect x="177.938" y="109.345" transform="matrix(-0.9912 -0.1327 0.1327 -0.9912 359.2231 249.8046)" fill="none" width="20" height="7.167"/>
<g>
	
		<rect x="178.449" y="109.846" transform="matrix(-0.9912 -0.1327 0.1327 -0.9912 359.2564 249.6407)" fill="none" stroke="#BABABA" stroke-miterlimit="10" width="19" height="6"/>
	<text transform="matrix(0.6688 0.0896 -0.1327 0.9912 179.5996 113.9143)" font-family="'MyriadPro-Regular'" font-size="6">rectbulb</text>
</g>
<rect x="158.115" y="106.69" transform="matrix(-0.9912 -0.1327 0.1327 -0.9912 320.1044 241.8872)" fill="none" width="20" height="7.167"/>
<g>
	
		<rect x="158.626" y="107.191" transform="matrix(-0.9912 -0.1327 0.1327 -0.9912 320.1377 241.7234)" fill="none" stroke="#BABABA" stroke-miterlimit="10" width="19" height="6"/>
	<text transform="matrix(0.6688 0.0896 -0.1327 0.9912 159.7764 111.2595)" font-family="'MyriadPro-Regular'" font-size="6">rectbulb</text>
</g>
<rect x="138.291" y="104.036" transform="matrix(-0.9912 -0.1327 0.1327 -0.9912 280.9856 233.9708)" fill="none" width="20" height="7.167"/>
<g>
	
		<rect x="138.802" y="104.537" transform="matrix(-0.9912 -0.1327 0.1327 -0.9912 281.0189 233.807)" fill="none" stroke="#BABABA" stroke-miterlimit="10" width="19" height="6"/>
	<text transform="matrix(0.6688 0.0896 -0.1327 0.9912 139.9531 108.6052)" font-family="'MyriadPro-Regular'" font-size="6">rectbulb</text>
</g>
<rect x="118.468" y="101.381" transform="matrix(-0.9912 -0.1327 0.1327 -0.9912 241.8669 226.0535)" fill="none" width="20" height="7.167"/>
<g>
	
		<rect x="118.979" y="101.882" transform="matrix(-0.9912 -0.1327 0.1327 -0.9912 241.9002 225.8897)" fill="none" stroke="#BABABA" stroke-miterlimit="10" width="19" height="6"/>
	<text transform="matrix(0.6688 0.0896 -0.1327 0.9912 120.1299 105.9504)" font-family="'MyriadPro-Regular'" font-size="6">rectbulb</text>
</g>
<rect x="98.646" y="98.727" transform="matrix(-0.9912 -0.1327 0.1327 -0.9912 202.7502 218.1362)" fill="none" width="20" height="7.167"/>
<g>
	
		<rect x="99.157" y="99.227" transform="matrix(-0.9912 -0.1327 0.1327 -0.9912 202.7835 217.9725)" fill="none" stroke="#BABABA" stroke-miterlimit="10" width="19" height="6"/>
	<text transform="matrix(0.6688 0.0896 -0.1327 0.9912 100.3076 103.2957)" font-family="'MyriadPro-Regular'" font-size="6">rectbulb</text>
</g>
<rect x="78.823" y="96.072" transform="matrix(-0.9912 -0.1327 0.1327 -0.9912 163.6314 210.2198)" fill="none" width="20" height="7.167"/>
<g>
	
		<rect x="79.334" y="96.573" transform="matrix(-0.9912 -0.1327 0.1327 -0.9912 163.6647 210.0562)" fill="none" stroke="#BABABA" stroke-miterlimit="10" width="19" height="6"/>
	<text transform="matrix(0.6688 0.0896 -0.1327 0.9912 80.4844 100.6414)" font-family="'MyriadPro-Regular'" font-size="6">rectbulb</text>
</g>
<rect x="58.999" y="93.418" transform="matrix(-0.9912 -0.1327 0.1327 -0.9912 124.5128 202.3025)" fill="none" width="20" height="7.167"/>
<g>
	
		<rect x="59.51" y="93.918" transform="matrix(-0.9912 -0.1327 0.1327 -0.9912 124.546 202.1389)" fill="none" stroke="#BABABA" stroke-miterlimit="10" width="19" height="6"/>
	<text transform="matrix(0.6688 0.0896 -0.1327 0.9912 60.6611 97.9866)" font-family="'MyriadPro-Regular'" font-size="6">rectbulb</text>
</g>
<rect x="83.616" y="213.554" transform="matrix(0.9938 -0.1114 0.1114 0.9938 -23.6117 11.7834)" fill="none" width="20" height="7.167"/>
<g>
	
		<rect x="84.126" y="214.22" transform="matrix(0.9938 -0.1114 0.1114 0.9938 -23.6113 11.7795)" fill="none" stroke="#BABABA" stroke-miterlimit="10" width="19" height="6"/>
	<text transform="matrix(-0.6706 0.0752 -0.1114 -0.9938 101.4683 214.1614)" font-family="'MyriadPro-Regular'" font-size="6">rectbulb</text>
</g>
<rect x="103.492" y="211.326" transform="matrix(0.9938 -0.1114 0.1114 0.9938 -23.2396 13.9842)" fill="none" width="20" height="7.167"/>
<g>
	
		<rect x="104.001" y="211.992" transform="matrix(0.9938 -0.1114 0.1114 0.9938 -23.2394 13.9794)" fill="none" stroke="#BABABA" stroke-miterlimit="10" width="19" height="6"/>
	<text transform="matrix(-0.6706 0.0752 -0.1114 -0.9938 121.3433 211.9329)" font-family="'MyriadPro-Regular'" font-size="6">rectbulb</text>
</g>
<rect x="123.367" y="209.098" transform="matrix(0.9938 -0.1114 0.1114 0.9938 -22.8676 16.1849)" fill="none" width="20" height="7.167"/>
<g>
	
		<rect x="123.877" y="209.764" transform="matrix(0.9938 -0.1114 0.1114 0.9938 -22.8677 16.1792)" fill="none" stroke="#BABABA" stroke-miterlimit="10" width="19" height="6"/>
	<text transform="matrix(-0.6706 0.0752 -0.1114 -0.9938 141.2183 209.7053)" font-family="'MyriadPro-Regular'" font-size="6">rectbulb</text>
</g>
<rect x="143.243" y="206.87" transform="matrix(0.9938 -0.1114 0.1114 0.9938 -22.4956 18.3857)" fill="none" width="20" height="7.167"/>
<g>
	
		<rect x="143.752" y="207.536" transform="matrix(0.9938 -0.1114 0.1114 0.9938 -22.4958 18.3791)" fill="none" stroke="#BABABA" stroke-miterlimit="10" width="19" height="6"/>
	<text transform="matrix(-0.6706 0.0752 -0.1114 -0.9938 161.0933 207.4768)" font-family="'MyriadPro-Regular'" font-size="6">rectbulb</text>
</g>
<rect x="163.118" y="204.642" transform="matrix(0.9938 -0.1114 0.1114 0.9938 -22.1236 20.5865)" fill="none" width="20" height="7.167"/>
<g>
	
		<rect x="163.628" y="205.308" transform="matrix(0.9938 -0.1114 0.1114 0.9938 -22.124 20.5789)" fill="none" stroke="#BABABA" stroke-miterlimit="10" width="19" height="6"/>
	<text transform="matrix(-0.6706 0.0752 -0.1114 -0.9938 180.9702 205.2493)" font-family="'MyriadPro-Regular'" font-size="6">rectbulb</text>
</g>
<rect x="182.994" y="202.413" transform="matrix(0.9938 -0.1114 0.1114 0.9938 -21.7515 22.7872)" fill="none" width="20" height="7.167"/>
<g>
	
		<rect x="183.503" y="203.08" transform="matrix(0.9938 -0.1114 0.1114 0.9938 -21.7521 22.7788)" fill="none" stroke="#BABABA" stroke-miterlimit="10" width="19" height="6"/>
	<text transform="matrix(-0.6706 0.0752 -0.1114 -0.9938 200.8452 203.0208)" font-family="'MyriadPro-Regular'" font-size="6">rectbulb</text>
</g>
<rect x="202.869" y="200.186" transform="matrix(0.9938 -0.1114 0.1114 0.9938 -21.3795 24.988)" fill="none" width="20" height="7.167"/>
<g>
	
		<rect x="203.379" y="200.852" transform="matrix(0.9938 -0.1114 0.1114 0.9938 -21.3804 24.9786)" fill="none" stroke="#BABABA" stroke-miterlimit="10" width="19" height="6"/>
	<text transform="matrix(-0.6706 0.0752 -0.1114 -0.9938 220.7202 200.7932)" font-family="'MyriadPro-Regular'" font-size="6">rectbulb</text>
</g>
<rect x="222.745" y="197.958" transform="matrix(0.9938 -0.1114 0.1114 0.9938 -21.0076 27.1888)" fill="none" width="20" height="7.167"/>
<g>
	
		<rect x="223.254" y="198.625" transform="matrix(0.9938 -0.1114 0.1114 0.9938 -21.0091 27.1792)" fill="none" stroke="#BABABA" stroke-miterlimit="10" width="19" height="6"/>
	<text transform="matrix(-0.6706 0.0752 -0.1114 -0.9938 240.5947 198.5657)" font-family="'MyriadPro-Regular'" font-size="6">rectbulb</text>
</g>
<rect x="242.62" y="195.73" transform="matrix(0.9938 -0.1114 0.1114 0.9938 -20.6359 29.3903)" fill="none" width="20" height="7.167"/>
<g>
	
		<rect x="243.129" y="196.396" transform="matrix(0.9938 -0.1114 0.1114 0.9938 -20.6367 29.3783)" fill="none" stroke="#BABABA" stroke-miterlimit="10" width="19" height="6"/>
	<text transform="matrix(-0.6706 0.0752 -0.1114 -0.9938 260.4697 196.3372)" font-family="'MyriadPro-Regular'" font-size="6">rectbulb</text>
</g>
<rect x="262.496" y="193.502" transform="matrix(0.9938 -0.1114 0.1114 0.9938 -20.2631 31.5896)" fill="none" width="20.001" height="7.167"/>
<g>
	
		<rect x="263.005" y="194.169" transform="matrix(0.9938 -0.1114 0.1114 0.9938 -20.265 31.5782)" fill="none" stroke="#BABABA" stroke-miterlimit="10" width="19" height="6"/>
	<text transform="matrix(-0.6706 0.0752 -0.1114 -0.9938 280.3467 194.1096)" font-family="'MyriadPro-Regular'" font-size="6">rectbulb</text>
</g>
<rect x="282.371" y="191.274" transform="matrix(0.9938 -0.1114 0.1114 0.9938 -19.891 33.7902)" fill="none" width="20.001" height="7.167"/>
<g>
	
		<rect x="282.881" y="191.94" transform="matrix(0.9938 -0.1114 0.1114 0.9938 -19.8931 33.7781)" fill="none" stroke="#BABABA" stroke-miterlimit="10" width="19" height="6"/>
	<text transform="matrix(-0.6706 0.0752 -0.1114 -0.9938 300.2217 191.8811)" font-family="'MyriadPro-Regular'" font-size="6">rectbulb</text>
</g>
<rect x="302.247" y="189.046" transform="matrix(0.9938 -0.1114 0.1114 0.9938 -19.5199 35.9928)" fill="none" width="20" height="7.167"/>
<g>
	
		<rect x="302.756" y="189.713" transform="matrix(0.9938 -0.1114 0.1114 0.9938 -19.5213 35.9779)" fill="none" stroke="#BABABA" stroke-miterlimit="10" width="19" height="6"/>
	<text transform="matrix(-0.6706 0.0752 -0.1114 -0.9938 320.0967 189.6536)" font-family="'MyriadPro-Regular'" font-size="6">rectbulb</text>
</g>
<rect x="322.122" y="186.818" transform="matrix(0.9938 -0.1114 0.1114 0.9938 -19.1469 38.1917)" fill="none" width="20.001" height="7.167"/>
<g>
	
		<rect x="322.632" y="187.484" transform="matrix(0.9938 -0.1114 0.1114 0.9938 -19.1494 38.1778)" fill="none" stroke="#BABABA" stroke-miterlimit="10" width="19" height="6"/>
	<text transform="matrix(-0.6706 0.0752 -0.1114 -0.9938 339.9736 187.425)" font-family="'MyriadPro-Regular'" font-size="6">rectbulb</text>
</g>
<rect x="341.998" y="184.59" transform="matrix(0.9938 -0.1114 0.1114 0.9938 -18.775 40.3924)" fill="none" width="20.001" height="7.167"/>
<g>
	
		<rect x="342.507" y="185.257" transform="matrix(0.9938 -0.1114 0.1114 0.9938 -18.7777 40.3776)" fill="none" stroke="#BABABA" stroke-miterlimit="10" width="19" height="6"/>
	<text transform="matrix(-0.6706 0.0752 -0.1114 -0.9938 359.8486 185.1975)" font-family="'MyriadPro-Regular'" font-size="6">rectbulb</text>
</g>
<rect x="361.873" y="182.362" transform="matrix(0.9938 -0.1114 0.1114 0.9938 -18.4029 42.5931)" fill="none" width="20.001" height="7.167"/>
<g>
	
		<rect x="362.383" y="183.028" transform="matrix(0.9938 -0.1114 0.1114 0.9938 -18.4058 42.5775)" fill="none" stroke="#BABABA" stroke-miterlimit="10" width="19" height="6"/>
	<text transform="matrix(-0.6706 0.0752 -0.1114 -0.9938 379.7236 182.969)" font-family="'MyriadPro-Regular'" font-size="6">rectbulb</text>
</g>
<rect x="381.749" y="180.134" transform="matrix(0.9938 -0.1114 0.1114 0.9938 -18.0317 44.796)" fill="none" width="20" height="7.167"/>
<g>
	
		<rect x="382.258" y="180.8" transform="matrix(0.9938 -0.1114 0.1114 0.9938 -18.034 44.7773)" fill="none" stroke="#BABABA" stroke-miterlimit="10" width="19" height="6"/>
	<text transform="matrix(-0.6706 0.0752 -0.1114 -0.9938 399.5986 180.7415)" font-family="'MyriadPro-Regular'" font-size="6">rectbulb</text>
</g>
<rect x="401.624" y="177.906" transform="matrix(0.9938 -0.1114 0.1114 0.9938 -17.6589 46.9945)" fill="none" width="20.001" height="7.167"/>
<g>
	
		<rect x="402.134" y="178.572" transform="matrix(0.9938 -0.1114 0.1114 0.9938 -17.6622 46.9772)" fill="none" stroke="#BABABA" stroke-miterlimit="10" width="19" height="6"/>
	<text transform="matrix(-0.6706 0.0752 -0.1114 -0.9938 419.4756 178.5129)" font-family="'MyriadPro-Regular'" font-size="6">rectbulb</text>
</g>
<rect x="421.5" y="175.678" transform="matrix(0.9938 -0.1114 0.1114 0.9938 -17.2869 49.1953)" fill="none" width="20.001" height="7.167"/>
<g>
	
		<rect x="422.009" y="176.344" transform="matrix(0.9938 -0.1114 0.1114 0.9938 -17.2904 49.177)" fill="none" stroke="#BABABA" stroke-miterlimit="10" width="19" height="6"/>
	<text transform="matrix(-0.6706 0.0752 -0.1114 -0.9938 439.3506 176.2854)" font-family="'MyriadPro-Regular'" font-size="6">rectbulb</text>
</g>
<rect x="403.543" y="284.77" transform="matrix(-0.9898 -0.1422 0.1422 -0.9898 781.8853 632.5754)" fill="none" width="20" height="7.166"/>
<g>
	
		<rect x="404.056" y="285.27" transform="matrix(-0.9898 -0.1422 0.1422 -0.9898 781.9098 632.4252)" fill="none" stroke="#000000" stroke-miterlimit="10" width="19" height="5.999"/>
	<text transform="matrix(0.6679 0.096 -0.1422 0.9898 411.4648 290.1575)" font-family="'MyriadPro-Regular'" font-size="6">box</text>
</g>
<rect x="383.747" y="281.924" transform="matrix(-0.9898 -0.1422 0.1422 -0.9898 742.8828 624.1169)" fill="none" width="20" height="7.167"/>
<g>
	
		<rect x="384.26" y="282.425" transform="matrix(-0.9898 -0.1422 0.1422 -0.9898 742.9238 623.9503)" fill="none" stroke="#000000" stroke-miterlimit="10" width="19" height="6"/>
	<text transform="matrix(0.6679 0.096 -0.1422 0.9898 391.6689 287.3137)" font-family="'MyriadPro-Regular'" font-size="6">box</text>
</g>
<rect x="363.951" y="279.081" transform="matrix(-0.9898 -0.1422 0.1422 -0.9898 703.9108 615.6266)" fill="none" width="20" height="7.166"/>
<g>
	
		<rect x="364.463" y="279.582" transform="matrix(-0.9898 -0.1422 0.1422 -0.9898 703.9358 615.4752)" fill="none" stroke="#000000" stroke-miterlimit="10" width="19" height="5.999"/>
	<text transform="matrix(0.6679 0.096 -0.1422 0.9898 371.8721 284.469)" font-family="'MyriadPro-Regular'" font-size="6">box</text>
</g>
<rect x="344.154" y="276.236" transform="matrix(-0.9898 -0.1422 0.1422 -0.9898 664.9069 607.1662)" fill="none" width="20" height="7.167"/>
<g>
	
		<rect x="344.666" y="276.737" transform="matrix(-0.9898 -0.1422 0.1422 -0.9898 664.9478 607.0001)" fill="none" stroke="#000000" stroke-miterlimit="10" width="19" height="6"/>
	<text transform="matrix(0.6679 0.096 -0.1422 0.9898 352.0752 281.6252)" font-family="'MyriadPro-Regular'" font-size="6">box</text>
</g>
<rect x="324.357" y="273.393" transform="matrix(-0.9898 -0.1422 0.1422 -0.9898 625.9344 598.6777)" fill="none" width="20" height="7.166"/>
<g>
	
		<rect x="324.869" y="273.893" transform="matrix(-0.9898 -0.1422 0.1422 -0.9898 625.9597 598.525)" fill="none" stroke="#000000" stroke-miterlimit="10" width="19" height="5.999"/>
	<text transform="matrix(0.6679 0.096 -0.1422 0.9898 332.2783 278.7805)" font-family="'MyriadPro-Regular'" font-size="6">box</text>
</g>
<rect x="304.56" y="270.547" transform="matrix(-0.9898 -0.1422 0.1422 -0.9898 586.9311 590.2155)" fill="none" width="20" height="7.167"/>
<g>
	
		<rect x="305.072" y="271.048" transform="matrix(-0.9898 -0.1422 0.1422 -0.9898 586.9717 590.05)" fill="none" stroke="#000000" stroke-miterlimit="10" width="19" height="6"/>
	<text transform="matrix(0.6679 0.096 -0.1422 0.9898 312.4814 275.9368)" font-family="'MyriadPro-Regular'" font-size="6">box</text>
</g>
<rect x="284.763" y="267.704" transform="matrix(-0.9898 -0.1422 0.1422 -0.9898 547.958 581.7289)" fill="none" width="20" height="7.166"/>
<g>
	
		<rect x="285.276" y="268.205" transform="matrix(-0.9898 -0.1422 0.1422 -0.9898 547.9837 581.5749)" fill="none" stroke="#000000" stroke-miterlimit="10" width="19" height="5.999"/>
	<text transform="matrix(0.6679 0.096 -0.1422 0.9898 292.6846 273.092)" font-family="'MyriadPro-Regular'" font-size="6">box</text>
</g>
<rect x="264.967" y="264.859" transform="matrix(-0.9898 -0.1422 0.1422 -0.9898 508.9572 573.2649)" fill="none" width="20" height="7.167"/>
<g>
	
		<rect x="265.48" y="265.36" transform="matrix(-0.9898 -0.1422 0.1422 -0.9898 508.9977 573.1)" fill="none" stroke="#000000" stroke-miterlimit="10" width="19" height="6"/>
	<text transform="matrix(0.6679 0.096 -0.1422 0.9898 272.8887 270.2483)" font-family="'MyriadPro-Regular'" font-size="6">box</text>
</g>
<rect x="245.17" y="262.016" transform="matrix(-0.9898 -0.1422 0.1422 -0.9898 469.9836 564.7802)" fill="none" width="20" height="7.166"/>
<g>
	
		<rect x="245.683" y="262.516" transform="matrix(-0.9898 -0.1422 0.1422 -0.9898 470.0096 564.6249)" fill="none" stroke="#000000" stroke-miterlimit="10" width="19" height="5.999"/>
	<text transform="matrix(0.6679 0.096 -0.1422 0.9898 253.0918 267.4036)" font-family="'MyriadPro-Regular'" font-size="6">box</text>
</g>
<rect x="225.373" y="259.17" transform="matrix(-0.9898 -0.1422 0.1422 -0.9898 430.9813 556.3142)" fill="none" width="20" height="7.167"/>
<g>
	
		<rect x="225.886" y="259.671" transform="matrix(-0.9898 -0.1422 0.1422 -0.9898 431.0216 556.1498)" fill="none" stroke="#000000" stroke-miterlimit="10" width="19" height="6"/>
	<text transform="matrix(0.6679 0.096 -0.1422 0.9898 233.2954 264.5598)" font-family="'MyriadPro-Regular'" font-size="6">box</text>
</g>
<rect x="205.577" y="256.327" transform="matrix(-0.9898 -0.1422 0.1422 -0.9898 392.0077 547.8313)" fill="none" width="20" height="7.166"/>
<g>
	
		<rect x="206.089" y="256.828" transform="matrix(-0.9898 -0.1422 0.1422 -0.9898 392.0336 547.6747)" fill="none" stroke="#000000" stroke-miterlimit="10" width="19" height="5.999"/>
	<text transform="matrix(0.6679 0.096 -0.1422 0.9898 213.4985 261.7151)" font-family="'MyriadPro-Regular'" font-size="6">box</text>
</g>
<rect x="185.78" y="253.482" transform="matrix(-0.9898 -0.1422 0.1422 -0.9898 353.006 539.3635)" fill="none" width="20" height="7.167"/>
<g>
	
		<rect x="186.292" y="253.983" transform="matrix(-0.9898 -0.1422 0.1422 -0.9898 353.0456 539.1996)" fill="none" stroke="#000000" stroke-miterlimit="10" width="19" height="6"/>
	<text transform="matrix(0.6679 0.096 -0.1422 0.9898 193.7017 258.8713)" font-family="'MyriadPro-Regular'" font-size="6">box</text>
</g>
<rect x="165.983" y="250.638" transform="matrix(-0.9898 -0.1422 0.1422 -0.9898 314.018 530.8891)" fill="none" width="20" height="7.167"/>
<g>
	
		<rect x="166.495" y="251.139" transform="matrix(-0.9898 -0.1422 0.1422 -0.9898 314.0576 530.7255)" fill="none" stroke="#000000" stroke-miterlimit="10" width="19" height="6"/>
	<text transform="matrix(0.6679 0.096 -0.1422 0.9898 173.9048 256.0276)" font-family="'MyriadPro-Regular'" font-size="6">box</text>
</g>
<rect x="146.186" y="247.795" transform="matrix(-0.9898 -0.1422 0.1422 -0.9898 275.043 522.409)" fill="none" width="20" height="7.166"/>
<g>
	
		<rect x="146.698" y="248.295" transform="matrix(-0.9898 -0.1422 0.1422 -0.9898 275.0695 522.2505)" fill="none" stroke="#000000" stroke-miterlimit="10" width="19" height="5.999"/>
	<text transform="matrix(0.6679 0.096 -0.1422 0.9898 154.1079 253.1829)" font-family="'MyriadPro-Regular'" font-size="6">box</text>
</g>
<rect x="126.39" y="244.95" transform="matrix(-0.9898 -0.1422 0.1422 -0.9898 236.0441 513.9385)" fill="none" width="20" height="7.167"/>
<g>
	
		<rect x="126.902" y="245.451" transform="matrix(-0.9898 -0.1422 0.1422 -0.9898 236.0835 513.7755)" fill="none" stroke="#000000" stroke-miterlimit="10" width="19" height="6"/>
	<text transform="matrix(0.6679 0.096 -0.1422 0.9898 134.312 250.3391)" font-family="'MyriadPro-Regular'" font-size="6">box</text>
</g>
<rect x="106.593" y="242.106" transform="matrix(-0.9898 -0.1422 0.1422 -0.9898 197.0686 505.4602)" fill="none" width="20" height="7.166"/>
<g>
	
		<rect x="107.106" y="242.607" transform="matrix(-0.9898 -0.1422 0.1422 -0.9898 197.0955 505.3004)" fill="none" stroke="#000000" stroke-miterlimit="10" width="19" height="5.999"/>
	<text transform="matrix(0.6679 0.096 -0.1422 0.9898 114.5151 247.4944)" font-family="'MyriadPro-Regular'" font-size="6">box</text>
</g>
<rect x="86.797" y="239.261" transform="matrix(-0.9898 -0.1422 0.1422 -0.9898 158.0682 496.9878)" fill="none" width="20" height="7.167"/>
<g>
	
		<rect x="87.309" y="239.762" transform="matrix(-0.9898 -0.1422 0.1422 -0.9898 158.1075 496.8254)" fill="none" stroke="#000000" stroke-miterlimit="10" width="19" height="6"/>
	<text transform="matrix(0.6679 0.096 -0.1422 0.9898 94.7183 244.6506)" font-family="'MyriadPro-Regular'" font-size="6">box</text>
</g>
<rect x="67" y="236.418" transform="matrix(-0.9898 -0.1422 0.1422 -0.9898 119.0922 488.5114)" fill="none" width="20" height="7.166"/>
<g>
	
		<rect x="67.512" y="236.918" transform="matrix(-0.9898 -0.1422 0.1422 -0.9898 119.1194 488.3503)" fill="none" stroke="#000000" stroke-miterlimit="10" width="19" height="5.999"/>
	<text transform="matrix(0.6679 0.096 -0.1422 0.9898 74.9214 241.8059)" font-family="'MyriadPro-Regular'" font-size="6">box</text>
</g>
<rect x="230.107" y="128.051" transform="matrix(-0.9926 -0.1218 0.1218 -0.9926 456.0391 298.0241)" fill="none" width="14.043" height="14.044"/>
<g>
	<circle fill="none" stroke="#00FF00" stroke-miterlimit="10" cx="237.128" cy="135.074" r="6.522"/>
	<text transform="matrix(0.9926 0.1218 -0.1218 0.9926 231.875 137.2439)" font-family="'MyriadPro-Regular'" font-size="5">bulb</text>
</g>
<rect x="213.379" y="125.999" transform="matrix(-0.9926 -0.1218 0.1218 -0.9926 422.9642 291.89)" fill="none" width="14.043" height="14.044"/>
<g>
	<circle fill="none" stroke="#00FF00" stroke-miterlimit="10" cx="220.401" cy="133.021" r="6.522"/>
	<text transform="matrix(0.9926 0.1218 -0.1218 0.9926 215.1475 135.1921)" font-family="'MyriadPro-Regular'" font-size="5">bulb</text>
</g>
<rect x="196.653" y="123.947" transform="matrix(-0.9926 -0.1218 0.1218 -0.9926 389.8801 285.7701)" fill="none" width="14.043" height="14.044"/>
<g>
	<circle fill="none" stroke="#00FF00" stroke-miterlimit="10" cx="203.674" cy="130.969" r="6.522"/>
	<text transform="matrix(0.9926 0.1218 -0.1218 0.9926 198.4209 133.1394)" font-family="'MyriadPro-Regular'" font-size="5">bulb</text>
</g>
<rect x="179.925" y="121.895" transform="matrix(-0.9926 -0.1218 0.1218 -0.9926 356.8047 279.638)" fill="none" width="14.043" height="14.044"/>
<g>
	<circle fill="none" stroke="#00FF00" stroke-miterlimit="10" cx="186.947" cy="128.917" r="6.522"/>
	<text transform="matrix(0.9926 0.1218 -0.1218 0.9926 181.6934 131.0876)" font-family="'MyriadPro-Regular'" font-size="5">bulb</text>
</g>
<rect x="163.198" y="119.842" transform="matrix(-0.9926 -0.1218 0.1218 -0.9926 323.719 273.5168)" fill="none" width="14.043" height="14.044"/>
<g>
	<circle fill="none" stroke="#00FF00" stroke-miterlimit="10" cx="170.219" cy="126.865" r="6.522"/>
	<text transform="matrix(0.9926 0.1218 -0.1218 0.9926 164.9658 129.0349)" font-family="'MyriadPro-Regular'" font-size="5">bulb</text>
</g>
<rect x="146.47" y="117.791" transform="matrix(-0.9926 -0.1218 0.1218 -0.9926 290.6384 267.3911)" fill="none" width="14.043" height="14.044"/>
<g>
	<circle fill="none" stroke="#00FF00" stroke-miterlimit="10" cx="153.492" cy="124.813" r="6.522"/>
	<text transform="matrix(0.9926 0.1218 -0.1218 0.9926 148.2383 126.9832)" font-family="'MyriadPro-Regular'" font-size="5">bulb</text>
</g>
<rect x="129.744" y="115.739" transform="matrix(-0.9926 -0.1218 0.1218 -0.9926 257.5645 261.2609)" fill="none" width="14.043" height="14.044"/>
<g>
	<circle fill="none" stroke="#00FF00" stroke-miterlimit="10" cx="136.765" cy="122.761" r="6.522"/>
	<text transform="matrix(0.9926 0.1218 -0.1218 0.9926 131.5117 124.9314)" font-family="'MyriadPro-Regular'" font-size="5">bulb</text>
</g>
<rect x="113.016" y="113.686" transform="matrix(-0.9926 -0.1218 0.1218 -0.9926 224.4792 255.138)" fill="none" width="14.043" height="14.044"/>
<g>
	<circle fill="none" stroke="#00FF00" stroke-miterlimit="10" cx="120.038" cy="120.708" r="6.522"/>
	<text transform="matrix(0.9926 0.1218 -0.1218 0.9926 114.7842 122.8787)" font-family="'MyriadPro-Regular'" font-size="5">bulb</text>
</g>
<rect x="96.289" y="111.634" transform="matrix(-0.9926 -0.1218 0.1218 -0.9926 191.403 249.0088)" fill="none" width="14.043" height="14.044"/>
<g>
	<circle fill="none" stroke="#00FF00" stroke-miterlimit="10" cx="103.31" cy="118.656" r="6.522"/>
	<text transform="matrix(0.9926 0.1218 -0.1218 0.9926 98.0566 120.8269)" font-family="'MyriadPro-Regular'" font-size="5">bulb</text>
</g>
<rect x="79.561" y="109.582" transform="matrix(-0.9926 -0.1218 0.1218 -0.9926 158.318 242.8847)" fill="none" width="14.043" height="14.044"/>
<g>
	<circle fill="none" stroke="#00FF00" stroke-miterlimit="10" cx="86.583" cy="116.604" r="6.522"/>
	<text transform="matrix(0.9926 0.1218 -0.1218 0.9926 81.3291 118.7742)" font-family="'MyriadPro-Regular'" font-size="5">bulb</text>
</g>
<rect x="62.834" y="107.53" transform="matrix(-0.9926 -0.1218 0.1218 -0.9926 125.2436 236.7567)" fill="none" width="14.043" height="14.044"/>
<g>
	<circle fill="none" stroke="#00FF00" stroke-miterlimit="10" cx="69.856" cy="114.552" r="6.522"/>
	<text transform="matrix(0.9926 0.1218 -0.1218 0.9926 64.6025 116.7224)" font-family="'MyriadPro-Regular'" font-size="5">bulb</text>
</g>
<rect x="177.538" y="142.813" transform="matrix(-0.9925 -0.1223 0.1223 -0.9925 349.4172 321.1102)" fill="none" width="14.043" height="14.044"/>
<g>
	<circle fill="none" stroke="#FF0000" stroke-miterlimit="10" cx="184.56" cy="149.836" r="6.521"/>
	<text transform="matrix(0.9925 0.1223 -0.1223 0.9925 180.79 150.1716)" font-family="'MyriadPro-Regular'" font-size="4">bulb</text>
</g>
<rect x="160.812" y="140.753" transform="matrix(-0.9925 -0.1223 0.1223 -0.9925 316.3414 314.9597)" fill="none" width="14.043" height="14.044"/>
<g>
	<circle fill="none" stroke="#FF0000" stroke-miterlimit="10" cx="167.833" cy="147.775" r="6.521"/>
	<text transform="matrix(0.9925 0.1223 -0.1223 0.9925 164.0635 148.1111)" font-family="'MyriadPro-Regular'" font-size="4">bulb</text>
</g>
<rect x="144.085" y="138.692" transform="matrix(-0.9925 -0.1223 0.1223 -0.9925 283.2657 308.8091)" fill="none" width="14.043" height="14.044"/>
<g>
	<circle fill="none" stroke="#FF0000" stroke-miterlimit="10" cx="151.107" cy="145.715" r="6.521"/>
	<text transform="matrix(0.9925 0.1223 -0.1223 0.9925 147.3369 146.0505)" font-family="'MyriadPro-Regular'" font-size="4">bulb</text>
</g>
<rect x="127.36" y="136.632" transform="matrix(-0.9925 -0.1223 0.1223 -0.9925 250.1918 302.6597)" fill="none" width="14.043" height="14.044"/>
<g>
	<circle fill="none" stroke="#FF0000" stroke-miterlimit="10" cx="134.381" cy="143.655" r="6.521"/>
	<text transform="matrix(0.9925 0.1223 -0.1223 0.9925 130.6113 143.9905)" font-family="'MyriadPro-Regular'" font-size="4">bulb</text>
</g>
<rect x="110.633" y="134.572" transform="matrix(-0.9925 -0.1223 0.1223 -0.9925 217.1161 296.5092)" fill="none" width="14.043" height="14.044"/>
<g>
	<circle fill="none" stroke="#FF0000" stroke-miterlimit="10" cx="117.655" cy="141.594" r="6.521"/>
	<text transform="matrix(0.9925 0.1223 -0.1223 0.9925 113.8848 141.9299)" font-family="'MyriadPro-Regular'" font-size="4">bulb</text>
</g>
<rect x="93.907" y="132.512" transform="matrix(-0.9925 -0.1223 0.1223 -0.9925 184.0403 290.3596)" fill="none" width="14.043" height="14.044"/>
<g>
	<circle fill="none" stroke="#FF0000" stroke-miterlimit="10" cx="100.928" cy="139.534" r="6.521"/>
	<text transform="matrix(0.9925 0.1223 -0.1223 0.9925 97.1582 139.8699)" font-family="'MyriadPro-Regular'" font-size="4">bulb</text>
</g>
<rect x="77.181" y="130.451" transform="matrix(-0.9925 -0.1223 0.1223 -0.9925 150.9665 284.2092)" fill="none" width="14.043" height="14.044"/>
<g>
	<circle fill="none" stroke="#FF0000" stroke-miterlimit="10" cx="84.202" cy="137.474" r="6.521"/>
	<text transform="matrix(0.9925 0.1223 -0.1223 0.9925 80.4326 137.8093)" font-family="'MyriadPro-Regular'" font-size="4">bulb</text>
</g>
<rect x="399.437" y="192.781" transform="matrix(-0.9912 0.1322 -0.1322 -0.9912 835.7638 344.1203)" fill="none" width="14.043" height="14.044"/>
<g>
	<circle fill="none" stroke="#00FF00" stroke-miterlimit="10" cx="406.459" cy="199.803" r="6.522"/>
	<text transform="matrix(0.9912 -0.1322 0.1322 0.9912 401.9209 203.2278)" font-family="'MyriadPro-Regular'" font-size="5">bulb</text>
</g>
<rect x="382.733" y="195.008" transform="matrix(-0.9912 0.1322 -0.1322 -0.9912 802.7957 350.7641)" fill="none" width="14.043" height="14.044"/>
<g>
	<circle fill="none" stroke="#00FF00" stroke-miterlimit="10" cx="389.754" cy="202.031" r="6.522"/>
	<text transform="matrix(0.9912 -0.1322 0.1322 0.9912 385.2168 205.4553)" font-family="'MyriadPro-Regular'" font-size="5">bulb</text>
</g>
<rect x="366.028" y="197.235" transform="matrix(-0.9912 0.1322 -0.1322 -0.9912 769.8265 357.406)" fill="none" width="14.043" height="14.044"/>
<g>
	<circle fill="none" stroke="#00FF00" stroke-miterlimit="10" cx="373.049" cy="204.258" r="6.522"/>
	<text transform="matrix(0.9912 -0.1322 0.1322 0.9912 368.5117 207.6819)" font-family="'MyriadPro-Regular'" font-size="5">bulb</text>
</g>
<rect x="349.323" y="199.463" transform="matrix(-0.9912 0.1322 -0.1322 -0.9912 736.8574 364.0499)" fill="none" width="14.043" height="14.044"/>
<g>
	<circle fill="none" stroke="#00FF00" stroke-miterlimit="10" cx="356.344" cy="206.485" r="6.522"/>
	<text transform="matrix(0.9912 -0.1322 0.1322 0.9912 351.8066 209.9094)" font-family="'MyriadPro-Regular'" font-size="5">bulb</text>
</g>
<rect x="332.618" y="201.689" transform="matrix(-0.9912 0.1322 -0.1322 -0.9912 703.8892 370.6917)" fill="none" width="14.043" height="14.044"/>
<g>
	<circle fill="none" stroke="#00FF00" stroke-miterlimit="10" cx="339.64" cy="208.712" r="6.522"/>
	<text transform="matrix(0.9912 -0.1322 0.1322 0.9912 335.1016 212.136)" font-family="'MyriadPro-Regular'" font-size="5">bulb</text>
</g>
<rect x="315.913" y="203.917" transform="matrix(-0.9912 0.1322 -0.1322 -0.9912 670.9202 377.3356)" fill="none" width="14.043" height="14.044"/>
<g>
	<circle fill="none" stroke="#00FF00" stroke-miterlimit="10" cx="322.935" cy="210.939" r="6.522"/>
	<text transform="matrix(0.9912 -0.1322 0.1322 0.9912 318.3965 214.3635)" font-family="'MyriadPro-Regular'" font-size="5">bulb</text>
</g>
<rect x="299.208" y="206.144" transform="matrix(-0.9912 0.1322 -0.1322 -0.9912 637.951 383.9795)" fill="none" width="14.043" height="14.044"/>
<g>
	<circle fill="none" stroke="#00FF00" stroke-miterlimit="10" cx="306.23" cy="213.167" r="6.522"/>
	<text transform="matrix(0.9912 -0.1322 0.1322 0.9912 301.6914 216.5911)" font-family="'MyriadPro-Regular'" font-size="5">bulb</text>
</g>
<rect x="282.503" y="208.371" transform="matrix(-0.9912 0.1322 -0.1322 -0.9912 604.9818 390.6214)" fill="none" width="14.043" height="14.044"/>
<g>
	<circle fill="none" stroke="#00FF00" stroke-miterlimit="10" cx="289.525" cy="215.393" r="6.522"/>
	<text transform="matrix(0.9912 -0.1322 0.1322 0.9912 284.9863 218.8176)" font-family="'MyriadPro-Regular'" font-size="5">bulb</text>
</g>
<rect x="265.798" y="210.598" transform="matrix(-0.9912 0.1322 -0.1322 -0.9912 572.0138 397.2652)" fill="none" width="14.043" height="14.044"/>
<g>
	<circle fill="none" stroke="#00FF00" stroke-miterlimit="10" cx="272.82" cy="217.621" r="6.522"/>
	<text transform="matrix(0.9912 -0.1322 0.1322 0.9912 268.2822 221.0452)" font-family="'MyriadPro-Regular'" font-size="5">bulb</text>
</g>
<rect x="249.093" y="212.825" transform="matrix(-0.9912 0.1322 -0.1322 -0.9912 539.0446 403.9071)" fill="none" width="14.043" height="14.044"/>
<g>
	<circle fill="none" stroke="#00FF00" stroke-miterlimit="10" cx="256.115" cy="219.847" r="6.522"/>
	<text transform="matrix(0.9912 -0.1322 0.1322 0.9912 251.5771 223.2717)" font-family="'MyriadPro-Regular'" font-size="5">bulb</text>
</g>
<rect x="232.388" y="215.052" transform="matrix(-0.9912 0.1322 -0.1322 -0.9912 506.0755 410.551)" fill="none" width="14.043" height="14.044"/>
<g>
	<circle fill="none" stroke="#00FF00" stroke-miterlimit="10" cx="239.41" cy="222.075" r="6.522"/>
	<text transform="matrix(0.9912 -0.1322 0.1322 0.9912 234.8726 225.4993)" font-family="'MyriadPro-Regular'" font-size="5">bulb</text>
</g>
<rect x="215.684" y="217.279" transform="matrix(-0.9912 0.1322 -0.1322 -0.9912 473.1077 417.1928)" fill="none" width="14.043" height="14.044"/>
<g>
	<circle fill="none" stroke="#00FF00" stroke-miterlimit="10" cx="222.705" cy="224.302" r="6.521"/>
	<text transform="matrix(0.9912 -0.1322 0.1322 0.9912 218.168 227.7258)" font-family="'MyriadPro-Regular'" font-size="5">bulb</text>
</g>
<rect x="198.979" y="219.507" transform="matrix(-0.9912 0.1322 -0.1322 -0.9912 440.1387 423.8367)" fill="none" width="14.043" height="14.044"/>
<g>
	<circle fill="none" stroke="#00FF00" stroke-miterlimit="10" cx="206" cy="226.529" r="6.521"/>
	<text transform="matrix(0.9912 -0.1322 0.1322 0.9912 201.4629 229.9534)" font-family="'MyriadPro-Regular'" font-size="5">bulb</text>
</g>
<rect x="382.38" y="213.36" transform="matrix(-0.9916 0.1293 -0.1293 -0.9916 804.0249 388.5731)" fill="none" width="14.043" height="14.045"/>
<g>
	<circle fill="none" stroke="#FF0000" stroke-miterlimit="10" cx="389.4" cy="220.383" r="6.522"/>
	<text transform="matrix(0.9916 -0.1293 0.1293 0.9916 385.835 221.6487)" font-family="'MyriadPro-Regular'" font-size="4">bulb</text>
</g>
<rect x="365.668" y="215.539" transform="matrix(-0.9916 0.1293 -0.1293 -0.9916 771.0231 395.0747)" fill="none" width="14.043" height="14.045"/>
<g>
	<circle fill="none" stroke="#FF0000" stroke-miterlimit="10" cx="372.689" cy="222.563" r="6.522"/>
	<text transform="matrix(0.9916 -0.1293 0.1293 0.9916 369.123 223.8284)" font-family="'MyriadPro-Regular'" font-size="4">bulb</text>
</g>
<rect x="348.957" y="217.719" transform="matrix(-0.9916 0.1293 -0.1293 -0.9916 738.0233 401.5761)" fill="none" width="14.043" height="14.045"/>
<g>
	<circle fill="none" stroke="#FF0000" stroke-miterlimit="10" cx="355.978" cy="224.742" r="6.522"/>
	<text transform="matrix(0.9916 -0.1293 0.1293 0.9916 352.4121 226.0081)" font-family="'MyriadPro-Regular'" font-size="4">bulb</text>
</g>
<rect x="332.246" y="219.899" transform="matrix(-0.9916 0.1293 -0.1293 -0.9916 705.0234 408.0776)" fill="none" width="14.043" height="14.045"/>
<g>
	<circle fill="none" stroke="#FF0000" stroke-miterlimit="10" cx="339.267" cy="226.922" r="6.522"/>
	<text transform="matrix(0.9916 -0.1293 0.1293 0.9916 335.7012 228.1877)" font-family="'MyriadPro-Regular'" font-size="4">bulb</text>
</g>
<rect x="315.535" y="222.078" transform="matrix(-0.9916 0.1293 -0.1293 -0.9916 672.0236 414.5791)" fill="none" width="14.043" height="14.045"/>
<g>
	<circle fill="none" stroke="#FF0000" stroke-miterlimit="10" cx="322.556" cy="229.102" r="6.522"/>
	<text transform="matrix(0.9916 -0.1293 0.1293 0.9916 318.9902 230.3674)" font-family="'MyriadPro-Regular'" font-size="4">bulb</text>
</g>
<rect x="298.823" y="224.258" transform="matrix(-0.9916 0.1293 -0.1293 -0.9916 639.0217 421.0807)" fill="none" width="14.043" height="14.045"/>
<g>
	<circle fill="none" stroke="#FF0000" stroke-miterlimit="10" cx="305.845" cy="231.281" r="6.522"/>
	<text transform="matrix(0.9916 -0.1293 0.1293 0.9916 302.2783 232.5471)" font-family="'MyriadPro-Regular'" font-size="4">bulb</text>
</g>
<rect x="282.112" y="226.438" transform="matrix(-0.9916 0.1293 -0.1293 -0.9916 606.0219 427.5822)" fill="none" width="14.043" height="14.045"/>
<g>
	<circle fill="none" stroke="#FF0000" stroke-miterlimit="10" cx="289.133" cy="233.461" r="6.522"/>
	<text transform="matrix(0.9916 -0.1293 0.1293 0.9916 285.5674 234.7268)" font-family="'MyriadPro-Regular'" font-size="4">bulb</text>
</g>
<rect x="265.401" y="228.618" transform="matrix(-0.9916 0.1293 -0.1293 -0.9916 573.0221 434.0836)" fill="none" width="14.043" height="14.045"/>
<g>
	<circle fill="none" stroke="#FF0000" stroke-miterlimit="10" cx="272.422" cy="235.641" r="6.522"/>
	<text transform="matrix(0.9916 -0.1293 0.1293 0.9916 268.8564 236.9065)" font-family="'MyriadPro-Regular'" font-size="4">bulb</text>
</g>
<rect x="248.69" y="230.797" transform="matrix(-0.9916 0.1293 -0.1293 -0.9916 540.0222 440.5851)" fill="none" width="14.043" height="14.045"/>
<g>
	<circle fill="none" stroke="#FF0000" stroke-miterlimit="10" cx="255.711" cy="237.821" r="6.522"/>
	<text transform="matrix(0.9916 -0.1293 0.1293 0.9916 252.1455 239.0862)" font-family="'MyriadPro-Regular'" font-size="4">bulb</text>
</g>
<rect x="231.978" y="232.977" transform="matrix(-0.9916 0.1293 -0.1293 -0.9916 507.0204 447.0867)" fill="none" width="14.043" height="14.045"/>
<g>
	<circle fill="none" stroke="#FF0000" stroke-miterlimit="10" cx="239" cy="240" r="6.522"/>
	<text transform="matrix(0.9916 -0.1293 0.1293 0.9916 235.4331 241.2659)" font-family="'MyriadPro-Regular'" font-size="4">bulb</text>
</g>
<rect x="384.979" y="229.493" transform="matrix(-0.989 0.1482 -0.1482 -0.989 814.7209 412.3294)" fill="none" width="14.044" height="14.044"/>
<g>
	<circle fill="none" stroke="#BABABA" stroke-miterlimit="10" cx="392" cy="236.515" r="6.522"/>
	<text transform="matrix(0.989 -0.1482 0.1482 0.989 388.583 238.6887)" font-family="'MyriadPro-Regular'" font-size="4">bulb</text>
</g>
<rect x="368.311" y="231.989" transform="matrix(-0.989 0.1482 -0.1482 -0.989 781.9399 419.7649)" fill="none" width="14.044" height="14.045"/>
<g>
	<circle fill="none" stroke="#BABABA" stroke-miterlimit="10" cx="375.333" cy="239.012" r="6.522"/>
	<text transform="matrix(0.989 -0.1482 0.1482 0.989 371.916 241.1858)" font-family="'MyriadPro-Regular'" font-size="4">bulb</text>
</g>
<rect x="351.645" y="234.487" transform="matrix(-0.989 0.1482 -0.1482 -0.989 749.161 427.2031)" fill="none" width="14.044" height="14.045"/>
<g>
	<circle fill="none" stroke="#BABABA" stroke-miterlimit="10" cx="358.667" cy="241.51" r="6.522"/>
	<text transform="matrix(0.989 -0.1482 0.1482 0.989 355.249 243.6838)" font-family="'MyriadPro-Regular'" font-size="4">bulb</text>
</g>
<rect x="334.979" y="236.985" transform="matrix(-0.989 0.1482 -0.1482 -0.989 716.3831 434.6403)" fill="none" width="14.044" height="14.044"/>
<g>
	<circle fill="none" stroke="#BABABA" stroke-miterlimit="10" cx="342" cy="244.007" r="6.522"/>
	<text transform="matrix(0.989 -0.1482 0.1482 0.989 338.583 246.1809)" font-family="'MyriadPro-Regular'" font-size="4">bulb</text>
</g>
<rect x="318.311" y="239.483" transform="matrix(-0.989 0.1482 -0.1482 -0.989 683.6023 442.0786)" fill="none" width="14.044" height="14.044"/>
<g>
	<circle fill="none" stroke="#BABABA" stroke-miterlimit="10" cx="325.333" cy="246.505" r="6.522"/>
	<text transform="matrix(0.989 -0.1482 0.1482 0.989 321.916 248.679)" font-family="'MyriadPro-Regular'" font-size="4">bulb</text>
</g>
<rect x="301.645" y="241.979" transform="matrix(-0.989 0.1482 -0.1482 -0.989 650.8232 449.5139)" fill="none" width="14.044" height="14.045"/>
<g>
	<circle fill="none" stroke="#BABABA" stroke-miterlimit="10" cx="308.667" cy="249.002" r="6.522"/>
	<text transform="matrix(0.989 -0.1482 0.1482 0.989 305.249 251.176)" font-family="'MyriadPro-Regular'" font-size="4">bulb</text>
</g>
<rect x="284.979" y="244.477" transform="matrix(-0.989 0.1482 -0.1482 -0.989 618.0454 456.9521)" fill="none" width="14.044" height="14.045"/>
<g>
	<circle fill="none" stroke="#BABABA" stroke-miterlimit="10" cx="292" cy="251.5" r="6.522"/>
	<text transform="matrix(0.989 -0.1482 0.1482 0.989 288.583 253.6741)" font-family="'MyriadPro-Regular'" font-size="4">bulb</text>
</g>
<rect x="228.928" y="169.034" transform="matrix(-0.9926 -0.1218 0.1218 -0.9926 448.705 379.5324)" fill="none" width="14.043" height="14.043"/>
<g>
	<circle fill="none" stroke="#00FF00" stroke-miterlimit="10" cx="235.949" cy="176.056" r="6.521"/>
	<text transform="matrix(0.9926 0.1218 -0.1218 0.9926 230.6958 178.2268)" font-family="'MyriadPro-Regular'" font-size="5">bulb</text>
</g>
<rect x="212.2" y="166.982" transform="matrix(-0.9926 -0.1218 0.1218 -0.9926 415.6243 373.4063)" fill="none" width="14.043" height="14.044"/>
<g>
	<circle fill="none" stroke="#00FF00" stroke-miterlimit="10" cx="219.222" cy="174.004" r="6.522"/>
	<text transform="matrix(0.9926 0.1218 -0.1218 0.9926 213.9683 176.175)" font-family="'MyriadPro-Regular'" font-size="5">bulb</text>
</g>
<rect x="195.473" y="164.929" transform="matrix(-0.9926 -0.1218 0.1218 -0.9926 382.5436 367.2793)" fill="none" width="14.043" height="14.044"/>
<g>
	<circle fill="none" stroke="#00FF00" stroke-miterlimit="10" cx="202.494" cy="171.952" r="6.522"/>
	<text transform="matrix(0.9926 0.1218 -0.1218 0.9926 197.2407 174.1223)" font-family="'MyriadPro-Regular'" font-size="5">bulb</text>
</g>
<rect x="178.745" y="162.877" transform="matrix(-0.9926 -0.1218 0.1218 -0.9926 349.4629 361.1542)" fill="none" width="14.043" height="14.044"/>
<g>
	<circle fill="none" stroke="#00FF00" stroke-miterlimit="10" cx="185.767" cy="169.9" r="6.522"/>
	<text transform="matrix(0.9926 0.1218 -0.1218 0.9926 180.5132 172.0706)" font-family="'MyriadPro-Regular'" font-size="5">bulb</text>
</g>
<rect x="162.019" y="160.825" transform="matrix(-0.9926 -0.1218 0.1218 -0.9926 316.384 355.0292)" fill="none" width="14.043" height="14.044"/>
<g>
	<circle fill="none" stroke="#00FF00" stroke-miterlimit="10" cx="169.04" cy="167.848" r="6.522"/>
	<text transform="matrix(0.9926 0.1218 -0.1218 0.9926 163.7866 170.0188)" font-family="'MyriadPro-Regular'" font-size="5">bulb</text>
</g>
<rect x="145.291" y="158.773" transform="matrix(-0.9926 -0.1218 0.1218 -0.9926 283.3033 348.9026)" fill="none" width="14.043" height="14.043"/>
<g>
	<circle fill="none" stroke="#00FF00" stroke-miterlimit="10" cx="152.313" cy="165.796" r="6.522"/>
	<text transform="matrix(0.9926 0.1218 -0.1218 0.9926 147.0591 167.9661)" font-family="'MyriadPro-Regular'" font-size="5">bulb</text>
</g>
<rect x="128.563" y="156.721" transform="matrix(-0.9926 -0.1218 0.1218 -0.9926 250.2226 342.7771)" fill="none" width="14.043" height="14.044"/>
<g>
	<circle fill="none" stroke="#00FF00" stroke-miterlimit="10" cx="135.585" cy="163.743" r="6.522"/>
	<text transform="matrix(0.9926 0.1218 -0.1218 0.9926 130.3315 165.9143)" font-family="'MyriadPro-Regular'" font-size="5">bulb</text>
</g>
<rect x="111.836" y="154.669" transform="matrix(-0.9926 -0.1218 0.1218 -0.9926 217.1419 336.6505)" fill="none" width="14.043" height="14.043"/>
<g>
	<circle fill="none" stroke="#00FF00" stroke-miterlimit="10" cx="118.857" cy="161.691" r="6.522"/>
	<text transform="matrix(0.9926 0.1218 -0.1218 0.9926 113.604 163.8616)" font-family="'MyriadPro-Regular'" font-size="5">bulb</text>
</g>
<rect x="95.109" y="152.616" transform="matrix(-0.9926 -0.1218 0.1218 -0.9926 184.0632 330.5251)" fill="none" width="14.043" height="14.044"/>
<g>
	<circle fill="none" stroke="#00FF00" stroke-miterlimit="10" cx="102.131" cy="159.639" r="6.522"/>
	<text transform="matrix(0.9926 0.1218 -0.1218 0.9926 96.8774 161.8098)" font-family="'MyriadPro-Regular'" font-size="5">bulb</text>
</g>
<rect x="78.382" y="150.564" transform="matrix(-0.9926 -0.1218 0.1218 -0.9926 150.9825 324.3985)" fill="none" width="14.043" height="14.043"/>
<g>
	<circle fill="none" stroke="#00FF00" stroke-miterlimit="10" cx="85.403" cy="157.586" r="6.522"/>
	<text transform="matrix(0.9926 0.1218 -0.1218 0.9926 80.1499 159.7566)" font-family="'MyriadPro-Regular'" font-size="5">bulb</text>
</g>
<rect x="61.654" y="148.512" transform="matrix(-0.9926 -0.1218 0.1218 -0.9926 117.9017 318.2729)" fill="none" width="14.043" height="14.044"/>
<g>
	<circle fill="none" stroke="#00FF00" stroke-miterlimit="10" cx="68.676" cy="155.534" r="6.522"/>
	<text transform="matrix(0.9926 0.1218 -0.1218 0.9926 63.4224 157.7048)" font-family="'MyriadPro-Regular'" font-size="5">bulb</text>
</g>
</svg>
