<?xml version="1.0" encoding="utf-8"?>
<!-- Generator: Adobe Illustrator 16.0.0, SVG Export Plug-In . SVG Version: 6.00 Build 0)  -->
<!DOCTYPE svg PUBLIC "-//W3C//DTD SVG 1.1//EN" "http://www.w3.org/Graphics/SVG/1.1/DTD/svg11.dtd">
<svg version="1.1" id="Layer_1" xmlns="http://www.w3.org/2000/svg" xmlns:xlink="http://www.w3.org/1999/xlink" x="0px" y="0px"
	 width="480px" height="320px" viewBox="0 0 480 320" enable-background="new 0 0 480 320" xml:space="preserve">
<g>
	
		<rect x="-0.004" y="218.259" transform="matrix(-0.9414 -0.3373 0.3373 -0.9414 -35.7397 436.8318)" fill="none" stroke="#010101" stroke-miterlimit="10" width="40.167" height="6.523"/>
	
		<text transform="matrix(0.6748 0 0 1 13.1992 224.261)" fill="none" stroke="#000000" stroke-miterlimit="10" font-family="'MyriadPro-Regular'" font-size="6">box</text>
</g>
<g>
	
		<rect x="-0.014" y="268.255" transform="matrix(-0.9414 -0.3373 0.3373 -0.9414 -52.6188 533.8938)" fill="none" stroke="#010101" stroke-miterlimit="10" width="40.166" height="6.526"/>
	
		<text transform="matrix(0.6748 0 0 1 13.1992 274.261)" fill="none" stroke="#000000" stroke-miterlimit="10" font-family="'MyriadPro-Regular'" font-size="6">box</text>
</g>
<g>
	
		<rect x="-0.009" y="168.257" transform="matrix(-0.9414 -0.3373 0.3373 -0.9414 -18.8797 339.7585)" fill="none" stroke="#010101" stroke-miterlimit="10" width="40.167" height="6.525"/>
	
		<text transform="matrix(0.6748 0 0 1 13.1992 174.262)" fill="none" stroke="#000000" stroke-miterlimit="10" font-family="'MyriadPro-Regular'" font-size="6">box</text>
</g>
<g>
	
		<rect x="439.997" y="168.272" transform="matrix(-0.938 0.3467 -0.3467 -0.938 951.1027 172.9227)" fill="none" stroke="#010101" stroke-miterlimit="10" width="40.173" height="6.526"/>
	
		<text transform="matrix(0.6748 0 0 1 453.1992 174.262)" fill="none" stroke="#000000" stroke-miterlimit="10" font-family="'MyriadPro-Regular'" font-size="6">box</text>
</g>
<g>
	
		<rect x="439.993" y="218.284" transform="matrix(-0.938 0.3467 -0.3467 -0.938 968.4354 269.8444)" fill="none" stroke="#010101" stroke-miterlimit="10" width="40.175" height="6.527"/>
	
		<text transform="matrix(0.6748 0 0 1 453.1992 224.261)" fill="none" stroke="#000000" stroke-miterlimit="10" font-family="'MyriadPro-Regular'" font-size="6">box</text>
</g>
<g>
	
		<rect x="439.998" y="268.258" transform="matrix(-0.938 0.3467 -0.3467 -0.938 985.7687 366.6919)" fill="none" stroke="#010101" stroke-miterlimit="10" width="40.173" height="6.524"/>
	
		<text transform="matrix(0.6748 0 0 1 453.1992 274.261)" fill="none" stroke="#000000" stroke-miterlimit="10" font-family="'MyriadPro-Regular'" font-size="6">box</text>
</g>
<rect x="213.267" y="132.54" transform="matrix(-0.982 -0.189 0.189 -0.982 410.2297 318.243)" fill="none" width="14.044" height="14.044"/>
<g>
	<circle fill="none" stroke="#00FF00" stroke-miterlimit="10" cx="220.289" cy="139.562" r="6.522"/>
	<text transform="matrix(0.982 0.189 -0.189 0.982 214.8999 141.3699)" font-family="'MyriadPro-Regular'" font-size="5">bulb</text>
</g>
<rect x="193.96" y="128.824" transform="matrix(-0.982 -0.189 0.189 -0.982 372.6667 307.2293)" fill="none" width="14.044" height="14.044"/>
<g>
	<circle fill="none" stroke="#00FF00" stroke-miterlimit="10" cx="200.982" cy="135.846" r="6.522"/>
	<text transform="matrix(0.982 0.189 -0.189 0.982 195.5933 137.6541)" font-family="'MyriadPro-Regular'" font-size="5">bulb</text>
</g>
<rect x="174.653" y="125.108" transform="matrix(-0.982 -0.189 0.189 -0.982 335.1018 296.2144)" fill="none" width="14.044" height="14.044"/>
<g>
	<circle fill="none" stroke="#00FF00" stroke-miterlimit="10" cx="181.675" cy="132.13" r="6.522"/>
	<text transform="matrix(0.982 0.189 -0.189 0.982 176.2856 133.9377)" font-family="'MyriadPro-Regular'" font-size="5">bulb</text>
</g>
<rect x="155.346" y="121.392" transform="matrix(-0.982 -0.189 0.189 -0.982 297.5388 285.2007)" fill="none" width="14.044" height="14.044"/>
<g>
	<circle fill="none" stroke="#00FF00" stroke-miterlimit="10" cx="162.368" cy="128.414" r="6.522"/>
	<text transform="matrix(0.982 0.189 -0.189 0.982 156.979 130.2219)" font-family="'MyriadPro-Regular'" font-size="5">bulb</text>
</g>
<rect x="136.038" y="117.676" transform="matrix(-0.982 -0.189 0.189 -0.982 259.9739 274.1869)" fill="none" width="14.044" height="14.044"/>
<g>
	<circle fill="none" stroke="#00FF00" stroke-miterlimit="10" cx="143.06" cy="124.698" r="6.522"/>
	<text transform="matrix(0.982 0.189 -0.189 0.982 137.6714 126.5061)" font-family="'MyriadPro-Regular'" font-size="5">bulb</text>
</g>
<rect x="116.732" y="113.96" transform="matrix(-0.982 -0.189 0.189 -0.982 222.4109 263.1722)" fill="none" width="14.044" height="14.044"/>
<g>
	<circle fill="none" stroke="#00FF00" stroke-miterlimit="10" cx="123.754" cy="120.982" r="6.522"/>
	<text transform="matrix(0.982 0.189 -0.189 0.982 118.3647 122.7898)" font-family="'MyriadPro-Regular'" font-size="5">bulb</text>
</g>
<rect x="97.424" y="110.244" transform="matrix(-0.982 -0.189 0.189 -0.982 184.846 252.1584)" fill="none" width="14.044" height="14.044"/>
<g>
	<circle fill="none" stroke="#00FF00" stroke-miterlimit="10" cx="104.446" cy="117.266" r="6.522"/>
	<text transform="matrix(0.982 0.189 -0.189 0.982 99.0571 119.074)" font-family="'MyriadPro-Regular'" font-size="5">bulb</text>
</g>
<rect x="78.118" y="106.527" transform="matrix(-0.982 -0.189 0.189 -0.982 147.2831 241.1437)" fill="none" width="14.044" height="14.044"/>
<g>
	<circle fill="none" stroke="#00FF00" stroke-miterlimit="10" cx="85.139" cy="113.55" r="6.522"/>
	<text transform="matrix(0.982 0.189 -0.189 0.982 79.7505 115.3577)" font-family="'MyriadPro-Regular'" font-size="5">bulb</text>
</g>
<rect x="58.81" y="102.812" transform="matrix(-0.982 -0.189 0.189 -0.982 109.7182 230.1298)" fill="none" width="14.044" height="14.044"/>
<g>
	<circle fill="none" stroke="#00FF00" stroke-miterlimit="10" cx="65.832" cy="109.834" r="6.522"/>
	<text transform="matrix(0.982 0.189 -0.189 0.982 60.4429 111.6418)" font-family="'MyriadPro-Regular'" font-size="5">bulb</text>
</g>
<rect x="213.267" y="172.54" transform="matrix(-0.982 -0.189 0.189 -0.982 402.6695 397.5225)" fill="none" width="14.044" height="14.044"/>
<g>
	<circle fill="none" stroke="#FF0000" stroke-miterlimit="10" cx="220.289" cy="179.562" r="6.522"/>
	<text transform="matrix(0.982 0.189 -0.189 0.982 216.5054 179.6428)" font-family="'MyriadPro-Regular'" font-size="4">bulb</text>
</g>
<rect x="193.96" y="168.824" transform="matrix(-0.982 -0.189 0.189 -0.982 365.1065 386.5088)" fill="none" width="14.044" height="14.044"/>
<g>
	<circle fill="none" stroke="#FF0000" stroke-miterlimit="10" cx="200.982" cy="175.846" r="6.522"/>
	<text transform="matrix(0.982 0.189 -0.189 0.982 197.1987 175.927)" font-family="'MyriadPro-Regular'" font-size="4">bulb</text>
</g>
<rect x="174.653" y="165.107" transform="matrix(-0.982 -0.189 0.189 -0.982 327.5417 375.493)" fill="none" width="14.044" height="14.044"/>
<g>
	<circle fill="none" stroke="#FF0000" stroke-miterlimit="10" cx="181.675" cy="172.13" r="6.522"/>
	<text transform="matrix(0.982 0.189 -0.189 0.982 177.8911 172.2102)" font-family="'MyriadPro-Regular'" font-size="4">bulb</text>
</g>
<rect x="155.346" y="161.391" transform="matrix(-0.982 -0.189 0.189 -0.982 289.9787 364.4793)" fill="none" width="14.044" height="14.044"/>
<g>
	<circle fill="none" stroke="#FF0000" stroke-miterlimit="10" cx="162.368" cy="168.414" r="6.522"/>
	<text transform="matrix(0.982 0.189 -0.189 0.982 158.5845 168.4944)" font-family="'MyriadPro-Regular'" font-size="4">bulb</text>
</g>
<rect x="136.038" y="157.676" transform="matrix(-0.982 -0.189 0.189 -0.982 252.4137 353.4659)" fill="none" width="14.044" height="14.044"/>
<g>
	<circle fill="none" stroke="#FF0000" stroke-miterlimit="10" cx="143.06" cy="164.698" r="6.522"/>
	<text transform="matrix(0.982 0.189 -0.189 0.982 139.2769 164.7786)" font-family="'MyriadPro-Regular'" font-size="4">bulb</text>
</g>
<rect x="116.732" y="153.96" transform="matrix(-0.982 -0.189 0.189 -0.982 214.8508 342.4518)" fill="none" width="14.044" height="14.044"/>
<g>
	<circle fill="none" stroke="#FF0000" stroke-miterlimit="10" cx="123.754" cy="160.982" r="6.522"/>
	<text transform="matrix(0.982 0.189 -0.189 0.982 119.9702 161.0627)" font-family="'MyriadPro-Regular'" font-size="4">bulb</text>
</g>
<rect x="97.424" y="150.244" transform="matrix(-0.982 -0.189 0.189 -0.982 177.2858 331.4379)" fill="none" width="14.044" height="14.044"/>
<g>
	<circle fill="none" stroke="#FF0000" stroke-miterlimit="10" cx="104.446" cy="157.266" r="6.522"/>
	<text transform="matrix(0.982 0.189 -0.189 0.982 100.6626 157.3469)" font-family="'MyriadPro-Regular'" font-size="4">bulb</text>
</g>
<rect x="78.118" y="146.527" transform="matrix(-0.982 -0.189 0.189 -0.982 139.723 320.4228)" fill="none" width="14.044" height="14.044"/>
<g>
	<circle fill="none" stroke="#FF0000" stroke-miterlimit="10" cx="85.139" cy="153.55" r="6.522"/>
	<text transform="matrix(0.982 0.189 -0.189 0.982 81.356 153.6301)" font-family="'MyriadPro-Regular'" font-size="4">bulb</text>
</g>
<rect x="58.81" y="142.812" transform="matrix(-0.982 -0.189 0.189 -0.982 102.158 309.4089)" fill="none" width="14.044" height="14.044"/>
<g>
	<circle fill="none" stroke="#FF0000" stroke-miterlimit="10" cx="65.832" cy="149.834" r="6.522"/>
	<text transform="matrix(0.982 0.189 -0.189 0.982 62.0483 149.9143)" font-family="'MyriadPro-Regular'" font-size="4">bulb</text>
</g>
<rect x="213.267" y="212.539" transform="matrix(-0.982 -0.189 0.189 -0.982 395.1105 476.7997)" fill="none" width="14.044" height="14.044"/>
<g>
	<circle fill="none" stroke="#00FF00" stroke-miterlimit="10" cx="220.289" cy="219.562" r="6.522"/>
	<text transform="matrix(0.982 0.189 -0.189 0.982 214.9004 221.3694)" font-family="'MyriadPro-Regular'" font-size="5">bulb</text>
</g>
<rect x="193.961" y="208.824" transform="matrix(-0.982 -0.189 0.189 -0.982 357.5474 465.787)" fill="none" width="14.044" height="14.043"/>
<g>
	<circle fill="none" stroke="#00FF00" stroke-miterlimit="10" cx="200.982" cy="215.846" r="6.522"/>
	<text transform="matrix(0.982 0.189 -0.189 0.982 195.5938 217.6536)" font-family="'MyriadPro-Regular'" font-size="5">bulb</text>
</g>
<rect x="174.653" y="205.107" transform="matrix(-0.982 -0.189 0.189 -0.982 319.9825 454.7722)" fill="none" width="14.044" height="14.044"/>
<g>
	<circle fill="none" stroke="#00FF00" stroke-miterlimit="10" cx="181.675" cy="212.13" r="6.522"/>
	<text transform="matrix(0.982 0.189 -0.189 0.982 176.2861 213.9377)" font-family="'MyriadPro-Regular'" font-size="5">bulb</text>
</g>
<rect x="155.347" y="201.391" transform="matrix(-0.982 -0.189 0.189 -0.982 282.4196 443.7585)" fill="none" width="14.044" height="14.044"/>
<g>
	<circle fill="none" stroke="#00FF00" stroke-miterlimit="10" cx="162.368" cy="208.414" r="6.522"/>
	<text transform="matrix(0.982 0.189 -0.189 0.982 156.9795 210.2219)" font-family="'MyriadPro-Regular'" font-size="5">bulb</text>
</g>
<rect x="136.039" y="197.675" transform="matrix(-0.982 -0.189 0.189 -0.982 244.8546 432.7446)" fill="none" width="14.044" height="14.044"/>
<g>
	<circle fill="none" stroke="#00FF00" stroke-miterlimit="10" cx="143.061" cy="204.698" r="6.522"/>
	<text transform="matrix(0.982 0.189 -0.189 0.982 137.6719 206.5061)" font-family="'MyriadPro-Regular'" font-size="5">bulb</text>
</g>
<rect x="116.732" y="193.96" transform="matrix(-0.982 -0.189 0.189 -0.982 207.2916 421.7309)" fill="none" width="14.044" height="14.044"/>
<g>
	<circle fill="none" stroke="#00FF00" stroke-miterlimit="10" cx="123.754" cy="200.982" r="6.522"/>
	<text transform="matrix(0.982 0.189 -0.189 0.982 118.3652 202.7903)" font-family="'MyriadPro-Regular'" font-size="5">bulb</text>
</g>
<rect x="97.425" y="190.244" transform="matrix(-0.982 -0.189 0.189 -0.982 169.7267 410.717)" fill="none" width="14.044" height="14.044"/>
<g>
	<circle fill="none" stroke="#00FF00" stroke-miterlimit="10" cx="104.446" cy="197.266" r="6.522"/>
	<text transform="matrix(0.982 0.189 -0.189 0.982 99.0576 199.0745)" font-family="'MyriadPro-Regular'" font-size="5">bulb</text>
</g>
<rect x="78.118" y="186.527" transform="matrix(-0.982 -0.189 0.189 -0.982 132.1638 399.7014)" fill="none" width="14.044" height="14.044"/>
<g>
	<circle fill="none" stroke="#00FF00" stroke-miterlimit="10" cx="85.14" cy="193.55" r="6.522"/>
	<text transform="matrix(0.982 0.189 -0.189 0.982 79.751 195.3577)" font-family="'MyriadPro-Regular'" font-size="5">bulb</text>
</g>
<rect x="58.81" y="182.812" transform="matrix(-0.982 -0.189 0.189 -0.982 94.5988 388.6885)" fill="none" width="14.044" height="14.043"/>
<g>
	<circle fill="none" stroke="#00FF00" stroke-miterlimit="10" cx="65.832" cy="189.834" r="6.522"/>
	<text transform="matrix(0.982 0.189 -0.189 0.982 60.4434 191.6418)" font-family="'MyriadPro-Regular'" font-size="5">bulb</text>
</g>
<rect x="209.02" y="255.734" transform="matrix(-0.982 -0.189 0.189 -0.982 385.0785 555.3575)" fill="none" width="20" height="7.166"/>
<g>
	
		<rect x="209.536" y="256.236" transform="matrix(-0.982 -0.189 0.189 -0.982 385.1318 555.1951)" fill="none" stroke="#BABABA" stroke-miterlimit="10" width="19" height="6"/>
	<text transform="matrix(0.6626 0.1275 -0.189 0.982 210.6396 259.8254)" font-family="'MyriadPro-Regular'" font-size="6">rectbulb</text>
</g>
<rect x="183.489" y="250.82" transform="matrix(-0.982 -0.189 0.189 -0.982 335.405 540.7922)" fill="none" width="20" height="7.166"/>
<g>
	
		<rect x="184.005" y="251.322" transform="matrix(-0.982 -0.189 0.189 -0.982 335.4581 540.6303)" fill="none" stroke="#BABABA" stroke-miterlimit="10" width="19" height="6"/>
	<text transform="matrix(0.6626 0.1275 -0.189 0.982 185.1084 254.9114)" font-family="'MyriadPro-Regular'" font-size="6">rectbulb</text>
</g>
<rect x="157.958" y="245.907" transform="matrix(-0.982 -0.189 0.189 -0.982 285.7447 526.2233)" fill="none" width="20" height="7.165"/>
<g>
	
		<rect x="158.473" y="246.409" transform="matrix(-0.982 -0.189 0.189 -0.982 285.7842 526.0675)" fill="none" stroke="#BABABA" stroke-miterlimit="10" width="19" height="6"/>
	<text transform="matrix(0.6626 0.1275 -0.189 0.982 159.5771 249.9973)" font-family="'MyriadPro-Regular'" font-size="6">rectbulb</text>
</g>
<rect x="132.427" y="240.993" transform="matrix(-0.982 -0.189 0.189 -0.982 236.0707 511.6592)" fill="none" width="20" height="7.165"/>
<g>
	
		<rect x="132.942" y="241.495" transform="matrix(-0.982 -0.189 0.189 -0.982 236.1105 511.5028)" fill="none" stroke="#BABABA" stroke-miterlimit="10" width="19" height="6"/>
	<text transform="matrix(0.6626 0.1275 -0.189 0.982 134.0459 245.0833)" font-family="'MyriadPro-Regular'" font-size="6">rectbulb</text>
</g>
<rect x="106.895" y="236.079" transform="matrix(-0.982 -0.189 0.189 -0.982 186.3937 497.0952)" fill="none" width="19.999" height="7.165"/>
<g>
	
		<rect x="107.41" y="236.58" transform="matrix(-0.982 -0.189 0.189 -0.982 186.4348 496.938)" fill="none" stroke="#BABABA" stroke-miterlimit="10" width="19" height="6"/>
	<text transform="matrix(0.6626 0.1275 -0.189 0.982 108.5137 240.1692)" font-family="'MyriadPro-Regular'" font-size="6">rectbulb</text>
</g>
<rect x="81.363" y="231.165" transform="matrix(-0.982 -0.189 0.189 -0.982 136.7079 482.5331)" fill="none" width="20" height="7.166"/>
<g>
	
		<rect x="81.879" y="231.666" transform="matrix(-0.982 -0.189 0.189 -0.982 136.7611 482.3732)" fill="none" stroke="#BABABA" stroke-miterlimit="10" width="19" height="6"/>
	<text transform="matrix(0.6626 0.1275 -0.189 0.982 82.9824 235.2561)" font-family="'MyriadPro-Regular'" font-size="6">rectbulb</text>
</g>
<rect x="55.832" y="226.251" transform="matrix(-0.982 -0.189 0.189 -0.982 87.0345 467.9678)" fill="none" width="20" height="7.166"/>
<g>
	
		<rect x="56.347" y="226.752" transform="matrix(-0.982 -0.189 0.189 -0.982 87.0874 467.8085)" fill="none" stroke="#BABABA" stroke-miterlimit="10" width="19" height="6"/>
	<text transform="matrix(0.6626 0.1275 -0.189 0.982 57.4512 230.342)" font-family="'MyriadPro-Regular'" font-size="6">rectbulb</text>
</g>
<rect x="213.267" y="292.539" transform="matrix(-0.982 -0.189 0.189 -0.982 379.9902 635.3578)" fill="none" width="14.044" height="14.044"/>
<g>
	<circle fill="none" stroke="#00FF00" stroke-miterlimit="10" cx="220.289" cy="299.562" r="6.522"/>
	<text transform="matrix(0.982 0.189 -0.189 0.982 214.9004 301.3694)" font-family="'MyriadPro-Regular'" font-size="5">bulb</text>
</g>
<rect x="193.961" y="288.823" transform="matrix(-0.982 -0.189 0.189 -0.982 342.4272 624.3441)" fill="none" width="14.044" height="14.044"/>
<g>
	<circle fill="none" stroke="#00FF00" stroke-miterlimit="10" cx="200.982" cy="295.846" r="6.522"/>
	<text transform="matrix(0.982 0.189 -0.189 0.982 195.5938 297.6536)" font-family="'MyriadPro-Regular'" font-size="5">bulb</text>
</g>
<rect x="174.653" y="285.107" transform="matrix(-0.982 -0.189 0.189 -0.982 304.8623 613.3303)" fill="none" width="14.044" height="14.044"/>
<g>
	<circle fill="none" stroke="#00FF00" stroke-miterlimit="10" cx="181.675" cy="292.13" r="6.522"/>
	<text transform="matrix(0.982 0.189 -0.189 0.982 176.2861 293.9377)" font-family="'MyriadPro-Regular'" font-size="5">bulb</text>
</g>
<rect x="155.347" y="281.391" transform="matrix(-0.982 -0.189 0.189 -0.982 267.2993 602.3166)" fill="none" width="14.044" height="14.044"/>
<g>
	<circle fill="none" stroke="#00FF00" stroke-miterlimit="10" cx="162.368" cy="288.414" r="6.522"/>
	<text transform="matrix(0.982 0.189 -0.189 0.982 156.9795 290.2219)" font-family="'MyriadPro-Regular'" font-size="5">bulb</text>
</g>
<rect x="136.039" y="277.675" transform="matrix(-0.982 -0.189 0.189 -0.982 229.7343 591.3027)" fill="none" width="14.044" height="14.044"/>
<g>
	<circle fill="none" stroke="#00FF00" stroke-miterlimit="10" cx="143.061" cy="284.698" r="6.522"/>
	<text transform="matrix(0.982 0.189 -0.189 0.982 137.6719 286.5061)" font-family="'MyriadPro-Regular'" font-size="5">bulb</text>
</g>
<rect x="116.732" y="273.96" transform="matrix(-0.982 -0.189 0.189 -0.982 192.1713 580.2891)" fill="none" width="14.044" height="14.044"/>
<g>
	<circle fill="none" stroke="#00FF00" stroke-miterlimit="10" cx="123.754" cy="280.982" r="6.522"/>
	<text transform="matrix(0.982 0.189 -0.189 0.982 118.3652 282.7903)" font-family="'MyriadPro-Regular'" font-size="5">bulb</text>
</g>
<rect x="97.425" y="270.244" transform="matrix(-0.982 -0.189 0.189 -0.982 154.6064 569.2751)" fill="none" width="14.044" height="14.044"/>
<g>
	<circle fill="none" stroke="#00FF00" stroke-miterlimit="10" cx="104.446" cy="277.266" r="6.522"/>
	<text transform="matrix(0.982 0.189 -0.189 0.982 99.0576 279.0745)" font-family="'MyriadPro-Regular'" font-size="5">bulb</text>
</g>
<rect x="78.118" y="266.527" transform="matrix(-0.982 -0.189 0.189 -0.982 117.0436 558.2595)" fill="none" width="14.044" height="14.044"/>
<g>
	<circle fill="none" stroke="#00FF00" stroke-miterlimit="10" cx="85.14" cy="273.55" r="6.522"/>
	<text transform="matrix(0.982 0.189 -0.189 0.982 79.751 275.3577)" font-family="'MyriadPro-Regular'" font-size="5">bulb</text>
</g>
<rect x="58.81" y="262.812" transform="matrix(-0.982 -0.189 0.189 -0.982 79.4785 547.2466)" fill="none" width="14.044" height="14.043"/>
<g>
	<circle fill="none" stroke="#00FF00" stroke-miterlimit="10" cx="65.832" cy="269.834" r="6.522"/>
	<text transform="matrix(0.982 0.189 -0.189 0.982 60.4434 271.6418)" font-family="'MyriadPro-Regular'" font-size="5">bulb</text>
</g>
<rect x="409.02" y="267.434" transform="matrix(-0.982 0.189 -0.189 -0.982 881.7136 457.9485)" fill="none" width="20" height="7.165"/>
<g>
	
		<rect x="409.505" y="267.935" transform="matrix(-0.982 0.189 -0.189 -0.982 881.6636 457.7974)" fill="none" stroke="#BABABA" stroke-miterlimit="10" width="19" height="6"/>
	<text transform="matrix(0.6626 -0.1275 0.189 0.982 411.4268 274.5989)" font-family="'MyriadPro-Regular'" font-size="6">rectbulb</text>
</g>
<rect x="383.489" y="272.348" transform="matrix(-0.982 0.189 -0.189 -0.982 832.04 472.5138)" fill="none" width="20" height="7.165"/>
<g>
	
		<rect x="383.974" y="272.849" transform="matrix(-0.982 0.189 -0.189 -0.982 831.99 472.3622)" fill="none" stroke="#BABABA" stroke-miterlimit="10" width="19" height="6"/>
	<text transform="matrix(0.6626 -0.1275 0.189 0.982 385.8955 279.5129)" font-family="'MyriadPro-Regular'" font-size="6">rectbulb</text>
</g>
<rect x="357.957" y="277.262" transform="matrix(-0.982 0.189 -0.189 -0.982 782.3656 487.0792)" fill="none" width="20" height="7.165"/>
<g>
	
		<rect x="358.442" y="277.763" transform="matrix(-0.982 0.189 -0.189 -0.982 782.3134 486.9312)" fill="none" stroke="#BABABA" stroke-miterlimit="10" width="19.001" height="6"/>
	<text transform="matrix(0.6626 -0.1275 0.189 0.982 360.3643 284.427)" font-family="'MyriadPro-Regular'" font-size="6">rectbulb</text>
</g>
<rect x="332.426" y="282.176" transform="matrix(-0.982 0.189 -0.189 -0.982 732.6921 501.6444)" fill="none" width="20" height="7.165"/>
<g>
	
		<rect x="332.91" y="282.677" transform="matrix(-0.982 0.189 -0.189 -0.982 732.6396 501.4958)" fill="none" stroke="#BABABA" stroke-miterlimit="10" width="19.001" height="6"/>
	<text transform="matrix(0.6626 -0.1275 0.189 0.982 334.833 289.3411)" font-family="'MyriadPro-Regular'" font-size="6">rectbulb</text>
</g>
<rect x="306.895" y="287.09" transform="matrix(-0.982 0.189 -0.189 -0.982 683.0185 516.2078)" fill="none" width="20" height="7.165"/>
<g>
	
		<rect x="307.379" y="287.59" transform="matrix(-0.982 0.189 -0.189 -0.982 682.9657 516.0584)" fill="none" stroke="#BABABA" stroke-miterlimit="10" width="19.001" height="6"/>
	<text transform="matrix(0.6626 -0.1275 0.189 0.982 309.3018 294.2542)" font-family="'MyriadPro-Regular'" font-size="6">rectbulb</text>
</g>
<rect x="281.363" y="292.004" transform="matrix(-0.982 0.189 -0.189 -0.982 633.3441 530.7731)" fill="none" width="20" height="7.165"/>
<g>
	
		<rect x="281.848" y="292.504" transform="matrix(-0.982 0.189 -0.189 -0.982 633.2933 530.6198)" fill="none" stroke="#BABABA" stroke-miterlimit="10" width="19" height="6"/>
	<text transform="matrix(0.6626 -0.1275 0.189 0.982 283.7705 299.1682)" font-family="'MyriadPro-Regular'" font-size="6">rectbulb</text>
</g>
<rect x="255.832" y="296.918" transform="matrix(-0.982 0.189 -0.189 -0.982 583.6706 545.3384)" fill="none" width="20" height="7.165"/>
<g>
	
		<rect x="256.317" y="297.418" transform="matrix(-0.982 0.189 -0.189 -0.982 583.6196 545.1846)" fill="none" stroke="#BABABA" stroke-miterlimit="10" width="19" height="6"/>
	<text transform="matrix(0.6626 -0.1275 0.189 0.982 258.2393 304.0823)" font-family="'MyriadPro-Regular'" font-size="6">rectbulb</text>
</g>
<rect x="413.267" y="223.75" transform="matrix(-0.982 0.1889 -0.1889 -0.982 876.6088 377.9832)" fill="none" width="14.044" height="14.044"/>
<g>
	<circle fill="none" stroke="#00FF00" stroke-miterlimit="10" cx="420.29" cy="230.773" r="6.522"/>
	<text transform="matrix(0.982 -0.189 0.189 0.982 415.9561 234.4514)" font-family="'MyriadPro-Regular'" font-size="5">bulb</text>
</g>
<rect x="393.96" y="227.466" transform="matrix(-0.982 0.1889 -0.1889 -0.982 839.0452 388.9955)" fill="none" width="14.044" height="14.044"/>
<g>
	<circle fill="none" stroke="#00FF00" stroke-miterlimit="10" cx="400.982" cy="234.489" r="6.522"/>
	<text transform="matrix(0.982 -0.189 0.189 0.982 396.6494 238.1672)" font-family="'MyriadPro-Regular'" font-size="5">bulb</text>
</g>
<rect x="374.654" y="231.182" transform="matrix(-0.982 0.1889 -0.1889 -0.982 801.4828 400.0024)" fill="none" width="14.043" height="14.044"/>
<g>
	<circle fill="none" stroke="#00FF00" stroke-miterlimit="10" cx="381.675" cy="238.204" r="6.522"/>
	<text transform="matrix(0.982 -0.189 0.189 0.982 377.3428 241.8831)" font-family="'MyriadPro-Regular'" font-size="5">bulb</text>
</g>
<rect x="355.346" y="234.898" transform="matrix(-0.982 0.1889 -0.1889 -0.982 763.9161 411.0203)" fill="none" width="14.044" height="14.044"/>
<g>
	<circle fill="none" stroke="#00FF00" stroke-miterlimit="10" cx="362.368" cy="241.92" r="6.522"/>
	<text transform="matrix(0.982 -0.189 0.189 0.982 358.0352 245.5989)" font-family="'MyriadPro-Regular'" font-size="5">bulb</text>
</g>
<rect x="336.039" y="238.614" transform="matrix(-0.982 0.1889 -0.1889 -0.982 726.3509 422.0347)" fill="none" width="14.044" height="14.044"/>
<g>
	<circle fill="none" stroke="#00FF00" stroke-miterlimit="10" cx="343.061" cy="245.637" r="6.522"/>
	<text transform="matrix(0.982 -0.189 0.189 0.982 338.7275 249.3157)" font-family="'MyriadPro-Regular'" font-size="5">bulb</text>
</g>
<rect x="316.732" y="242.33" transform="matrix(-0.982 0.1889 -0.1889 -0.982 688.7888 433.0424)" fill="none" width="14.043" height="14.044"/>
<g>
	<circle fill="none" stroke="#00FF00" stroke-miterlimit="10" cx="323.753" cy="249.353" r="6.522"/>
	<text transform="matrix(0.982 -0.189 0.189 0.982 319.4209 253.0315)" font-family="'MyriadPro-Regular'" font-size="5">bulb</text>
</g>
<rect x="297.424" y="246.046" transform="matrix(-0.982 0.1889 -0.1889 -0.982 651.2218 444.0596)" fill="none" width="14.044" height="14.044"/>
<g>
	<circle fill="none" stroke="#00FF00" stroke-miterlimit="10" cx="304.446" cy="253.069" r="6.522"/>
	<text transform="matrix(0.982 -0.189 0.189 0.982 300.1133 256.7473)" font-family="'MyriadPro-Regular'" font-size="5">bulb</text>
</g>
<rect x="278.117" y="249.762" transform="matrix(-0.982 0.1889 -0.1889 -0.982 613.6564 455.0721)" fill="none" width="14.044" height="14.044"/>
<g>
	<circle fill="none" stroke="#00FF00" stroke-miterlimit="10" cx="285.139" cy="256.784" r="6.522"/>
	<text transform="matrix(0.982 -0.189 0.189 0.982 280.8057 260.4631)" font-family="'MyriadPro-Regular'" font-size="5">bulb</text>
</g>
<rect x="258.81" y="253.478" transform="matrix(-0.982 0.1889 -0.1889 -0.982 576.0928 466.0844)" fill="none" width="14.044" height="14.044"/>
<g>
	<circle fill="none" stroke="#00FF00" stroke-miterlimit="10" cx="265.832" cy="260.5" r="6.522"/>
	<text transform="matrix(0.982 -0.189 0.189 0.982 261.499 264.179)" font-family="'MyriadPro-Regular'" font-size="5">bulb</text>
</g>
<rect x="413.267" y="183.75" transform="matrix(-0.982 0.1889 -0.1889 -0.982 869.0516 298.7035)" fill="none" width="14.044" height="14.044"/>
<g>
	<circle fill="none" stroke="#FF0000" stroke-miterlimit="10" cx="420.29" cy="190.773" r="6.522"/>
	<text transform="matrix(0.982 -0.189 0.189 0.982 416.8057 192.2512)" font-family="'MyriadPro-Regular'" font-size="4">bulb</text>
</g>
<rect x="393.96" y="187.466" transform="matrix(-0.982 0.1889 -0.1889 -0.982 831.488 309.7158)" fill="none" width="14.044" height="14.044"/>
<g>
	<circle fill="none" stroke="#FF0000" stroke-miterlimit="10" cx="400.982" cy="194.489" r="6.522"/>
	<text transform="matrix(0.982 -0.189 0.189 0.982 397.499 195.967)" font-family="'MyriadPro-Regular'" font-size="4">bulb</text>
</g>
<rect x="374.654" y="191.182" transform="matrix(-0.982 0.1889 -0.1889 -0.982 793.925 320.7228)" fill="none" width="14.043" height="14.044"/>
<g>
	<circle fill="none" stroke="#FF0000" stroke-miterlimit="10" cx="381.675" cy="198.204" r="6.522"/>
	<text transform="matrix(0.982 -0.189 0.189 0.982 378.1924 199.6829)" font-family="'MyriadPro-Regular'" font-size="4">bulb</text>
</g>
<rect x="355.346" y="194.898" transform="matrix(-0.982 0.1889 -0.1889 -0.982 756.359 331.7407)" fill="none" width="14.044" height="14.044"/>
<g>
	<circle fill="none" stroke="#FF0000" stroke-miterlimit="10" cx="362.368" cy="201.92" r="6.522"/>
	<text transform="matrix(0.982 -0.189 0.189 0.982 358.8848 203.3987)" font-family="'MyriadPro-Regular'" font-size="4">bulb</text>
</g>
<rect x="336.039" y="198.614" transform="matrix(-0.982 0.1889 -0.1889 -0.982 718.7937 342.7551)" fill="none" width="14.044" height="14.044"/>
<g>
	<circle fill="none" stroke="#FF0000" stroke-miterlimit="10" cx="343.061" cy="205.637" r="6.522"/>
	<text transform="matrix(0.982 -0.189 0.189 0.982 339.5771 207.1155)" font-family="'MyriadPro-Regular'" font-size="4">bulb</text>
</g>
<rect x="316.732" y="202.33" transform="matrix(-0.982 0.1889 -0.1889 -0.982 681.2311 353.7628)" fill="none" width="14.043" height="14.044"/>
<g>
	<circle fill="none" stroke="#FF0000" stroke-miterlimit="10" cx="323.753" cy="209.353" r="6.522"/>
	<text transform="matrix(0.982 -0.189 0.189 0.982 320.2705 210.8313)" font-family="'MyriadPro-Regular'" font-size="4">bulb</text>
</g>
<rect x="297.424" y="206.046" transform="matrix(-0.982 0.1889 -0.1889 -0.982 643.6647 364.78)" fill="none" width="14.044" height="14.044"/>
<g>
	<circle fill="none" stroke="#FF0000" stroke-miterlimit="10" cx="304.446" cy="213.069" r="6.522"/>
	<text transform="matrix(0.982 -0.189 0.189 0.982 300.9629 214.5471)" font-family="'MyriadPro-Regular'" font-size="4">bulb</text>
</g>
<rect x="278.117" y="209.762" transform="matrix(-0.982 0.1889 -0.1889 -0.982 606.0991 375.7925)" fill="none" width="14.044" height="14.044"/>
<g>
	<circle fill="none" stroke="#FF0000" stroke-miterlimit="10" cx="285.139" cy="216.784" r="6.522"/>
	<text transform="matrix(0.982 -0.189 0.189 0.982 281.6553 218.2629)" font-family="'MyriadPro-Regular'" font-size="4">bulb</text>
</g>
<rect x="258.81" y="213.478" transform="matrix(-0.982 0.1889 -0.1889 -0.982 568.5356 386.8048)" fill="none" width="14.044" height="14.044"/>
<g>
	<circle fill="none" stroke="#FF0000" stroke-miterlimit="10" cx="265.832" cy="220.5" r="6.522"/>
	<text transform="matrix(0.982 -0.189 0.189 0.982 262.3486 221.9788)" font-family="'MyriadPro-Regular'" font-size="4">bulb</text>
</g>
<rect x="413.267" y="143.75" transform="matrix(-0.982 0.189 -0.189 -0.982 861.499 219.3938)" fill="none" width="14.044" height="14.044"/>
<g>
	<circle fill="none" stroke="#00FF00" stroke-miterlimit="10" cx="420.29" cy="150.773" r="6.522"/>
	<text transform="matrix(0.982 -0.189 0.189 0.982 415.9561 154.4519)" font-family="'MyriadPro-Regular'" font-size="5">bulb</text>
</g>
<rect x="393.96" y="147.466" transform="matrix(-0.982 0.189 -0.189 -0.982 823.9333 230.4213)" fill="none" width="14.044" height="14.044"/>
<g>
	<circle fill="none" stroke="#00FF00" stroke-miterlimit="10" cx="400.982" cy="154.489" r="6.522"/>
	<text transform="matrix(0.982 -0.189 0.189 0.982 396.6494 158.1672)" font-family="'MyriadPro-Regular'" font-size="5">bulb</text>
</g>
<rect x="374.654" y="151.181" transform="matrix(-0.982 0.1889 -0.1889 -0.982 786.3673 241.4428)" fill="none" width="14.043" height="14.045"/>
<g>
	<circle fill="none" stroke="#00FF00" stroke-miterlimit="10" cx="381.675" cy="158.205" r="6.522"/>
	<text transform="matrix(0.982 -0.189 0.189 0.982 377.3428 161.8831)" font-family="'MyriadPro-Regular'" font-size="5">bulb</text>
</g>
<rect x="355.346" y="154.897" transform="matrix(-0.982 0.1889 -0.1889 -0.982 748.8018 252.4606)" fill="none" width="14.044" height="14.045"/>
<g>
	<circle fill="none" stroke="#00FF00" stroke-miterlimit="10" cx="362.368" cy="161.92" r="6.522"/>
	<text transform="matrix(0.982 -0.189 0.189 0.982 358.0352 165.5989)" font-family="'MyriadPro-Regular'" font-size="5">bulb</text>
</g>
<rect x="336.039" y="158.614" transform="matrix(-0.982 0.1889 -0.1889 -0.982 711.2365 263.475)" fill="none" width="14.044" height="14.045"/>
<g>
	<circle fill="none" stroke="#00FF00" stroke-miterlimit="10" cx="343.061" cy="165.637" r="6.522"/>
	<text transform="matrix(0.982 -0.189 0.189 0.982 338.7275 169.3157)" font-family="'MyriadPro-Regular'" font-size="5">bulb</text>
</g>
<rect x="316.732" y="162.33" transform="matrix(-0.982 0.1889 -0.1889 -0.982 673.6733 274.4833)" fill="none" width="14.043" height="14.044"/>
<g>
	<circle fill="none" stroke="#00FF00" stroke-miterlimit="10" cx="323.753" cy="169.353" r="6.522"/>
	<text transform="matrix(0.982 -0.189 0.189 0.982 319.4209 173.0315)" font-family="'MyriadPro-Regular'" font-size="5">bulb</text>
</g>
<rect x="297.424" y="166.046" transform="matrix(-0.982 0.1889 -0.1889 -0.982 636.1074 285.5003)" fill="none" width="14.044" height="14.044"/>
<g>
	<circle fill="none" stroke="#00FF00" stroke-miterlimit="10" cx="304.446" cy="173.069" r="6.522"/>
	<text transform="matrix(0.982 -0.189 0.189 0.982 300.1133 176.7473)" font-family="'MyriadPro-Regular'" font-size="5">bulb</text>
</g>
<rect x="278.117" y="169.762" transform="matrix(-0.982 0.1889 -0.1889 -0.982 598.542 296.5128)" fill="none" width="14.044" height="14.044"/>
<g>
	<circle fill="none" stroke="#00FF00" stroke-miterlimit="10" cx="285.139" cy="176.784" r="6.522"/>
	<text transform="matrix(0.982 -0.189 0.189 0.982 280.8057 180.4631)" font-family="'MyriadPro-Regular'" font-size="5">bulb</text>
</g>
<rect x="258.81" y="173.478" transform="matrix(-0.982 0.1889 -0.1889 -0.982 560.9784 307.5251)" fill="none" width="14.044" height="14.044"/>
<g>
	<circle fill="none" stroke="#00FF00" stroke-miterlimit="10" cx="265.832" cy="180.5" r="6.522"/>
	<text transform="matrix(0.982 -0.189 0.189 0.982 261.499 184.179)" font-family="'MyriadPro-Regular'" font-size="5">bulb</text>
</g>
<rect x="413.278" y="103.748" transform="matrix(-0.982 0.189 -0.189 -0.982 853.9607 140.1144)" fill="none" width="14.045" height="14.044"/>
<g>
	<circle fill="none" stroke="#BABABA" stroke-miterlimit="10" cx="420.3" cy="110.771" r="6.522"/>
	<text transform="matrix(0.982 -0.189 0.189 0.982 416.9756 113.0842)" font-family="'MyriadPro-Regular'" font-size="4">bulb</text>
</g>
<rect x="393.969" y="107.464" transform="matrix(-0.982 0.189 -0.189 -0.982 816.3937 151.1281)" fill="none" width="14.045" height="14.044"/>
<g>
	<circle fill="none" stroke="#BABABA" stroke-miterlimit="10" cx="400.992" cy="114.487" r="6.522"/>
	<text transform="matrix(0.982 -0.189 0.189 0.982 397.667 116.8)" font-family="'MyriadPro-Regular'" font-size="4">bulb</text>
</g>
<rect x="374.661" y="111.181" transform="matrix(-0.982 0.189 -0.189 -0.982 778.8268 162.1437)" fill="none" width="14.045" height="14.044"/>
<g>
	<circle fill="none" stroke="#BABABA" stroke-miterlimit="10" cx="381.683" cy="118.203" r="6.522"/>
	<text transform="matrix(0.982 -0.189 0.189 0.982 378.3584 120.5168)" font-family="'MyriadPro-Regular'" font-size="4">bulb</text>
</g>
<rect x="355.352" y="114.897" transform="matrix(-0.982 0.189 -0.189 -0.982 741.2598 173.1574)" fill="none" width="14.045" height="14.044"/>
<g>
	<circle fill="none" stroke="#BABABA" stroke-miterlimit="10" cx="362.375" cy="121.919" r="6.522"/>
	<text transform="matrix(0.982 -0.189 0.189 0.982 359.0498 124.2327)" font-family="'MyriadPro-Regular'" font-size="4">bulb</text>
</g>
<rect x="336.043" y="118.612" transform="matrix(-0.982 0.189 -0.189 -0.982 703.6927 184.1711)" fill="none" width="14.045" height="14.044"/>
<g>
	<circle fill="none" stroke="#BABABA" stroke-miterlimit="10" cx="343.066" cy="125.635" r="6.522"/>
	<text transform="matrix(0.982 -0.189 0.189 0.982 339.7412 127.9485)" font-family="'MyriadPro-Regular'" font-size="4">bulb</text>
</g>
<rect x="316.736" y="122.329" transform="matrix(-0.982 0.189 -0.189 -0.982 666.1277 195.1822)" fill="none" width="14.044" height="14.044"/>
<g>
	<circle fill="none" stroke="#BABABA" stroke-miterlimit="10" cx="323.758" cy="129.352" r="6.523"/>
	<text transform="matrix(0.982 -0.189 0.189 0.982 320.4336 131.6653)" font-family="'MyriadPro-Regular'" font-size="4">bulb</text>
</g>
<rect x="297.427" y="126.045" transform="matrix(-0.982 0.189 -0.189 -0.982 628.5608 206.1961)" fill="none" width="14.044" height="14.044"/>
<g>
	<circle fill="none" stroke="#BABABA" stroke-miterlimit="10" cx="304.449" cy="133.068" r="6.523"/>
	<text transform="matrix(0.982 -0.189 0.189 0.982 301.125 135.3811)" font-family="'MyriadPro-Regular'" font-size="4">bulb</text>
</g>
<rect x="278.119" y="129.762" transform="matrix(-0.982 0.189 -0.189 -0.982 590.9941 217.212)" fill="none" width="14.044" height="14.044"/>
<g>
	<circle fill="none" stroke="#BABABA" stroke-miterlimit="10" cx="285.141" cy="136.784" r="6.523"/>
	<text transform="matrix(0.982 -0.189 0.189 0.982 281.8164 139.0979)" font-family="'MyriadPro-Regular'" font-size="4">bulb</text>
</g>
<rect x="258.81" y="133.478" transform="matrix(-0.982 0.189 -0.189 -0.982 553.4272 228.2259)" fill="none" width="14.044" height="14.044"/>
<g>
	<circle fill="none" stroke="#BABABA" stroke-miterlimit="10" cx="265.832" cy="140.5" r="6.523"/>
	<text transform="matrix(0.982 -0.189 0.189 0.982 262.5078 142.8137)" font-family="'MyriadPro-Regular'" font-size="4">bulb</text>
</g>
</svg>
