<?xml version="1.0" encoding="utf-8"?>
<!-- Generator: Adobe Illustrator 16.0.0, SVG Export Plug-In . SVG Version: 6.00 Build 0)  -->
<!DOCTYPE svg PUBLIC "-//W3C//DTD SVG 1.1//EN" "http://www.w3.org/Graphics/SVG/1.1/DTD/svg11.dtd">
<svg version="1.1" id="Layer_1" xmlns="http://www.w3.org/2000/svg" xmlns:xlink="http://www.w3.org/1999/xlink" x="0px" y="0px"
	 width="480px" height="320px" viewBox="0 0 480 320" enable-background="new 0 0 480 320" xml:space="preserve">
<text transform="matrix(0.6748 0 0 1 453.1992 174.262)" font-family="'MyriadPro-Regular'" font-size="6">box</text>
<g>
	
		<rect x="-0.01" y="218.259" transform="matrix(-0.9414 -0.3373 0.3373 -0.9414 -35.7467 436.829)" fill="none" stroke="#000000" stroke-miterlimit="10" width="40.166" height="6.522"/>
	<text transform="matrix(0.6748 0 0 1 13.1992 224.262)" font-family="'MyriadPro-Regular'" font-size="6">box</text>
</g>
<g>
	
		<rect x="-0.014" y="268.257" transform="matrix(-0.9414 -0.3373 0.3373 -0.9414 -52.6188 533.8938)" fill="none" stroke="#000000" stroke-miterlimit="10" width="40.166" height="6.522"/>
	<text transform="matrix(0.6748 0 0 1 13.1992 274.262)" font-family="'MyriadPro-Regular'" font-size="6">box</text>
</g>
<text transform="matrix(0.6748 0 0 1 453.1992 224.262)" font-family="'MyriadPro-Regular'" font-size="6">box</text>
<text transform="matrix(0.6748 0 0 1 453.1992 274.262)" font-family="'MyriadPro-Regular'" font-size="6">box</text>
<g>
	
		<rect x="-0.007" y="168.259" transform="matrix(-0.9414 -0.3373 0.3373 -0.9414 -18.8824 339.7597)" fill="none" stroke="#000000" stroke-miterlimit="10" width="40.166" height="6.522"/>
	<text transform="matrix(0.6748 0 0 1 13.1992 174.262)" font-family="'MyriadPro-Regular'" font-size="6">box</text>
</g>
<g>
	
		<rect x="440" y="168.261" transform="matrix(-0.938 0.3467 -0.3467 -0.938 951.0975 172.9009)" fill="none" stroke="#000000" stroke-miterlimit="10" width="40.168" height="6.523"/>
	<text transform="matrix(0.6748 0 0 1 453.1992 174.262)" font-family="'MyriadPro-Regular'" font-size="6">box</text>
</g>
<g>
	
		<rect x="439.999" y="218.257" transform="matrix(-0.938 0.3467 -0.3467 -0.938 968.4301 269.7957)" fill="none" stroke="#000000" stroke-miterlimit="10" width="40.169" height="6.522"/>
	<text transform="matrix(0.6748 0 0 1 453.1992 224.262)" font-family="'MyriadPro-Regular'" font-size="6">box</text>
</g>
<g>
	
		<rect x="440" y="268.257" transform="matrix(-0.938 0.3467 -0.3467 -0.938 985.7668 366.6901)" fill="none" stroke="#000000" stroke-miterlimit="10" width="40.168" height="6.522"/>
	<text transform="matrix(0.6748 0 0 1 453.1992 274.262)" font-family="'MyriadPro-Regular'" font-size="6">box</text>
</g>
<rect x="66.61" y="206.334" fill="none" width="14.044" height="14.044"/>
<g>
	<circle fill="none" stroke="#00FF00" stroke-miterlimit="10" cx="73.632" cy="213.357" r="6.522"/>
	<text transform="matrix(1 0 0 1 68.6826 216.1506)" font-family="'MyriadPro-Regular'" font-size="5">bulb</text>
</g>
<rect x="69.294" y="222.972" fill="none" width="14.044" height="14.044"/>
<g>
	<circle fill="none" stroke="#00FF00" stroke-miterlimit="10" cx="76.316" cy="229.994" r="6.522"/>
	<text transform="matrix(1 0 0 1 71.3662 232.7883)" font-family="'MyriadPro-Regular'" font-size="5">bulb</text>
</g>
<rect x="76.776" y="238.028" fill="none" width="14.044" height="14.044"/>
<g>
	<circle fill="none" stroke="#00FF00" stroke-miterlimit="10" cx="83.798" cy="245.05" r="6.522"/>
	<text transform="matrix(1 0 0 1 78.8481 247.844)" font-family="'MyriadPro-Regular'" font-size="5">bulb</text>
</g>
<rect x="85.787" y="252.069" fill="none" width="14.044" height="14.044"/>
<g>
	<circle fill="none" stroke="#00FF00" stroke-miterlimit="10" cx="92.809" cy="259.091" r="6.522"/>
	<text transform="matrix(1 0 0 1 87.8589 261.885)" font-family="'MyriadPro-Regular'" font-size="5">bulb</text>
</g>
<rect x="97.703" y="263.986" fill="none" width="14.044" height="14.044"/>
<g>
	<circle fill="none" stroke="#00FF00" stroke-miterlimit="10" cx="104.725" cy="271.008" r="6.522"/>
	<text transform="matrix(1 0 0 1 99.7754 273.802)" font-family="'MyriadPro-Regular'" font-size="5">bulb</text>
</g>
<rect x="111.68" y="273.085" fill="none" width="14.044" height="14.044"/>
<g>
	<circle fill="none" stroke="#00FF00" stroke-miterlimit="10" cx="118.702" cy="280.108" r="6.522"/>
	<text transform="matrix(1 0 0 1 113.752 282.9016)" font-family="'MyriadPro-Regular'" font-size="5">bulb</text>
</g>
<rect x="126.7" y="280.674" fill="none" width="14.044" height="14.044"/>
<g>
	<circle fill="none" stroke="#00FF00" stroke-miterlimit="10" cx="133.722" cy="287.697" r="6.522"/>
	<text transform="matrix(1 0 0 1 128.772 290.4905)" font-family="'MyriadPro-Regular'" font-size="5">bulb</text>
</g>
<rect x="143.337" y="283.358" fill="none" width="14.044" height="14.044"/>
<g>
	<circle fill="none" stroke="#00FF00" stroke-miterlimit="10" cx="150.359" cy="290.38" r="6.522"/>
	<text transform="matrix(1 0 0 1 145.4097 293.1741)" font-family="'MyriadPro-Regular'" font-size="5">bulb</text>
</g>
<rect x="159.975" y="284.289" fill="none" width="14.044" height="14.043"/>
<g>
	<circle fill="none" stroke="#00FF00" stroke-miterlimit="10" cx="166.997" cy="291.312" r="6.522"/>
	<text transform="matrix(1 0 0 1 162.0474 294.1057)" font-family="'MyriadPro-Regular'" font-size="5">bulb</text>
</g>
<rect x="176.613" y="281.607" fill="none" width="14.044" height="14.044"/>
<g>
	<circle fill="none" stroke="#00FF00" stroke-miterlimit="10" cx="183.635" cy="288.629" r="6.522"/>
	<text transform="matrix(1 0 0 1 178.6851 291.4231)" font-family="'MyriadPro-Regular'" font-size="5">bulb</text>
</g>
<rect x="192.212" y="275.775" fill="none" width="14.044" height="14.044"/>
<g>
	<circle fill="none" stroke="#00FF00" stroke-miterlimit="10" cx="199.234" cy="282.797" r="6.522"/>
	<text transform="matrix(1 0 0 1 194.2842 285.5911)" font-family="'MyriadPro-Regular'" font-size="5">bulb</text>
</g>
<rect x="207.182" y="268.033" fill="none" width="14.044" height="14.044"/>
<g>
	<circle fill="none" stroke="#00FF00" stroke-miterlimit="10" cx="214.204" cy="275.056" r="6.522"/>
	<text transform="matrix(1 0 0 1 209.2539 277.8499)" font-family="'MyriadPro-Regular'" font-size="5">bulb</text>
</g>
<rect x="219.166" y="256.209" fill="none" width="14.044" height="14.044"/>
<g>
	<circle fill="none" stroke="#00FF00" stroke-miterlimit="10" cx="226.188" cy="263.232" r="6.522"/>
	<text transform="matrix(1 0 0 1 221.2383 266.0256)" font-family="'MyriadPro-Regular'" font-size="5">bulb</text>
</g>
<rect x="229.627" y="243.229" fill="none" width="14.044" height="14.044"/>
<g>
	<circle fill="none" stroke="#00FF00" stroke-miterlimit="10" cx="236.65" cy="250.251" r="6.522"/>
	<text transform="matrix(1 0 0 1 231.6997 253.0452)" font-family="'MyriadPro-Regular'" font-size="5">bulb</text>
</g>
<rect x="237.369" y="228.259" fill="none" width="14.044" height="14.044"/>
<g>
	<circle fill="none" stroke="#00FF00" stroke-miterlimit="10" cx="244.391" cy="235.281" r="6.522"/>
	<text transform="matrix(1 0 0 1 239.4414 238.0754)" font-family="'MyriadPro-Regular'" font-size="5">bulb</text>
</g>
<rect x="241.551" y="212.115" fill="none" width="14.045" height="14.044"/>
<g>
	<circle fill="none" stroke="#00FF00" stroke-miterlimit="10" cx="248.573" cy="219.138" r="6.522"/>
	<text transform="matrix(1 0 0 1 243.623 221.9319)" font-family="'MyriadPro-Regular'" font-size="5">bulb</text>
</g>
<rect x="244.234" y="195.478" fill="none" width="14.043" height="14.044"/>
<g>
	<circle fill="none" stroke="#00FF00" stroke-miterlimit="10" cx="251.256" cy="202.5" r="6.522"/>
	<text transform="matrix(1 0 0 1 246.3066 205.2942)" font-family="'MyriadPro-Regular'" font-size="5">bulb</text>
</g>
<rect x="207.685" y="173.517" fill="none" width="14.044" height="14.044"/>
<g>
	<circle fill="none" stroke="#FF0000" stroke-miterlimit="10" cx="214.707" cy="180.539" r="6.522"/>
	<text transform="matrix(1 0 0 1 211.0073 181.3333)" font-family="'MyriadPro-Regular'" font-size="4">bulb</text>
</g>
<rect x="195.289" y="154.817" fill="none" width="14.044" height="14.044"/>
<g>
	<circle fill="none" stroke="#FF0000" stroke-miterlimit="10" cx="202.311" cy="161.839" r="6.522"/>
	<text transform="matrix(1 0 0 1 198.6113 162.6331)" font-family="'MyriadPro-Regular'" font-size="4">bulb</text>
</g>
<rect x="176.622" y="142.363" fill="none" width="14.044" height="14.045"/>
<g>
	<circle fill="none" stroke="#FF0000" stroke-miterlimit="10" cx="183.644" cy="149.385" r="6.522"/>
	<text transform="matrix(1 0 0 1 179.9443 150.179)" font-family="'MyriadPro-Regular'" font-size="4">bulb</text>
</g>
<rect x="154.596" y="137.915" fill="none" width="14.044" height="14.044"/>
<g>
	<circle fill="none" stroke="#FF0000" stroke-miterlimit="10" cx="161.618" cy="144.938" r="6.522"/>
	<text transform="matrix(1 0 0 1 157.918 145.7317)" font-family="'MyriadPro-Regular'" font-size="4">bulb</text>
</g>
<rect x="132.57" y="142.342" fill="none" width="14.044" height="14.044"/>
<g>
	<circle fill="none" stroke="#FF0000" stroke-miterlimit="10" cx="139.592" cy="149.365" r="6.522"/>
	<text transform="matrix(1 0 0 1 135.8921 150.1584)" font-family="'MyriadPro-Regular'" font-size="4">bulb</text>
</g>
<rect x="113.872" y="154.744" fill="none" width="14.044" height="14.044"/>
<g>
	<circle fill="none" stroke="#FF0000" stroke-miterlimit="10" cx="120.894" cy="161.767" r="6.522"/>
	<text transform="matrix(1 0 0 1 117.1943 162.5608)" font-family="'MyriadPro-Regular'" font-size="4">bulb</text>
</g>
<rect x="101.429" y="173.418" fill="none" width="14.044" height="14.044"/>
<g>
	<circle fill="none" stroke="#FF0000" stroke-miterlimit="10" cx="108.451" cy="180.441" r="6.522"/>
	<text transform="matrix(1 0 0 1 104.751 181.2346)" font-family="'MyriadPro-Regular'" font-size="4">bulb</text>
</g>
<rect x="96.982" y="195.445" fill="none" width="14.044" height="14.044"/>
<g>
	<circle fill="none" stroke="#FF0000" stroke-miterlimit="10" cx="104.004" cy="202.467" r="6.522"/>
	<text transform="matrix(1 0 0 1 100.3042 203.261)" font-family="'MyriadPro-Regular'" font-size="4">bulb</text>
</g>
<rect x="101.415" y="217.47" fill="none" width="14.044" height="14.044"/>
<g>
	<circle fill="none" stroke="#FF0000" stroke-miterlimit="10" cx="108.437" cy="224.492" r="6.522"/>
	<text transform="matrix(1 0 0 1 104.7373 225.2864)" font-family="'MyriadPro-Regular'" font-size="4">bulb</text>
</g>
<rect x="113.823" y="236.165" fill="none" width="14.044" height="14.044"/>
<g>
	<circle fill="none" stroke="#FF0000" stroke-miterlimit="10" cx="120.845" cy="243.188" r="6.522"/>
	<text transform="matrix(1 0 0 1 117.1455 243.9817)" font-family="'MyriadPro-Regular'" font-size="4">bulb</text>
</g>
<rect x="132.504" y="248.599" fill="none" width="14.044" height="14.044"/>
<g>
	<circle fill="none" stroke="#FF0000" stroke-miterlimit="10" cx="139.526" cy="255.621" r="6.522"/>
	<text transform="matrix(1 0 0 1 135.8267 256.4153)" font-family="'MyriadPro-Regular'" font-size="4">bulb</text>
</g>
<rect x="154.53" y="253.046" fill="none" width="14.044" height="14.044"/>
<g>
	<circle fill="none" stroke="#FF0000" stroke-miterlimit="10" cx="161.552" cy="260.069" r="6.522"/>
	<text transform="matrix(1 0 0 1 157.8525 260.8625)" font-family="'MyriadPro-Regular'" font-size="4">bulb</text>
</g>
<rect x="176.556" y="248.606" fill="none" width="14.044" height="14.044"/>
<g>
	<circle fill="none" stroke="#FF0000" stroke-miterlimit="10" cx="183.578" cy="255.628" r="6.522"/>
	<text transform="matrix(1 0 0 1 179.8784 256.4221)" font-family="'MyriadPro-Regular'" font-size="4">bulb</text>
</g>
<rect x="195.249" y="236.192" fill="none" width="14.044" height="14.044"/>
<g>
	<circle fill="none" stroke="#FF0000" stroke-miterlimit="10" cx="202.271" cy="243.214" r="6.522"/>
	<text transform="matrix(1 0 0 1 198.5713 244.0081)" font-family="'MyriadPro-Regular'" font-size="4">bulb</text>
</g>
<rect x="207.672" y="217.504" fill="none" width="14.044" height="14.044"/>
<g>
	<circle fill="none" stroke="#FF0000" stroke-miterlimit="10" cx="214.694" cy="224.527" r="6.522"/>
	<text transform="matrix(1 0 0 1 210.9941 225.3206)" font-family="'MyriadPro-Regular'" font-size="4">bulb</text>
</g>
<rect x="212.119" y="195.478" fill="none" width="14.044" height="14.044"/>
<g>
	<circle fill="none" stroke="#FF0000" stroke-miterlimit="10" cx="219.141" cy="202.5" r="6.522"/>
	<text transform="matrix(1 0 0 1 215.4409 203.2942)" font-family="'MyriadPro-Regular'" font-size="4">bulb</text>
</g>
<rect x="185.472" y="179.78" fill="none" width="14.044" height="14.045"/>
<g>
	<circle fill="none" stroke="#00FF00" stroke-miterlimit="10" cx="192.494" cy="186.802" r="6.522"/>
	<text transform="matrix(1 0 0 1 187.5444 189.5959)" font-family="'MyriadPro-Regular'" font-size="5">bulb</text>
</g>
<rect x="174.504" y="167.314" fill="none" width="14.044" height="14.044"/>
<g>
	<circle fill="none" stroke="#00FF00" stroke-miterlimit="10" cx="181.526" cy="174.336" r="6.522"/>
	<text transform="matrix(1 0 0 1 176.5767 177.1301)" font-family="'MyriadPro-Regular'" font-size="5">bulb</text>
</g>
<rect x="159.042" y="161.522" fill="none" width="14.044" height="14.044"/>
<g>
	<circle fill="none" stroke="#00FF00" stroke-miterlimit="10" cx="166.064" cy="168.544" r="6.522"/>
	<text transform="matrix(1 0 0 1 161.1143 171.3381)" font-family="'MyriadPro-Regular'" font-size="5">bulb</text>
</g>
<rect x="142.774" y="163.49" fill="none" width="14.044" height="14.045"/>
<g>
	<circle fill="none" stroke="#00FF00" stroke-miterlimit="10" cx="149.796" cy="170.513" r="6.522"/>
	<text transform="matrix(1 0 0 1 144.8462 173.3069)" font-family="'MyriadPro-Regular'" font-size="5">bulb</text>
</g>
<rect x="129.258" y="172.645" fill="none" width="14.044" height="14.044"/>
<g>
	<circle fill="none" stroke="#00FF00" stroke-miterlimit="10" cx="136.28" cy="179.667" r="6.522"/>
	<text transform="matrix(1 0 0 1 131.3306 182.4612)" font-family="'MyriadPro-Regular'" font-size="5">bulb</text>
</g>
<rect x="121.653" y="187.058" fill="none" width="14.044" height="14.044"/>
<g>
	<circle fill="none" stroke="#00FF00" stroke-miterlimit="10" cx="128.675" cy="194.08" r="6.522"/>
	<text transform="matrix(1 0 0 1 123.7256 196.8743)" font-family="'MyriadPro-Regular'" font-size="5">bulb</text>
</g>
<rect x="121.499" y="203.325" fill="none" width="14.044" height="14.044"/>
<g>
	<circle fill="none" stroke="#00FF00" stroke-miterlimit="10" cx="128.521" cy="210.348" r="6.522"/>
	<text transform="matrix(1 0 0 1 123.5708 213.1418)" font-family="'MyriadPro-Regular'" font-size="5">bulb</text>
</g>
<rect x="128.84" y="217.891" fill="none" width="14.044" height="14.044"/>
<g>
	<circle fill="none" stroke="#00FF00" stroke-miterlimit="10" cx="135.862" cy="224.913" r="6.522"/>
	<text transform="matrix(1 0 0 1 130.9121 227.7073)" font-family="'MyriadPro-Regular'" font-size="5">bulb</text>
</g>
<rect x="142.203" y="227.31" fill="none" width="14.044" height="14.044"/>
<g>
	<circle fill="none" stroke="#00FF00" stroke-miterlimit="10" cx="149.225" cy="234.332" r="6.522"/>
	<text transform="matrix(1 0 0 1 144.2749 237.1262)" font-family="'MyriadPro-Regular'" font-size="5">bulb</text>
</g>
<rect x="158.471" y="229.587" fill="none" width="14.044" height="14.044"/>
<g>
	<circle fill="none" stroke="#00FF00" stroke-miterlimit="10" cx="165.493" cy="236.61" r="6.522"/>
	<text transform="matrix(1 0 0 1 160.543 239.4036)" font-family="'MyriadPro-Regular'" font-size="5">bulb</text>
</g>
<rect x="174.086" y="224.059" fill="none" width="14.044" height="14.044"/>
<g>
	<circle fill="none" stroke="#00FF00" stroke-miterlimit="10" cx="181.108" cy="231.081" r="6.522"/>
	<text transform="matrix(1 0 0 1 176.1582 233.8752)" font-family="'MyriadPro-Regular'" font-size="5">bulb</text>
</g>
<rect x="185.317" y="211.745" fill="none" width="14.044" height="14.044"/>
<g>
	<circle fill="none" stroke="#00FF00" stroke-miterlimit="10" cx="192.339" cy="218.768" r="6.522"/>
	<text transform="matrix(1 0 0 1 187.3896 221.5618)" font-family="'MyriadPro-Regular'" font-size="5">bulb</text>
</g>
<rect x="189.718" y="195.478" fill="none" width="14.044" height="14.044"/>
<g>
	<circle fill="none" stroke="#00FF00" stroke-miterlimit="10" cx="196.74" cy="202.5" r="6.522"/>
	<text transform="matrix(1 0 0 1 191.7905 205.2942)" font-family="'MyriadPro-Regular'" font-size="5">bulb</text>
</g>
<rect x="369.88" y="151.108" fill="none" width="14.044" height="14.044"/>
<g>
	<circle fill="none" stroke="#00FF00" stroke-miterlimit="10" cx="376.902" cy="158.13" r="6.522"/>
	<text transform="matrix(1 0 0 1 371.9521 160.9241)" font-family="'MyriadPro-Regular'" font-size="5">bulb</text>
</g>
<rect x="362.082" y="136.455" fill="none" width="14.044" height="14.044"/>
<g>
	<circle fill="none" stroke="#00FF00" stroke-miterlimit="10" cx="369.104" cy="143.478" r="6.522"/>
	<text transform="matrix(1 0 0 1 364.1543 146.2717)" font-family="'MyriadPro-Regular'" font-size="5">bulb</text>
</g>
<rect x="349.766" y="125.377" fill="none" width="14.043" height="14.044"/>
<g>
	<circle fill="none" stroke="#00FF00" stroke-miterlimit="10" cx="356.787" cy="132.4" r="6.522"/>
	<text transform="matrix(1 0 0 1 351.8369 135.1936)" font-family="'MyriadPro-Regular'" font-size="5">bulb</text>
</g>
<rect x="334.419" y="119.236" fill="none" width="14.044" height="14.044"/>
<g>
	<circle fill="none" stroke="#00FF00" stroke-miterlimit="10" cx="341.441" cy="126.258" r="6.522"/>
	<text transform="matrix(1 0 0 1 336.4912 129.052)" font-family="'MyriadPro-Regular'" font-size="5">bulb</text>
</g>
<rect x="317.898" y="118.585" fill="none" width="14.045" height="14.044"/>
<g>
	<circle fill="none" stroke="#00FF00" stroke-miterlimit="10" cx="324.921" cy="125.608" r="6.522"/>
	<text transform="matrix(1 0 0 1 319.9717 128.4016)" font-family="'MyriadPro-Regular'" font-size="5">bulb</text>
</g>
<rect x="302.059" y="123.538" fill="none" width="14.043" height="14.044"/>
<g>
	<circle fill="none" stroke="#00FF00" stroke-miterlimit="10" cx="309.08" cy="130.561" r="6.522"/>
	<text transform="matrix(1 0 0 1 304.1299 133.3547)" font-family="'MyriadPro-Regular'" font-size="5">bulb</text>
</g>
<rect x="288.852" y="133.727" fill="none" width="14.045" height="14.044"/>
<g>
	<circle fill="none" stroke="#00FF00" stroke-miterlimit="10" cx="295.874" cy="140.749" r="6.522"/>
	<text transform="matrix(1 0 0 1 290.9238 143.5432)" font-family="'MyriadPro-Regular'" font-size="5">bulb</text>
</g>
<rect x="279.865" y="147.882" fill="none" width="14.044" height="14.044"/>
<g>
	<circle fill="none" stroke="#00FF00" stroke-miterlimit="10" cx="286.887" cy="154.905" r="6.522"/>
	<text transform="matrix(1 0 0 1 281.9375 157.6985)" font-family="'MyriadPro-Regular'" font-size="5">bulb</text>
</g>
<rect x="276.529" y="164.402" fill="none" width="14.045" height="14.044"/>
<g>
	<circle fill="none" stroke="#00FF00" stroke-miterlimit="10" cx="283.552" cy="171.424" r="6.522"/>
	<text transform="matrix(1 0 0 1 278.6025 174.218)" font-family="'MyriadPro-Regular'" font-size="5">bulb</text>
</g>
<rect x="279.432" y="180.921" fill="none" width="14.043" height="14.044"/>
<g>
	<circle fill="none" stroke="#00FF00" stroke-miterlimit="10" cx="286.453" cy="187.944" r="6.522"/>
	<text transform="matrix(1 0 0 1 281.5029 190.7375)" font-family="'MyriadPro-Regular'" font-size="5">bulb</text>
</g>
<rect x="287.625" y="195.406" fill="none" width="14.044" height="14.045"/>
<g>
	<circle fill="none" stroke="#00FF00" stroke-miterlimit="10" cx="294.646" cy="202.43" r="6.522"/>
	<text transform="matrix(1 0 0 1 289.6973 205.2239)" font-family="'MyriadPro-Regular'" font-size="5">bulb</text>
</g>
<rect x="300.238" y="206.19" fill="none" width="14.044" height="14.044"/>
<g>
	<circle fill="none" stroke="#00FF00" stroke-miterlimit="10" cx="307.26" cy="213.212" r="6.522"/>
	<text transform="matrix(1 0 0 1 302.3105 216.0061)" font-family="'MyriadPro-Regular'" font-size="5">bulb</text>
</g>
<rect x="315.749" y="211.935" fill="none" width="14.044" height="14.044"/>
<g>
	<circle fill="none" stroke="#00FF00" stroke-miterlimit="10" cx="322.771" cy="218.957" r="6.522"/>
	<text transform="matrix(1 0 0 1 317.8213 221.7512)" font-family="'MyriadPro-Regular'" font-size="5">bulb</text>
</g>
<rect x="332.27" y="212.153" fill="none" width="14.043" height="14.044"/>
<g>
	<circle fill="none" stroke="#00FF00" stroke-miterlimit="10" cx="339.291" cy="219.175" r="6.522"/>
	<text transform="matrix(1 0 0 1 334.3408 221.969)" font-family="'MyriadPro-Regular'" font-size="5">bulb</text>
</g>
<rect x="347.945" y="206.803" fill="none" width="14.044" height="14.044"/>
<g>
	<circle fill="none" stroke="#00FF00" stroke-miterlimit="10" cx="354.967" cy="213.825" r="6.522"/>
	<text transform="matrix(1 0 0 1 350.0176 216.6194)" font-family="'MyriadPro-Regular'" font-size="5">bulb</text>
</g>
<rect x="360.855" y="196.319" fill="none" width="14.043" height="14.044"/>
<g>
	<circle fill="none" stroke="#00FF00" stroke-miterlimit="10" cx="367.877" cy="203.341" r="6.522"/>
	<text transform="matrix(1 0 0 1 362.9277 206.135)" font-family="'MyriadPro-Regular'" font-size="5">bulb</text>
</g>
<rect x="369.445" y="181.997" fill="none" width="14.044" height="14.044"/>
<g>
	<circle fill="none" stroke="#00FF00" stroke-miterlimit="10" cx="376.467" cy="189.02" r="6.522"/>
	<text transform="matrix(1 0 0 1 371.5176 191.8137)" font-family="'MyriadPro-Regular'" font-size="5">bulb</text>
</g>
<rect x="372.781" y="165.478" fill="none" width="14.044" height="14.044"/>
<g>
	<circle fill="none" stroke="#00FF00" stroke-miterlimit="10" cx="379.803" cy="172.5" r="6.522"/>
	<text transform="matrix(1 0 0 1 374.8535 175.2942)" font-family="'MyriadPro-Regular'" font-size="5">bulb</text>
</g>
<rect x="308.427" y="181.509" fill="none" width="14.044" height="14.044"/>
<g>
	<circle fill="none" stroke="#BABABA" stroke-miterlimit="10" cx="315.449" cy="188.531" r="6.522"/>
	<text transform="matrix(1 0 0 1 311.7471 190.175)" font-family="'MyriadPro-Regular'" font-size="4">bulb</text>
</g>
<rect x="324.495" y="188.963" fill="none" width="14.044" height="14.044"/>
<g>
	<circle fill="none" stroke="#BABABA" stroke-miterlimit="10" cx="331.518" cy="195.986" r="6.522"/>
	<text transform="matrix(1 0 0 1 327.8154 197.6292)" font-family="'MyriadPro-Regular'" font-size="4">bulb</text>
</g>
<rect x="340.591" y="181.584" fill="none" width="14.044" height="14.044"/>
<g>
	<circle fill="none" stroke="#BABABA" stroke-miterlimit="10" cx="347.613" cy="188.607" r="6.522"/>
	<text transform="matrix(1 0 0 1 343.9111 190.2502)" font-family="'MyriadPro-Regular'" font-size="4">bulb</text>
</g>
<rect x="348.037" y="165.512" fill="none" width="14.044" height="14.044"/>
<g>
	<circle fill="none" stroke="#BABABA" stroke-miterlimit="10" cx="355.059" cy="172.534" r="6.522"/>
	<text transform="matrix(1 0 0 1 351.3574 174.178)" font-family="'MyriadPro-Regular'" font-size="4">bulb</text>
</g>
<rect x="340.643" y="149.42" fill="none" width="14.043" height="14.044"/>
<g>
	<circle fill="none" stroke="#BABABA" stroke-miterlimit="10" cx="347.664" cy="156.443" r="6.522"/>
	<text transform="matrix(1 0 0 1 343.9619 158.0862)" font-family="'MyriadPro-Regular'" font-size="4">bulb</text>
</g>
<rect x="324.563" y="141.983" fill="none" width="14.045" height="14.044"/>
<g>
	<circle fill="none" stroke="#BABABA" stroke-miterlimit="10" cx="331.585" cy="149.005" r="6.522"/>
	<text transform="matrix(1 0 0 1 327.8838 150.6487)" font-family="'MyriadPro-Regular'" font-size="4">bulb</text>
</g>
<rect x="308.479" y="149.396" fill="none" width="14.043" height="14.044"/>
<g>
	<circle fill="none" stroke="#BABABA" stroke-miterlimit="10" cx="315.5" cy="156.418" r="6.522"/>
	<text transform="matrix(1 0 0 1 311.7979 158.0618)" font-family="'MyriadPro-Regular'" font-size="4">bulb</text>
</g>
<rect x="301.047" y="165.478" fill="none" width="14.044" height="14.044"/>
<g>
	<circle fill="none" stroke="#BABABA" stroke-miterlimit="10" cx="308.068" cy="172.5" r="6.522"/>
	<text transform="matrix(1 0 0 1 304.3672 174.1438)" font-family="'MyriadPro-Regular'" font-size="4">bulb</text>
</g>
<g>
	<rect x="233.21" y="38" fill="none" stroke="#BABABA" stroke-miterlimit="10" width="19.659" height="7.5"/>
	<text transform="matrix(0.6748 0 0 1 236.0688 44.0002)" font-family="'MyriadPro-Regular'" font-size="6">rectbulb</text>
</g>
<g>
	<rect x="322.443" y="101.834" fill="none" stroke="#BABABA" stroke-miterlimit="10" width="19" height="6"/>
	<text transform="matrix(0.6748 0 0 1 323.8086 107.0002)" font-family="'MyriadPro-Regular'" font-size="6">rectbulb</text>
</g>
<g>
	
		<rect x="294.776" y="107.003" transform="matrix(-0.9135 0.4067 -0.4067 -0.9135 626.9879 86.7354)" fill="none" stroke="#BABABA" stroke-miterlimit="10" width="19" height="6"/>
	<text transform="matrix(0.6165 -0.2745 0.4067 0.9135 297.7266 115.2908)" font-family="'MyriadPro-Regular'" font-size="6">rectbulb</text>
</g>
<g>
	
		<rect x="271.603" y="122.979" transform="matrix(-0.6691 0.7431 -0.7431 -0.6691 562.8206 1.3802)" fill="none" stroke="#BABABA" stroke-miterlimit="10" width="19" height="6"/>
	<text transform="matrix(0.4515 -0.5015 0.7431 0.6691 277.2705 133.4734)" font-family="'MyriadPro-Regular'" font-size="6">rectbulb</text>
</g>
<g>
	
		<rect x="256.931" y="146.999" transform="matrix(-0.309 0.951 -0.951 -0.309 491.4278 -57.0331)" fill="none" stroke="#BABABA" stroke-miterlimit="10" width="19" height="6"/>
	<text transform="matrix(0.2085 -0.6418 0.9511 0.309 265.9795 158.4041)" font-family="'MyriadPro-Regular'" font-size="6">rectbulb</text>
</g>
<g>
	
		<rect x="253.298" y="174.91" transform="matrix(0.1045 0.9945 -0.9945 0.1045 412.2742 -102.04)" fill="none" stroke="#BABABA" stroke-miterlimit="10" width="19" height="6"/>
	<text transform="matrix(-0.0705 -0.6711 0.9945 -0.1045 265.8037 185.7727)" font-family="'MyriadPro-Regular'" font-size="6">rectbulb</text>
</g>
<g>
	
		<rect x="261.331" y="201.885" transform="matrix(0.5 0.866 -0.866 0.5 312.8567 -132.1039)" fill="none" stroke="#BABABA" stroke-miterlimit="10" width="19.001" height="6"/>
	<text transform="matrix(-0.3374 -0.5844 0.866 -0.5 276.7754 210.8469)" font-family="'MyriadPro-Regular'" font-size="6">rectbulb</text>
</g>
<g>
	
		<rect x="279.642" y="223.26" transform="matrix(0.809 0.5878 -0.5878 0.809 188.2171 -126.7425)" fill="none" stroke="#BABABA" stroke-miterlimit="10" width="19" height="6"/>
	<text transform="matrix(-0.5459 -0.3966 0.5878 -0.809 296.9971 229.2893)" font-family="'MyriadPro-Regular'" font-size="6">rectbulb</text>
</g>
<g>
	
		<rect x="305.064" y="235.34" transform="matrix(0.9781 0.2079 -0.2079 0.9781 56.4285 -60.1938)" fill="none" stroke="#BABABA" stroke-miterlimit="10" width="18.999" height="6"/>
	<text transform="matrix(-0.6601 -0.1403 0.2079 -0.9781 322.9707 237.9114)" font-family="'MyriadPro-Regular'" font-size="6">rectbulb</text>
</g>
<g>
	
		<rect x="333.202" y="236.037" transform="matrix(0.9782 -0.2079 0.2079 0.9782 -42.2019 76.4567)" fill="none" stroke="#BABABA" stroke-miterlimit="10" width="18.999" height="5.999"/>
	<text transform="matrix(-0.6601 0.1403 -0.2079 -0.9781 350.207 235.2249)" font-family="'MyriadPro-Regular'" font-size="6">rectbulb</text>
</g>
<g>
	
		<rect x="359.19" y="225.229" transform="matrix(0.8091 -0.5877 0.5877 0.8091 -63.7382 260.2659)" fill="none" stroke="#BABABA" stroke-miterlimit="10" width="18.999" height="5.999"/>
	<text transform="matrix(-0.5459 0.3966 -0.5878 -0.809 373.9961 221.6936)" font-family="'MyriadPro-Regular'" font-size="6">rectbulb</text>
</g>
<g>
	
		<rect x="378.535" y="204.785" transform="matrix(0.5001 -0.866 0.866 0.5001 14.0466 439.9002)" fill="none" stroke="#BABABA" stroke-miterlimit="10" width="18.998" height="5.998"/>
	<text transform="matrix(-0.3374 0.5844 -0.866 -0.5 390.2227 199.6555)" font-family="'MyriadPro-Regular'" font-size="6">rectbulb</text>
</g>
<g>
	
		<rect x="387.892" y="178.239" transform="matrix(0.1046 -0.9945 0.9945 0.1046 175.5799 557.4918)" fill="none" stroke="#BABABA" stroke-miterlimit="10" width="18.999" height="5.999"/>
	<text transform="matrix(-0.0705 0.6711 -0.9945 -0.1045 396.0859 172.9221)" font-family="'MyriadPro-Regular'" font-size="6">rectbulb</text>
</g>
<g>
	
		<rect x="385.643" y="150.182" transform="matrix(-0.3089 -0.9511 0.9511 -0.3089 371.5194 576.3178)" fill="none" stroke="#BABABA" stroke-miterlimit="10" width="18.999" height="5.999"/>
	<text transform="matrix(0.2085 0.6418 -0.9511 0.309 390.5674 146.1165)" font-family="'MyriadPro-Regular'" font-size="6">rectbulb</text>
</g>
<g>
	
		<rect x="372.177" y="125.466" transform="matrix(-0.669 -0.7432 0.7432 -0.669 541.5582 498.0849)" fill="none" stroke="#BABABA" stroke-miterlimit="10" width="18.999" height="5.999"/>
	<text transform="matrix(0.4515 0.5015 -0.7431 0.6691 374.623 123.8723)" font-family="'MyriadPro-Regular'" font-size="6">rectbulb</text>
</g>
<g>
	
		<rect x="349.822" y="108.364" transform="matrix(-0.9135 -0.4068 0.4068 -0.9135 642.2551 359.2803)" fill="none" stroke="#BABABA" stroke-miterlimit="10" width="18.999" height="5.998"/>
	<text transform="matrix(0.6165 0.2745 -0.4067 0.9135 351.0098 110.0364)" font-family="'MyriadPro-Regular'" font-size="6">rectbulb</text>
</g>
</svg>
