<?xml version="1.0" encoding="utf-8"?>
<!-- Generator: Adobe Illustrator 16.0.0, SVG Export Plug-In . SVG Version: 6.00 Build 0)  -->
<!DOCTYPE svg PUBLIC "-//W3C//DTD SVG 1.1//EN" "http://www.w3.org/Graphics/SVG/1.1/DTD/svg11.dtd">
<svg version="1.1" id="Layer_1" xmlns="http://www.w3.org/2000/svg" xmlns:xlink="http://www.w3.org/1999/xlink" x="0px" y="0px"
	 width="480px" height="320px" viewBox="0 0 480 320" enable-background="new 0 0 480 320" xml:space="preserve">
<g>
	<circle fill="#FFFFFF" stroke="#BABABA" stroke-miterlimit="10" cx="127.977" cy="198.74" r="6.522"/>
	<text transform="matrix(1 0 0 1 120.2754 211.7825)" fill="#010101" font-family="'MyriadPro-Regular'" font-size="8">bulb</text>
</g>
<g>
	<circle fill="#FFFFFF" stroke="#00FF00" stroke-miterlimit="10" cx="183.156" cy="198.74" r="6.522"/>
	<text transform="matrix(1 0 0 1 175.4546 211.7825)" fill="#010101" font-family="'MyriadPro-Regular'" font-size="8">bulb</text>
</g>
<g>
	<circle fill="#FFFFFF" stroke="#BABABA" stroke-miterlimit="10" cx="238.334" cy="198.74" r="6.522"/>
	<text transform="matrix(1 0 0 1 230.6333 211.7825)" fill="#010101" font-family="'MyriadPro-Regular'" font-size="8">bulb</text>
</g>
<g>
	<circle fill="#FFFFFF" stroke="#BABABA" stroke-miterlimit="10" cx="348.691" cy="198.74" r="6.522"/>
	<text transform="matrix(1 0 0 1 340.9912 211.7834)" fill="#010101" font-family="'MyriadPro-Regular'" font-size="8">bulb</text>
</g>
<g>
	<circle fill="#FFFFFF" stroke="#00FF00" stroke-miterlimit="10" cx="214.074" cy="172.74" r="6.522"/>
	<text transform="matrix(1 0 0 1 206.3735 185.7825)" fill="#010101" font-family="'MyriadPro-Regular'" font-size="8">bulb</text>
</g>
<g>
	<circle fill="#FFFFFF" stroke="#BABABA" stroke-miterlimit="10" cx="268.273" cy="172.74" r="6.522"/>
	<text transform="matrix(1 0 0 1 260.5723 185.7825)" fill="#010101" font-family="'MyriadPro-Regular'" font-size="8">bulb</text>
</g>
<g>
	<circle fill="#FFFFFF" stroke="#BABABA" stroke-miterlimit="10" cx="322.473" cy="172.74" r="6.522"/>
	<text transform="matrix(1 0 0 1 314.7715 185.7834)" fill="#010101" font-family="'MyriadPro-Regular'" font-size="8">bulb</text>
</g>
<g>
	<circle fill="#FFFFFF" stroke="#00FF00" stroke-miterlimit="10" cx="159.876" cy="222.74" r="6.522"/>
	<text transform="matrix(1 0 0 1 152.1748 235.7825)" fill="#010101" font-family="'MyriadPro-Regular'" font-size="8">bulb</text>
</g>
<g>
	<circle fill="#FFFFFF" stroke="#00FF00" stroke-miterlimit="10" cx="268.273" cy="222.74" r="6.522"/>
	<text transform="matrix(1 0 0 1 260.5723 235.7825)" fill="#010101" font-family="'MyriadPro-Regular'" font-size="8">bulb</text>
</g>
<g>
	<circle fill="#FFFFFF" stroke="#BABABA" stroke-miterlimit="10" cx="322.473" cy="222.74" r="6.522"/>
	<text transform="matrix(1 0 0 1 314.7715 235.7834)" fill="#010101" font-family="'MyriadPro-Regular'" font-size="8">bulb</text>
</g>
<g>
	<circle fill="#FFFFFF" stroke="#00FF00" stroke-miterlimit="10" cx="127.966" cy="148.74" r="6.522"/>
	<text transform="matrix(1 0 0 1 120.2646 161.7825)" fill="#010101" font-family="'MyriadPro-Regular'" font-size="8">bulb</text>
</g>
<g>
	<circle fill="#FFFFFF" stroke="#BABABA" stroke-miterlimit="10" cx="183.134" cy="148.74" r="6.522"/>
	<text transform="matrix(1 0 0 1 175.4331 161.7825)" fill="#010101" font-family="'MyriadPro-Regular'" font-size="8">bulb</text>
</g>
<g>
	<circle fill="#FFFFFF" stroke="#00FF00" stroke-miterlimit="10" cx="238.302" cy="148.74" r="6.522"/>
	<text transform="matrix(1 0 0 1 230.6011 161.7825)" fill="#010101" font-family="'MyriadPro-Regular'" font-size="8">bulb</text>
</g>
<g>
	<circle fill="#FFFFFF" stroke="#BABABA" stroke-miterlimit="10" cx="293.471" cy="148.74" r="6.522"/>
	<text transform="matrix(1 0 0 1 285.7695 161.7825)" fill="#010101" font-family="'MyriadPro-Regular'" font-size="8">bulb</text>
</g>
<g>
	<circle fill="#FFFFFF" stroke="#00FF00" stroke-miterlimit="10" cx="183.032" cy="98.74" r="6.522"/>
	<text transform="matrix(1 0 0 1 175.3306 111.7825)" fill="#010101" font-family="'MyriadPro-Regular'" font-size="8">bulb</text>
</g>
<g>
	<circle fill="#FFFFFF" stroke="#00FF00" stroke-miterlimit="10" cx="159.876" cy="122.74" r="6.522"/>
	<text transform="matrix(1 0 0 1 152.1748 135.7825)" fill="#010101" font-family="'MyriadPro-Regular'" font-size="8">bulb</text>
</g>
<g>
	<circle fill="#FFFFFF" stroke="#BABABA" stroke-miterlimit="10" cx="268.273" cy="122.74" r="6.522"/>
	<text transform="matrix(1 0 0 1 260.5723 135.7825)" fill="#010101" font-family="'MyriadPro-Regular'" font-size="8">bulb</text>
</g>
<g>
	<circle fill="#FFFFFF" stroke="#00FF00" stroke-miterlimit="10" cx="322.473" cy="122.74" r="6.522"/>
	<text transform="matrix(1 0 0 1 314.7715 135.7825)" fill="#010101" font-family="'MyriadPro-Regular'" font-size="8">bulb</text>
</g>
<g>
	<circle fill="#FFFFFF" stroke="#BABABA" stroke-miterlimit="10" cx="238.209" cy="98.74" r="6.522"/>
	<text transform="matrix(1 0 0 1 230.5083 111.7825)" fill="#010101" font-family="'MyriadPro-Regular'" font-size="8">bulb</text>
</g>
<g>
	<circle fill="#FFFFFF" stroke="#00FF00" stroke-miterlimit="10" cx="348.563" cy="98.647" r="6.522"/>
	<text transform="matrix(1 0 0 1 340.8633 111.6897)" fill="#010101" font-family="'MyriadPro-Regular'" font-size="8">bulb</text>
</g>
<g>
	<circle fill="#FFFFFF" stroke="#00FF00" stroke-miterlimit="10" cx="127.854" cy="98.74" r="6.522"/>
	<text transform="matrix(1 0 0 1 120.1533 111.7825)" fill="#010101" font-family="'MyriadPro-Regular'" font-size="8">bulb</text>
</g>
<g>
	<circle fill="#FFFFFF" stroke="#00FF00" stroke-miterlimit="10" cx="293.386" cy="98.74" r="6.522"/>
	<text transform="matrix(1 0 0 1 285.6855 111.7825)" fill="#010101" font-family="'MyriadPro-Regular'" font-size="8">bulb</text>
</g>
<g>
	<circle fill="#FFFFFF" stroke="#BABABA" stroke-miterlimit="10" cx="214.075" cy="122.74" r="6.522"/>
	<text transform="matrix(1 0 0 1 206.3735 135.7825)" fill="#010101" font-family="'MyriadPro-Regular'" font-size="8">bulb</text>
</g>
<g>
	<circle fill="#FFFFFF" stroke="#00FF00" stroke-miterlimit="10" cx="348.639" cy="148.74" r="6.522"/>
	<text transform="matrix(1 0 0 1 340.9375 161.7825)" fill="#010101" font-family="'MyriadPro-Regular'" font-size="8">bulb</text>
</g>
<g>
	<circle fill="#FFFFFF" stroke="#BABABA" stroke-miterlimit="10" cx="159.876" cy="172.74" r="6.522"/>
	<text transform="matrix(1 0 0 1 152.1748 185.7825)" fill="#010101" font-family="'MyriadPro-Regular'" font-size="8">bulb</text>
</g>
<g>
	<circle fill="#FFFFFF" stroke="#BABABA" stroke-miterlimit="10" cx="293.514" cy="198.74" r="6.522"/>
	<text transform="matrix(1 0 0 1 285.8125 211.7825)" fill="#010101" font-family="'MyriadPro-Regular'" font-size="8">bulb</text>
</g>
<g>
	<circle fill="#FFFFFF" stroke="#BABABA" stroke-miterlimit="10" cx="214.074" cy="222.74" r="6.522"/>
	<text transform="matrix(1 0 0 1 206.3735 235.7825)" fill="#010101" font-family="'MyriadPro-Regular'" font-size="8">bulb</text>
</g>
<g>
	<circle fill="#FFFFFF" stroke="#00FF00" stroke-miterlimit="10" cx="127.977" cy="248.74" r="6.522"/>
	<text transform="matrix(1 0 0 1 120.2754 261.7825)" fill="#010101" font-family="'MyriadPro-Regular'" font-size="8">bulb</text>
</g>
<g>
	<circle fill="#FFFFFF" stroke="#BABABA" stroke-miterlimit="10" cx="183.156" cy="248.74" r="6.522"/>
	<text transform="matrix(1 0 0 1 175.4546 261.7825)" fill="#010101" font-family="'MyriadPro-Regular'" font-size="8">bulb</text>
</g>
<g>
	<circle fill="#FFFFFF" stroke="#00FF00" stroke-miterlimit="10" cx="238.334" cy="248.74" r="6.522"/>
	<text transform="matrix(1 0 0 1 230.6333 261.7825)" fill="#010101" font-family="'MyriadPro-Regular'" font-size="8">bulb</text>
</g>
<g>
	<circle fill="#FFFFFF" stroke="#BABABA" stroke-miterlimit="10" cx="348.691" cy="248.74" r="6.522"/>
	<text transform="matrix(1 0 0 1 340.9912 261.7834)" fill="#010101" font-family="'MyriadPro-Regular'" font-size="8">bulb</text>
</g>
<g>
	<circle fill="#FFFFFF" stroke="#00FF00" stroke-miterlimit="10" cx="293.514" cy="248.74" r="6.522"/>
	<text transform="matrix(1 0 0 1 285.8125 261.7825)" fill="#010101" font-family="'MyriadPro-Regular'" font-size="8">bulb</text>
</g>
<g>
	<circle fill="#FFFFFF" stroke="#00FF00" stroke-miterlimit="10" cx="376.672" cy="172.74" r="6.522"/>
	<text transform="matrix(1 0 0 1 368.9707 185.7834)" fill="#010101" font-family="'MyriadPro-Regular'" font-size="8">bulb</text>
</g>
<g>
	<circle fill="#FFFFFF" stroke="#BABABA" stroke-miterlimit="10" cx="376.672" cy="222.74" r="6.522"/>
	<text transform="matrix(1 0 0 1 368.9707 235.7834)" fill="#010101" font-family="'MyriadPro-Regular'" font-size="8">bulb</text>
</g>
<g>
	<circle fill="#FFFFFF" stroke="#00FF00" stroke-miterlimit="10" cx="376.672" cy="122.74" r="6.522"/>
	<text transform="matrix(1 0 0 1 368.9707 135.7825)" fill="#010101" font-family="'MyriadPro-Regular'" font-size="8">bulb</text>
</g>
<g>
	<circle fill="#FFFFFF" stroke="#00FF00" stroke-miterlimit="10" cx="72.798" cy="198.74" r="6.522"/>
	<text transform="matrix(1 0 0 1 65.0967 211.7825)" fill="#010101" font-family="'MyriadPro-Regular'" font-size="8">bulb</text>
</g>
<g>
	<circle fill="#FFFFFF" stroke="#BABABA" stroke-miterlimit="10" cx="105.677" cy="222.74" r="6.522"/>
	<text transform="matrix(1 0 0 1 97.9756 235.7825)" fill="#010101" font-family="'MyriadPro-Regular'" font-size="8">bulb</text>
</g>
<g>
	<circle fill="#FFFFFF" stroke="#00FF00" stroke-miterlimit="10" cx="72.798" cy="148.74" r="6.522"/>
	<text transform="matrix(1 0 0 1 65.0967 161.7825)" fill="#010101" font-family="'MyriadPro-Regular'" font-size="8">bulb</text>
</g>
<g>
	<circle fill="#FFFFFF" stroke="#00FF00" stroke-miterlimit="10" cx="105.677" cy="122.74" r="6.522"/>
	<text transform="matrix(1 0 0 1 97.9756 135.7825)" fill="#010101" font-family="'MyriadPro-Regular'" font-size="8">bulb</text>
</g>
<g>
	<circle fill="#FFFFFF" stroke="#00FF00" stroke-miterlimit="10" cx="72.677" cy="98.74" r="6.522"/>
	<text transform="matrix(1 0 0 1 64.9756 111.7825)" fill="#010101" font-family="'MyriadPro-Regular'" font-size="8">bulb</text>
</g>
<g>
	<circle fill="#FFFFFF" stroke="#00FF00" stroke-miterlimit="10" cx="105.677" cy="172.74" r="6.522"/>
	<text transform="matrix(1 0 0 1 97.9756 185.7825)" fill="#010101" font-family="'MyriadPro-Regular'" font-size="8">bulb</text>
</g>
<g>
	<circle fill="#FFFFFF" stroke="#BABABA" stroke-miterlimit="10" cx="72.798" cy="248.74" r="6.522"/>
	<text transform="matrix(1 0 0 1 65.0967 261.7825)" fill="#010101" font-family="'MyriadPro-Regular'" font-size="8">bulb</text>
</g>
<g>
	<circle fill="#FFFFFF" stroke="#00FF00" stroke-miterlimit="10" cx="403.871" cy="198.74" r="6.522"/>
	<text transform="matrix(1 0 0 1 396.1699 211.7834)" fill="#010101" font-family="'MyriadPro-Regular'" font-size="8">bulb</text>
</g>
<g>
	<circle fill="#FFFFFF" stroke="#00FF00" stroke-miterlimit="10" cx="403.741" cy="98.647" r="6.522"/>
	<text transform="matrix(1 0 0 1 396.041 111.6897)" fill="#010101" font-family="'MyriadPro-Regular'" font-size="8">bulb</text>
</g>
<g>
	<circle fill="#FFFFFF" stroke="#00FF00" stroke-miterlimit="10" cx="403.807" cy="148.74" r="6.522"/>
	<text transform="matrix(1 0 0 1 396.1055 161.7825)" fill="#010101" font-family="'MyriadPro-Regular'" font-size="8">bulb</text>
</g>
<g>
	<circle fill="#FFFFFF" stroke="#BABABA" stroke-miterlimit="10" cx="403.871" cy="248.74" r="6.522"/>
	<text transform="matrix(1 0 0 1 396.1699 261.7834)" fill="#010101" font-family="'MyriadPro-Regular'" font-size="8">bulb</text>
</g>
<g>
	
		<rect x="-0.009" y="218.258" transform="matrix(0.9414 0.3373 -0.3373 0.9414 75.8942 6.2106)" fill="none" stroke="#000000" stroke-miterlimit="10" width="40.166" height="6.522"/>
	<text transform="matrix(0.6748 0 0 1 13.1992 224.262)" font-family="'MyriadPro-Regular'" font-size="6">box</text>
</g>
<g>
	
		<rect x="-0.012" y="268.257" transform="matrix(0.9414 0.3373 -0.3373 0.9414 92.7576 9.1411)" fill="none" stroke="#000000" stroke-miterlimit="10" width="40.166" height="6.522"/>
	<text transform="matrix(0.6748 0 0 1 13.1992 274.262)" font-family="'MyriadPro-Regular'" font-size="6">box</text>
</g>
<g>
	
		<rect x="-0.007" y="168.259" transform="matrix(0.9414 0.3373 -0.3373 0.9414 59.0298 3.2798)" fill="none" stroke="#000000" stroke-miterlimit="10" width="40.166" height="6.522"/>
	<text transform="matrix(0.6748 0 0 1 13.1992 174.262)" font-family="'MyriadPro-Regular'" font-size="6">box</text>
</g>
<g>
	
		<rect x="439.989" y="168.259" transform="matrix(0.938 -0.3467 0.3467 0.938 -30.9304 170.1436)" fill="none" stroke="#000000" stroke-miterlimit="10" width="40.167" height="6.522"/>
	<text transform="matrix(0.6748 0 0 1 453.1992 174.262)" font-family="'MyriadPro-Regular'" font-size="6">box</text>
</g>
<g>
	
		<rect x="439.988" y="218.258" transform="matrix(0.938 -0.3467 0.3467 0.938 -48.2645 173.2404)" fill="none" stroke="#000000" stroke-miterlimit="10" width="40.168" height="6.522"/>
	<text transform="matrix(0.6748 0 0 1 453.1992 224.262)" font-family="'MyriadPro-Regular'" font-size="6">box</text>
</g>
<g>
	
		<rect x="439.988" y="268.257" transform="matrix(0.938 -0.3467 0.3467 0.938 -65.5986 176.3413)" fill="none" stroke="#000000" stroke-miterlimit="10" width="40.168" height="6.522"/>
	<text transform="matrix(0.6748 0 0 1 453.1992 274.262)" font-family="'MyriadPro-Regular'" font-size="6">box</text>
</g>
</svg>
