<?xml version="1.0" encoding="utf-8"?>
<!-- Generator: Adobe Illustrator 16.0.0, SVG Export Plug-In . SVG Version: 6.00 Build 0)  -->
<!DOCTYPE svg PUBLIC "-//W3C//DTD SVG 1.1//EN" "http://www.w3.org/Graphics/SVG/1.1/DTD/svg11.dtd">
<svg version="1.1" id="Layer_1" xmlns="http://www.w3.org/2000/svg" xmlns:xlink="http://www.w3.org/1999/xlink" x="0px" y="0px"
	 width="480px" height="320px" viewBox="0 0 480 320" enable-background="new 0 0 480 320" xml:space="preserve">
<g>
	
		<rect x="-0.004" y="218.259" transform="matrix(-0.9414 -0.3373 0.3373 -0.9414 -35.7397 436.8318)" fill="none" stroke="#010101" stroke-miterlimit="10" width="40.167" height="6.523"/>
	<text transform="matrix(0.6748 0 0 1 13.1992 224.261)" fill="#010101" font-family="'MyriadPro-Regular'" font-size="6">box</text>
</g>
<g>
	
		<rect x="-0.015" y="268.256" transform="matrix(-0.9414 -0.3373 0.3373 -0.9414 -52.6207 533.8934)" fill="none" stroke="#010101" stroke-miterlimit="10" width="40.166" height="6.524"/>
	<text transform="matrix(0.6748 0 0 1 13.1992 274.261)" fill="#010101" font-family="'MyriadPro-Regular'" font-size="6">box</text>
</g>
<g>
	
		<rect x="-0.009" y="168.258" transform="matrix(-0.9414 -0.3373 0.3373 -0.9414 -18.8794 339.7595)" fill="none" stroke="#010101" stroke-miterlimit="10" width="40.167" height="6.524"/>
	<text transform="matrix(0.6748 0 0 1 13.1992 174.262)" fill="#010101" font-family="'MyriadPro-Regular'" font-size="6">box</text>
</g>
<g>
	
		<rect x="440" y="168.27" transform="matrix(-0.938 0.3467 -0.3467 -0.938 951.1019 172.9238)" fill="none" stroke="#010101" stroke-miterlimit="10" width="40.169" height="6.525"/>
	<text transform="matrix(0.6748 0 0 1 453.1992 174.262)" fill="#010101" font-family="'MyriadPro-Regular'" font-size="6">box</text>
</g>
<g>
	
		<rect x="439.997" y="218.266" transform="matrix(-0.938 0.3467 -0.3467 -0.938 968.4312 269.814)" fill="none" stroke="#010101" stroke-miterlimit="10" width="40.171" height="6.525"/>
	<text transform="matrix(0.6748 0 0 1 453.1992 224.261)" fill="#010101" font-family="'MyriadPro-Regular'" font-size="6">box</text>
</g>
<g>
	
		<rect x="439.998" y="268.259" transform="matrix(-0.938 0.3467 -0.3467 -0.938 985.7678 366.6887)" fill="none" stroke="#010101" stroke-miterlimit="10" width="40.172" height="6.522"/>
	<text transform="matrix(0.6748 0 0 1 453.1992 274.261)" fill="#010101" font-family="'MyriadPro-Regular'" font-size="6">box</text>
</g>
<g>
	<rect x="53.34" y="248.379" fill="#FFFFFF" stroke="#000000" stroke-miterlimit="10" width="8" height="35.979"/>
	<text transform="matrix(-0.0117 0.9999 -0.9999 -0.0117 55.5815 200.9075)" font-family="'MyriadPro-Regular'" font-size="12">moving box</text>
	<circle fill="#FFFFFF" stroke="#00FF00" stroke-miterlimit="10" cx="57.34" cy="289.781" r="5.5"/>
	<circle fill="#FFFFFF" stroke="#FF0000" stroke-miterlimit="10" cx="57.34" cy="53.328" r="5.5"/>
</g>
<g>
	<rect x="426.34" y="58.379" fill="#FFFFFF" stroke="#000000" stroke-miterlimit="10" width="8" height="35.979"/>
	<text transform="matrix(1 0 0 1 392.5137 41.7058)" font-family="'MyriadPro-Regular'" font-size="12">moving box</text>
	<circle fill="#FFFFFF" stroke="#00FF00" stroke-miterlimit="10" cx="430.34" cy="289.781" r="5.5"/>
	<circle fill="#FFFFFF" stroke="#FF0000" stroke-miterlimit="10" cx="430.34" cy="53.328" r="5.5"/>
</g>
<g>
	<rect x="85.167" y="169.262" fill="#FFFFFF" stroke="#000000" stroke-miterlimit="10" width="68.479" height="8"/>
	<text transform="matrix(1 0 0 1 88.647 176.762)" font-family="'MyriadPro-Regular'" font-size="12">moving box</text>
	<circle fill="#FFFFFF" stroke="#00FF00" stroke-miterlimit="10" cx="78.163" cy="174.262" r="5.5"/>
	<circle fill="#FFFFFF" stroke="#FF0000" stroke-miterlimit="10" cx="418.162" cy="174.262" r="5.5"/>
</g>
<rect x="413.693" y="187.001" fill="none" width="14.044" height="14.044"/>
<g>
	<circle fill="none" stroke="#FF0000" stroke-miterlimit="10" cx="420.715" cy="194.024" r="6.522"/>
	<text transform="matrix(1 0 0 1 417.0156 194.8176)" font-family="'MyriadPro-Regular'" font-size="4">bulb</text>
</g>
<rect x="399.649" y="187.001" fill="none" width="14.044" height="14.044"/>
<g>
	<circle fill="none" stroke="#FF0000" stroke-miterlimit="10" cx="406.671" cy="194.024" r="6.522"/>
	<text transform="matrix(1 0 0 1 402.9717 194.8176)" font-family="'MyriadPro-Regular'" font-size="4">bulb</text>
</g>
<rect x="385.605" y="187.001" fill="none" width="14.044" height="14.044"/>
<g>
	<circle fill="none" stroke="#FF0000" stroke-miterlimit="10" cx="392.627" cy="194.024" r="6.522"/>
	<text transform="matrix(1 0 0 1 388.9277 194.8176)" font-family="'MyriadPro-Regular'" font-size="4">bulb</text>
</g>
<rect x="371.562" y="187.001" fill="none" width="14.044" height="14.044"/>
<g>
	<circle fill="none" stroke="#FF0000" stroke-miterlimit="10" cx="378.583" cy="194.024" r="6.522"/>
	<text transform="matrix(1 0 0 1 374.8838 194.8176)" font-family="'MyriadPro-Regular'" font-size="4">bulb</text>
</g>
<rect x="357.518" y="187.001" fill="none" width="14.044" height="14.044"/>
<g>
	<circle fill="none" stroke="#FF0000" stroke-miterlimit="10" cx="364.54" cy="194.024" r="6.522"/>
	<text transform="matrix(1 0 0 1 360.8398 194.8176)" font-family="'MyriadPro-Regular'" font-size="4">bulb</text>
</g>
<rect x="343.474" y="187.001" fill="none" width="14.044" height="14.044"/>
<g>
	<circle fill="none" stroke="#FF0000" stroke-miterlimit="10" cx="350.496" cy="194.024" r="6.522"/>
	<text transform="matrix(1 0 0 1 346.7959 194.8176)" font-family="'MyriadPro-Regular'" font-size="4">bulb</text>
</g>
<rect x="329.43" y="187.001" fill="none" width="14.044" height="14.044"/>
<g>
	<circle fill="none" stroke="#FF0000" stroke-miterlimit="10" cx="336.452" cy="194.024" r="6.522"/>
	<text transform="matrix(1 0 0 1 332.752 194.8176)" font-family="'MyriadPro-Regular'" font-size="4">bulb</text>
</g>
<rect x="315.386" y="187.001" fill="none" width="14.044" height="14.044"/>
<g>
	<circle fill="none" stroke="#FF0000" stroke-miterlimit="10" cx="322.408" cy="194.024" r="6.522"/>
	<text transform="matrix(1 0 0 1 318.708 194.8176)" font-family="'MyriadPro-Regular'" font-size="4">bulb</text>
</g>
<rect x="301.342" y="187.001" fill="none" width="14.044" height="14.044"/>
<g>
	<circle fill="none" stroke="#FF0000" stroke-miterlimit="10" cx="308.364" cy="194.024" r="6.522"/>
	<text transform="matrix(1 0 0 1 304.6641 194.8176)" font-family="'MyriadPro-Regular'" font-size="4">bulb</text>
</g>
<rect x="287.298" y="187.001" fill="none" width="14.044" height="14.044"/>
<g>
	<circle fill="none" stroke="#FF0000" stroke-miterlimit="10" cx="294.32" cy="194.024" r="6.522"/>
	<text transform="matrix(1 0 0 1 290.6201 194.8176)" font-family="'MyriadPro-Regular'" font-size="4">bulb</text>
</g>
<rect x="273.254" y="187.001" fill="none" width="14.044" height="14.044"/>
<g>
	<circle fill="none" stroke="#FF0000" stroke-miterlimit="10" cx="280.276" cy="194.024" r="6.522"/>
	<text transform="matrix(1 0 0 1 276.5762 194.8176)" font-family="'MyriadPro-Regular'" font-size="4">bulb</text>
</g>
<rect x="259.21" y="217.001" fill="none" width="14.044" height="14.044"/>
<g>
	<circle fill="none" stroke="#FF0000" stroke-miterlimit="10" cx="266.232" cy="224.024" r="6.522"/>
	<text transform="matrix(1 0 0 1 262.5322 224.8176)" font-family="'MyriadPro-Regular'" font-size="4">bulb</text>
</g>
<rect x="245.166" y="217" fill="none" width="14.044" height="14.044"/>
<g>
	<circle fill="none" stroke="#FF0000" stroke-miterlimit="10" cx="252.188" cy="224.023" r="6.522"/>
	<text transform="matrix(1 0 0 1 248.4883 224.8167)" font-family="'MyriadPro-Regular'" font-size="4">bulb</text>
</g>
<rect x="231.122" y="217" fill="none" width="14.044" height="14.044"/>
<g>
	<circle fill="none" stroke="#FF0000" stroke-miterlimit="10" cx="238.144" cy="224.023" r="6.522"/>
	<text transform="matrix(1 0 0 1 234.4443 224.8167)" font-family="'MyriadPro-Regular'" font-size="4">bulb</text>
</g>
<rect x="217.078" y="187" fill="none" width="14.044" height="14.044"/>
<g>
	<circle fill="none" stroke="#FF0000" stroke-miterlimit="10" cx="224.1" cy="194.023" r="6.522"/>
	<text transform="matrix(1 0 0 1 220.4004 194.8167)" font-family="'MyriadPro-Regular'" font-size="4">bulb</text>
</g>
<rect x="203.034" y="187" fill="none" width="14.044" height="14.044"/>
<g>
	<circle fill="none" stroke="#FF0000" stroke-miterlimit="10" cx="210.056" cy="194.023" r="6.522"/>
	<text transform="matrix(1 0 0 1 206.3564 194.8167)" font-family="'MyriadPro-Regular'" font-size="4">bulb</text>
</g>
<rect x="188.99" y="187" fill="none" width="14.044" height="14.044"/>
<g>
	<circle fill="none" stroke="#FF0000" stroke-miterlimit="10" cx="196.012" cy="194.023" r="6.522"/>
	<text transform="matrix(1 0 0 1 192.3125 194.8167)" font-family="'MyriadPro-Regular'" font-size="4">bulb</text>
</g>
<rect x="174.946" y="187" fill="none" width="14.044" height="14.044"/>
<g>
	<circle fill="none" stroke="#FF0000" stroke-miterlimit="10" cx="181.968" cy="194.023" r="6.522"/>
	<text transform="matrix(1 0 0 1 178.2686 194.8167)" font-family="'MyriadPro-Regular'" font-size="4">bulb</text>
</g>
<rect x="160.902" y="187" fill="none" width="14.044" height="14.044"/>
<g>
	<circle fill="none" stroke="#FF0000" stroke-miterlimit="10" cx="167.924" cy="194.023" r="6.522"/>
	<text transform="matrix(1 0 0 1 164.2246 194.8167)" font-family="'MyriadPro-Regular'" font-size="4">bulb</text>
</g>
<rect x="146.858" y="187" fill="none" width="14.044" height="14.044"/>
<g>
	<circle fill="none" stroke="#FF0000" stroke-miterlimit="10" cx="153.88" cy="194.023" r="6.522"/>
	<text transform="matrix(1 0 0 1 150.1807 194.8167)" font-family="'MyriadPro-Regular'" font-size="4">bulb</text>
</g>
<rect x="132.814" y="187" fill="none" width="14.044" height="14.044"/>
<g>
	<circle fill="none" stroke="#FF0000" stroke-miterlimit="10" cx="139.836" cy="194.023" r="6.522"/>
	<text transform="matrix(1 0 0 1 136.1367 194.8167)" font-family="'MyriadPro-Regular'" font-size="4">bulb</text>
</g>
<rect x="118.771" y="187" fill="none" width="14.044" height="14.044"/>
<g>
	<circle fill="none" stroke="#FF0000" stroke-miterlimit="10" cx="125.792" cy="194.023" r="6.522"/>
	<text transform="matrix(1 0 0 1 122.0928 194.8167)" font-family="'MyriadPro-Regular'" font-size="4">bulb</text>
</g>
<rect x="104.727" y="187" fill="none" width="14.044" height="14.044"/>
<g>
	<circle fill="none" stroke="#FF0000" stroke-miterlimit="10" cx="111.749" cy="194.023" r="6.522"/>
	<text transform="matrix(1 0 0 1 108.0488 194.8167)" font-family="'MyriadPro-Regular'" font-size="4">bulb</text>
</g>
<rect x="90.683" y="187" fill="none" width="14.044" height="14.044"/>
<g>
	<circle fill="none" stroke="#FF0000" stroke-miterlimit="10" cx="97.705" cy="194.023" r="6.522"/>
	<text transform="matrix(1 0 0 1 94.0049 194.8167)" font-family="'MyriadPro-Regular'" font-size="4">bulb</text>
</g>
<rect x="76.639" y="187" fill="none" width="14.044" height="14.044"/>
<g>
	<circle fill="none" stroke="#FF0000" stroke-miterlimit="10" cx="83.661" cy="194.023" r="6.522"/>
	<text transform="matrix(1 0 0 1 79.9609 194.8167)" font-family="'MyriadPro-Regular'" font-size="4">bulb</text>
</g>
<g>
	<rect x="345.167" y="237.262" fill="#FFFFFF" stroke="#000000" stroke-miterlimit="10" width="68.479" height="8"/>
	<text transform="matrix(1 0 0 1 348.6465 244.762)" font-family="'MyriadPro-Regular'" font-size="12">moving box</text>
	<circle fill="#FFFFFF" stroke="#00FF00" stroke-miterlimit="10" cx="78.163" cy="241.262" r="5.5"/>
	<circle fill="#FFFFFF" stroke="#FF0000" stroke-miterlimit="10" cx="418.162" cy="241.262" r="5.5"/>
</g>
<rect x="413.693" y="217.001" fill="none" width="14.044" height="14.044"/>
<g>
	<circle fill="none" stroke="#00FF00" stroke-miterlimit="10" cx="420.715" cy="224.024" r="6.522"/>
	<text transform="matrix(1 0 0 1 415.7656 226.8176)" font-family="'MyriadPro-Regular'" font-size="5">bulb</text>
</g>
<rect x="399.649" y="217.001" fill="none" width="14.044" height="14.044"/>
<g>
	<circle fill="none" stroke="#00FF00" stroke-miterlimit="10" cx="406.671" cy="224.024" r="6.522"/>
	<text transform="matrix(1 0 0 1 401.7217 226.8176)" font-family="'MyriadPro-Regular'" font-size="5">bulb</text>
</g>
<rect x="385.605" y="217.001" fill="none" width="14.044" height="14.044"/>
<g>
	<circle fill="none" stroke="#00FF00" stroke-miterlimit="10" cx="392.627" cy="224.024" r="6.522"/>
	<text transform="matrix(1 0 0 1 387.6777 226.8176)" font-family="'MyriadPro-Regular'" font-size="5">bulb</text>
</g>
<rect x="371.562" y="217.001" fill="none" width="14.044" height="14.044"/>
<g>
	<circle fill="none" stroke="#00FF00" stroke-miterlimit="10" cx="378.583" cy="224.024" r="6.522"/>
	<text transform="matrix(1 0 0 1 373.6338 226.8176)" font-family="'MyriadPro-Regular'" font-size="5">bulb</text>
</g>
<rect x="357.518" y="217.001" fill="none" width="14.044" height="14.044"/>
<g>
	<circle fill="none" stroke="#00FF00" stroke-miterlimit="10" cx="364.54" cy="224.024" r="6.522"/>
	<text transform="matrix(1 0 0 1 359.5898 226.8176)" font-family="'MyriadPro-Regular'" font-size="5">bulb</text>
</g>
<rect x="343.474" y="217.001" fill="none" width="14.044" height="14.044"/>
<g>
	<circle fill="none" stroke="#00FF00" stroke-miterlimit="10" cx="350.496" cy="224.024" r="6.522"/>
	<text transform="matrix(1 0 0 1 345.5459 226.8176)" font-family="'MyriadPro-Regular'" font-size="5">bulb</text>
</g>
<rect x="329.43" y="217.001" fill="none" width="14.044" height="14.044"/>
<g>
	<circle fill="none" stroke="#00FF00" stroke-miterlimit="10" cx="336.452" cy="224.024" r="6.522"/>
	<text transform="matrix(1 0 0 1 331.502 226.8176)" font-family="'MyriadPro-Regular'" font-size="5">bulb</text>
</g>
<rect x="315.386" y="217.001" fill="none" width="14.044" height="14.044"/>
<g>
	<circle fill="none" stroke="#00FF00" stroke-miterlimit="10" cx="322.408" cy="224.024" r="6.522"/>
	<text transform="matrix(1 0 0 1 317.458 226.8176)" font-family="'MyriadPro-Regular'" font-size="5">bulb</text>
</g>
<rect x="301.342" y="217.001" fill="none" width="14.044" height="14.044"/>
<g>
	<circle fill="none" stroke="#00FF00" stroke-miterlimit="10" cx="308.364" cy="224.024" r="6.522"/>
	<text transform="matrix(1 0 0 1 303.4141 226.8176)" font-family="'MyriadPro-Regular'" font-size="5">bulb</text>
</g>
<rect x="287.298" y="217.001" fill="none" width="14.044" height="14.044"/>
<g>
	<circle fill="none" stroke="#00FF00" stroke-miterlimit="10" cx="294.32" cy="224.024" r="6.522"/>
	<text transform="matrix(1 0 0 1 289.3701 226.8176)" font-family="'MyriadPro-Regular'" font-size="5">bulb</text>
</g>
<rect x="273.254" y="217.001" fill="none" width="14.044" height="14.044"/>
<g>
	<circle fill="none" stroke="#00FF00" stroke-miterlimit="10" cx="280.276" cy="224.024" r="6.522"/>
	<text transform="matrix(1 0 0 1 275.3262 226.8176)" font-family="'MyriadPro-Regular'" font-size="5">bulb</text>
</g>
<rect x="259.21" y="187.001" fill="none" width="14.044" height="14.044"/>
<g>
	<circle fill="none" stroke="#00FF00" stroke-miterlimit="10" cx="266.232" cy="194.024" r="6.522"/>
	<text transform="matrix(1 0 0 1 261.2822 196.8176)" font-family="'MyriadPro-Regular'" font-size="5">bulb</text>
</g>
<rect x="245.166" y="187" fill="none" width="14.044" height="14.044"/>
<g>
	<circle fill="none" stroke="#00FF00" stroke-miterlimit="10" cx="252.188" cy="194.023" r="6.522"/>
	<text transform="matrix(1 0 0 1 247.2383 196.8167)" font-family="'MyriadPro-Regular'" font-size="5">bulb</text>
</g>
<rect x="231.122" y="187" fill="none" width="14.044" height="14.044"/>
<g>
	<circle fill="none" stroke="#00FF00" stroke-miterlimit="10" cx="238.144" cy="194.023" r="6.522"/>
	<text transform="matrix(1 0 0 1 233.1943 196.8167)" font-family="'MyriadPro-Regular'" font-size="5">bulb</text>
</g>
<rect x="217.078" y="217" fill="none" width="14.044" height="14.044"/>
<g>
	<circle fill="none" stroke="#00FF00" stroke-miterlimit="10" cx="224.1" cy="224.023" r="6.522"/>
	<text transform="matrix(1 0 0 1 219.1504 226.8167)" font-family="'MyriadPro-Regular'" font-size="5">bulb</text>
</g>
<rect x="203.034" y="217" fill="none" width="14.044" height="14.044"/>
<g>
	<circle fill="none" stroke="#00FF00" stroke-miterlimit="10" cx="210.056" cy="224.023" r="6.522"/>
	<text transform="matrix(1 0 0 1 205.1064 226.8167)" font-family="'MyriadPro-Regular'" font-size="5">bulb</text>
</g>
<rect x="188.99" y="217" fill="none" width="14.044" height="14.044"/>
<g>
	<circle fill="none" stroke="#00FF00" stroke-miterlimit="10" cx="196.012" cy="224.023" r="6.522"/>
	<text transform="matrix(1 0 0 1 191.0625 226.8167)" font-family="'MyriadPro-Regular'" font-size="5">bulb</text>
</g>
<rect x="174.946" y="217" fill="none" width="14.044" height="14.044"/>
<g>
	<circle fill="none" stroke="#00FF00" stroke-miterlimit="10" cx="181.968" cy="224.023" r="6.522"/>
	<text transform="matrix(1 0 0 1 177.0186 226.8167)" font-family="'MyriadPro-Regular'" font-size="5">bulb</text>
</g>
<rect x="160.902" y="217" fill="none" width="14.044" height="14.044"/>
<g>
	<circle fill="none" stroke="#00FF00" stroke-miterlimit="10" cx="167.924" cy="224.023" r="6.522"/>
	<text transform="matrix(1 0 0 1 162.9746 226.8167)" font-family="'MyriadPro-Regular'" font-size="5">bulb</text>
</g>
<rect x="146.858" y="217" fill="none" width="14.044" height="14.044"/>
<g>
	<circle fill="none" stroke="#00FF00" stroke-miterlimit="10" cx="153.88" cy="224.023" r="6.522"/>
	<text transform="matrix(1 0 0 1 148.9307 226.8167)" font-family="'MyriadPro-Regular'" font-size="5">bulb</text>
</g>
<rect x="132.814" y="217" fill="none" width="14.044" height="14.044"/>
<g>
	<circle fill="none" stroke="#00FF00" stroke-miterlimit="10" cx="139.836" cy="224.023" r="6.522"/>
	<text transform="matrix(1 0 0 1 134.8867 226.8167)" font-family="'MyriadPro-Regular'" font-size="5">bulb</text>
</g>
<rect x="118.771" y="217" fill="none" width="14.044" height="14.044"/>
<g>
	<circle fill="none" stroke="#00FF00" stroke-miterlimit="10" cx="125.792" cy="224.023" r="6.522"/>
	<text transform="matrix(1 0 0 1 120.8428 226.8167)" font-family="'MyriadPro-Regular'" font-size="5">bulb</text>
</g>
<rect x="104.727" y="217" fill="none" width="14.044" height="14.044"/>
<g>
	<circle fill="none" stroke="#00FF00" stroke-miterlimit="10" cx="111.749" cy="224.023" r="6.522"/>
	<text transform="matrix(1 0 0 1 106.7988 226.8167)" font-family="'MyriadPro-Regular'" font-size="5">bulb</text>
</g>
<rect x="90.683" y="217" fill="none" width="14.044" height="14.044"/>
<g>
	<circle fill="none" stroke="#00FF00" stroke-miterlimit="10" cx="97.705" cy="224.023" r="6.522"/>
	<text transform="matrix(1 0 0 1 92.7549 226.8167)" font-family="'MyriadPro-Regular'" font-size="5">bulb</text>
</g>
<rect x="76.639" y="217" fill="none" width="14.044" height="14.044"/>
<g>
	<circle fill="none" stroke="#00FF00" stroke-miterlimit="10" cx="83.661" cy="224.023" r="6.522"/>
	<text transform="matrix(1 0 0 1 78.7109 226.8167)" font-family="'MyriadPro-Regular'" font-size="5">bulb</text>
</g>
<rect x="413.693" y="108.144" fill="none" width="14.044" height="14.044"/>
<g>
	<circle fill="none" stroke="#BABABA" stroke-miterlimit="10" cx="420.715" cy="115.166" r="6.522"/>
	<text transform="matrix(1 0 0 1 417.0137 116.8098)" font-family="'MyriadPro-Regular'" font-size="4">bulb</text>
</g>
<rect x="399.649" y="108.144" fill="none" width="14.044" height="14.044"/>
<g>
	<circle fill="none" stroke="#BABABA" stroke-miterlimit="10" cx="406.671" cy="115.166" r="6.522"/>
	<text transform="matrix(1 0 0 1 402.9697 116.8098)" font-family="'MyriadPro-Regular'" font-size="4">bulb</text>
</g>
<rect x="385.605" y="108.144" fill="none" width="14.044" height="14.044"/>
<g>
	<circle fill="none" stroke="#BABABA" stroke-miterlimit="10" cx="392.627" cy="115.166" r="6.522"/>
	<text transform="matrix(1 0 0 1 388.9258 116.8098)" font-family="'MyriadPro-Regular'" font-size="4">bulb</text>
</g>
<rect x="371.562" y="108.144" fill="none" width="14.044" height="14.044"/>
<g>
	<circle fill="none" stroke="#BABABA" stroke-miterlimit="10" cx="378.583" cy="115.166" r="6.522"/>
	<text transform="matrix(1 0 0 1 374.8818 116.8098)" font-family="'MyriadPro-Regular'" font-size="4">bulb</text>
</g>
<rect x="357.518" y="108.144" fill="none" width="14.044" height="14.044"/>
<g>
	<circle fill="none" stroke="#BABABA" stroke-miterlimit="10" cx="364.54" cy="115.166" r="6.522"/>
	<text transform="matrix(1 0 0 1 360.8379 116.8098)" font-family="'MyriadPro-Regular'" font-size="4">bulb</text>
</g>
<rect x="343.474" y="108.144" fill="none" width="14.044" height="14.044"/>
<g>
	<circle fill="none" stroke="#BABABA" stroke-miterlimit="10" cx="350.496" cy="115.166" r="6.522"/>
	<text transform="matrix(1 0 0 1 346.7939 116.8098)" font-family="'MyriadPro-Regular'" font-size="4">bulb</text>
</g>
<rect x="329.43" y="108.144" fill="none" width="14.044" height="14.044"/>
<g>
	<circle fill="none" stroke="#BABABA" stroke-miterlimit="10" cx="336.452" cy="115.166" r="6.522"/>
	<text transform="matrix(1 0 0 1 332.75 116.8098)" font-family="'MyriadPro-Regular'" font-size="4">bulb</text>
</g>
<rect x="315.386" y="108.144" fill="none" width="14.044" height="14.044"/>
<g>
	<circle fill="none" stroke="#BABABA" stroke-miterlimit="10" cx="322.408" cy="115.166" r="6.522"/>
	<text transform="matrix(1 0 0 1 318.7061 116.8098)" font-family="'MyriadPro-Regular'" font-size="4">bulb</text>
</g>
<rect x="301.342" y="108.144" fill="none" width="14.044" height="14.044"/>
<g>
	<circle fill="none" stroke="#BABABA" stroke-miterlimit="10" cx="308.364" cy="115.166" r="6.522"/>
	<text transform="matrix(1 0 0 1 304.6621 116.8098)" font-family="'MyriadPro-Regular'" font-size="4">bulb</text>
</g>
<rect x="287.298" y="108.144" fill="none" width="14.044" height="14.044"/>
<g>
	<circle fill="none" stroke="#BABABA" stroke-miterlimit="10" cx="294.32" cy="115.166" r="6.522"/>
	<text transform="matrix(1 0 0 1 290.6182 116.8098)" font-family="'MyriadPro-Regular'" font-size="4">bulb</text>
</g>
<rect x="273.254" y="138.144" fill="none" width="14.044" height="14.044"/>
<g>
	<circle fill="none" stroke="#BABABA" stroke-miterlimit="10" cx="280.276" cy="145.166" r="6.522"/>
	<text transform="matrix(1 0 0 1 276.5742 146.8098)" font-family="'MyriadPro-Regular'" font-size="4">bulb</text>
</g>
<rect x="259.21" y="138.144" fill="none" width="14.044" height="14.044"/>
<g>
	<circle fill="none" stroke="#BABABA" stroke-miterlimit="10" cx="266.232" cy="145.166" r="6.522"/>
	<text transform="matrix(1 0 0 1 262.5303 146.8098)" font-family="'MyriadPro-Regular'" font-size="4">bulb</text>
</g>
<rect x="245.166" y="138.144" fill="none" width="14.044" height="14.044"/>
<g>
	<circle fill="none" stroke="#BABABA" stroke-miterlimit="10" cx="252.188" cy="145.166" r="6.522"/>
	<text transform="matrix(1 0 0 1 248.4863 146.8098)" font-family="'MyriadPro-Regular'" font-size="4">bulb</text>
</g>
<rect x="231.122" y="108.144" fill="none" width="14.044" height="14.044"/>
<g>
	<circle fill="none" stroke="#BABABA" stroke-miterlimit="10" cx="238.144" cy="115.166" r="6.522"/>
	<text transform="matrix(1 0 0 1 234.4424 116.8098)" font-family="'MyriadPro-Regular'" font-size="4">bulb</text>
</g>
<rect x="217.078" y="108.144" fill="none" width="14.044" height="14.044"/>
<g>
	<circle fill="none" stroke="#BABABA" stroke-miterlimit="10" cx="224.1" cy="115.166" r="6.522"/>
	<text transform="matrix(1 0 0 1 220.3984 116.8098)" font-family="'MyriadPro-Regular'" font-size="4">bulb</text>
</g>
<rect x="203.034" y="108.144" fill="none" width="14.044" height="14.044"/>
<g>
	<circle fill="none" stroke="#BABABA" stroke-miterlimit="10" cx="210.056" cy="115.166" r="6.522"/>
	<text transform="matrix(1 0 0 1 206.3545 116.8098)" font-family="'MyriadPro-Regular'" font-size="4">bulb</text>
</g>
<rect x="188.99" y="108.144" fill="none" width="14.044" height="14.044"/>
<g>
	<circle fill="none" stroke="#BABABA" stroke-miterlimit="10" cx="196.012" cy="115.166" r="6.522"/>
	<text transform="matrix(1 0 0 1 192.3105 116.8098)" font-family="'MyriadPro-Regular'" font-size="4">bulb</text>
</g>
<rect x="174.946" y="108.144" fill="none" width="14.044" height="14.044"/>
<g>
	<circle fill="none" stroke="#BABABA" stroke-miterlimit="10" cx="181.968" cy="115.166" r="6.522"/>
	<text transform="matrix(1 0 0 1 178.2666 116.8098)" font-family="'MyriadPro-Regular'" font-size="4">bulb</text>
</g>
<rect x="160.902" y="108.144" fill="none" width="14.044" height="14.044"/>
<g>
	<circle fill="none" stroke="#BABABA" stroke-miterlimit="10" cx="167.924" cy="115.166" r="6.522"/>
	<text transform="matrix(1 0 0 1 164.2227 116.8098)" font-family="'MyriadPro-Regular'" font-size="4">bulb</text>
</g>
<rect x="146.858" y="108.144" fill="none" width="14.044" height="14.044"/>
<g>
	<circle fill="none" stroke="#BABABA" stroke-miterlimit="10" cx="153.88" cy="115.166" r="6.522"/>
	<text transform="matrix(1 0 0 1 150.1787 116.8098)" font-family="'MyriadPro-Regular'" font-size="4">bulb</text>
</g>
<rect x="132.814" y="108.144" fill="none" width="14.044" height="14.044"/>
<g>
	<circle fill="none" stroke="#BABABA" stroke-miterlimit="10" cx="139.836" cy="115.166" r="6.522"/>
	<text transform="matrix(1 0 0 1 136.1348 116.8098)" font-family="'MyriadPro-Regular'" font-size="4">bulb</text>
</g>
<rect x="118.771" y="108.144" fill="none" width="14.044" height="14.044"/>
<g>
	<circle fill="none" stroke="#BABABA" stroke-miterlimit="10" cx="125.792" cy="115.166" r="6.522"/>
	<text transform="matrix(1 0 0 1 122.0908 116.8098)" font-family="'MyriadPro-Regular'" font-size="4">bulb</text>
</g>
<rect x="104.727" y="108.144" fill="none" width="14.044" height="14.044"/>
<g>
	<circle fill="none" stroke="#BABABA" stroke-miterlimit="10" cx="111.749" cy="115.166" r="6.522"/>
	<text transform="matrix(1 0 0 1 108.0469 116.8098)" font-family="'MyriadPro-Regular'" font-size="4">bulb</text>
</g>
<rect x="90.683" y="108.144" fill="none" width="14.044" height="14.044"/>
<g>
	<circle fill="none" stroke="#BABABA" stroke-miterlimit="10" cx="97.705" cy="115.166" r="6.522"/>
	<text transform="matrix(1 0 0 1 94.0029 116.8098)" font-family="'MyriadPro-Regular'" font-size="4">bulb</text>
</g>
<rect x="76.639" y="108.144" fill="none" width="14.044" height="14.044"/>
<g>
	<circle fill="none" stroke="#BABABA" stroke-miterlimit="10" cx="83.661" cy="115.166" r="6.522"/>
	<text transform="matrix(1 0 0 1 79.959 116.8098)" font-family="'MyriadPro-Regular'" font-size="4">bulb</text>
</g>
<rect x="413.693" y="138.144" fill="none" width="14.044" height="14.044"/>
<g>
	<circle fill="none" stroke="#00FF00" stroke-miterlimit="10" cx="420.715" cy="145.166" r="6.522"/>
	<text transform="matrix(1 0 0 1 415.7656 147.9602)" font-family="'MyriadPro-Regular'" font-size="5">bulb</text>
</g>
<rect x="399.649" y="138.144" fill="none" width="14.044" height="14.044"/>
<g>
	<circle fill="none" stroke="#00FF00" stroke-miterlimit="10" cx="406.671" cy="145.166" r="6.522"/>
	<text transform="matrix(1 0 0 1 401.7217 147.9602)" font-family="'MyriadPro-Regular'" font-size="5">bulb</text>
</g>
<rect x="385.605" y="138.144" fill="none" width="14.044" height="14.044"/>
<g>
	<circle fill="none" stroke="#00FF00" stroke-miterlimit="10" cx="392.627" cy="145.166" r="6.522"/>
	<text transform="matrix(1 0 0 1 387.6777 147.9602)" font-family="'MyriadPro-Regular'" font-size="5">bulb</text>
</g>
<rect x="371.562" y="138.144" fill="none" width="14.044" height="14.044"/>
<g>
	<circle fill="none" stroke="#00FF00" stroke-miterlimit="10" cx="378.583" cy="145.166" r="6.522"/>
	<text transform="matrix(1 0 0 1 373.6338 147.9602)" font-family="'MyriadPro-Regular'" font-size="5">bulb</text>
</g>
<rect x="357.518" y="138.144" fill="none" width="14.044" height="14.044"/>
<g>
	<circle fill="none" stroke="#00FF00" stroke-miterlimit="10" cx="364.54" cy="145.166" r="6.522"/>
	<text transform="matrix(1 0 0 1 359.5898 147.9602)" font-family="'MyriadPro-Regular'" font-size="5">bulb</text>
</g>
<rect x="343.474" y="138.144" fill="none" width="14.044" height="14.044"/>
<g>
	<circle fill="none" stroke="#00FF00" stroke-miterlimit="10" cx="350.496" cy="145.166" r="6.522"/>
	<text transform="matrix(1 0 0 1 345.5459 147.9602)" font-family="'MyriadPro-Regular'" font-size="5">bulb</text>
</g>
<rect x="329.43" y="138.144" fill="none" width="14.044" height="14.044"/>
<g>
	<circle fill="none" stroke="#00FF00" stroke-miterlimit="10" cx="336.452" cy="145.166" r="6.522"/>
	<text transform="matrix(1 0 0 1 331.502 147.9602)" font-family="'MyriadPro-Regular'" font-size="5">bulb</text>
</g>
<rect x="315.386" y="138.144" fill="none" width="14.044" height="14.044"/>
<g>
	<circle fill="none" stroke="#00FF00" stroke-miterlimit="10" cx="322.408" cy="145.166" r="6.522"/>
	<text transform="matrix(1 0 0 1 317.458 147.9602)" font-family="'MyriadPro-Regular'" font-size="5">bulb</text>
</g>
<rect x="301.342" y="138.144" fill="none" width="14.044" height="14.044"/>
<g>
	<circle fill="none" stroke="#00FF00" stroke-miterlimit="10" cx="308.364" cy="145.166" r="6.522"/>
	<text transform="matrix(1 0 0 1 303.4141 147.9602)" font-family="'MyriadPro-Regular'" font-size="5">bulb</text>
</g>
<rect x="287.298" y="138.144" fill="none" width="14.044" height="14.044"/>
<g>
	<circle fill="none" stroke="#00FF00" stroke-miterlimit="10" cx="294.32" cy="145.166" r="6.522"/>
	<text transform="matrix(1 0 0 1 289.3701 147.9602)" font-family="'MyriadPro-Regular'" font-size="5">bulb</text>
</g>
<rect x="273.254" y="108.144" fill="none" width="14.044" height="14.044"/>
<g>
	<circle fill="none" stroke="#00FF00" stroke-miterlimit="10" cx="280.276" cy="115.166" r="6.522"/>
	<text transform="matrix(1 0 0 1 275.3262 117.9602)" font-family="'MyriadPro-Regular'" font-size="5">bulb</text>
</g>
<rect x="259.21" y="108.144" fill="none" width="14.044" height="14.044"/>
<g>
	<circle fill="none" stroke="#00FF00" stroke-miterlimit="10" cx="266.232" cy="115.166" r="6.522"/>
	<text transform="matrix(1 0 0 1 261.2822 117.9602)" font-family="'MyriadPro-Regular'" font-size="5">bulb</text>
</g>
<rect x="245.166" y="108.144" fill="none" width="14.044" height="14.044"/>
<g>
	<circle fill="none" stroke="#00FF00" stroke-miterlimit="10" cx="252.188" cy="115.166" r="6.522"/>
	<text transform="matrix(1 0 0 1 247.2383 117.9602)" font-family="'MyriadPro-Regular'" font-size="5">bulb</text>
</g>
<rect x="231.122" y="138.144" fill="none" width="14.044" height="14.044"/>
<g>
	<circle fill="none" stroke="#00FF00" stroke-miterlimit="10" cx="238.144" cy="145.166" r="6.522"/>
	<text transform="matrix(1 0 0 1 233.1943 147.9602)" font-family="'MyriadPro-Regular'" font-size="5">bulb</text>
</g>
<rect x="217.078" y="138.144" fill="none" width="14.044" height="14.044"/>
<g>
	<circle fill="none" stroke="#00FF00" stroke-miterlimit="10" cx="224.1" cy="145.166" r="6.522"/>
	<text transform="matrix(1 0 0 1 219.1504 147.9602)" font-family="'MyriadPro-Regular'" font-size="5">bulb</text>
</g>
<rect x="203.034" y="138.144" fill="none" width="14.044" height="14.044"/>
<g>
	<circle fill="none" stroke="#00FF00" stroke-miterlimit="10" cx="210.056" cy="145.166" r="6.522"/>
	<text transform="matrix(1 0 0 1 205.1064 147.9602)" font-family="'MyriadPro-Regular'" font-size="5">bulb</text>
</g>
<rect x="188.99" y="138.144" fill="none" width="14.044" height="14.044"/>
<g>
	<circle fill="none" stroke="#00FF00" stroke-miterlimit="10" cx="196.012" cy="145.166" r="6.522"/>
	<text transform="matrix(1 0 0 1 191.0625 147.9602)" font-family="'MyriadPro-Regular'" font-size="5">bulb</text>
</g>
<rect x="174.946" y="138.144" fill="none" width="14.044" height="14.044"/>
<g>
	<circle fill="none" stroke="#00FF00" stroke-miterlimit="10" cx="181.968" cy="145.166" r="6.522"/>
	<text transform="matrix(1 0 0 1 177.0186 147.9602)" font-family="'MyriadPro-Regular'" font-size="5">bulb</text>
</g>
<rect x="160.902" y="138.144" fill="none" width="14.044" height="14.044"/>
<g>
	<circle fill="none" stroke="#00FF00" stroke-miterlimit="10" cx="167.924" cy="145.166" r="6.522"/>
	<text transform="matrix(1 0 0 1 162.9746 147.9602)" font-family="'MyriadPro-Regular'" font-size="5">bulb</text>
</g>
<rect x="146.858" y="138.144" fill="none" width="14.044" height="14.044"/>
<g>
	<circle fill="none" stroke="#00FF00" stroke-miterlimit="10" cx="153.88" cy="145.166" r="6.522"/>
	<text transform="matrix(1 0 0 1 148.9307 147.9602)" font-family="'MyriadPro-Regular'" font-size="5">bulb</text>
</g>
<rect x="132.814" y="138.144" fill="none" width="14.044" height="14.044"/>
<g>
	<circle fill="none" stroke="#00FF00" stroke-miterlimit="10" cx="139.836" cy="145.166" r="6.522"/>
	<text transform="matrix(1 0 0 1 134.8867 147.9602)" font-family="'MyriadPro-Regular'" font-size="5">bulb</text>
</g>
<rect x="118.771" y="138.144" fill="none" width="14.044" height="14.044"/>
<g>
	<circle fill="none" stroke="#00FF00" stroke-miterlimit="10" cx="125.792" cy="145.166" r="6.522"/>
	<text transform="matrix(1 0 0 1 120.8428 147.9602)" font-family="'MyriadPro-Regular'" font-size="5">bulb</text>
</g>
<rect x="104.727" y="138.144" fill="none" width="14.044" height="14.044"/>
<g>
	<circle fill="none" stroke="#00FF00" stroke-miterlimit="10" cx="111.749" cy="145.166" r="6.522"/>
	<text transform="matrix(1 0 0 1 106.7988 147.9602)" font-family="'MyriadPro-Regular'" font-size="5">bulb</text>
</g>
<rect x="90.683" y="138.144" fill="none" width="14.044" height="14.044"/>
<g>
	<circle fill="none" stroke="#00FF00" stroke-miterlimit="10" cx="97.705" cy="145.166" r="6.522"/>
	<text transform="matrix(1 0 0 1 92.7549 147.9602)" font-family="'MyriadPro-Regular'" font-size="5">bulb</text>
</g>
<rect x="76.639" y="138.144" fill="none" width="14.044" height="14.044"/>
<g>
	<circle fill="none" stroke="#00FF00" stroke-miterlimit="10" cx="83.661" cy="145.166" r="6.522"/>
	<text transform="matrix(1 0 0 1 78.7109 147.9602)" font-family="'MyriadPro-Regular'" font-size="5">bulb</text>
</g>
<rect x="413.693" y="268.144" fill="none" width="14.044" height="14.044"/>
<g>
	<circle fill="none" stroke="#BABABA" stroke-miterlimit="10" cx="420.715" cy="275.166" r="6.522"/>
	<text transform="matrix(1 0 0 1 417.0137 276.8098)" font-family="'MyriadPro-Regular'" font-size="4">bulb</text>
</g>
<rect x="399.649" y="268.144" fill="none" width="14.044" height="14.044"/>
<g>
	<circle fill="none" stroke="#BABABA" stroke-miterlimit="10" cx="406.671" cy="275.166" r="6.522"/>
	<text transform="matrix(1 0 0 1 402.9697 276.8098)" font-family="'MyriadPro-Regular'" font-size="4">bulb</text>
</g>
<rect x="385.605" y="268.144" fill="none" width="14.044" height="14.044"/>
<g>
	<circle fill="none" stroke="#BABABA" stroke-miterlimit="10" cx="392.627" cy="275.166" r="6.522"/>
	<text transform="matrix(1 0 0 1 388.9258 276.8098)" font-family="'MyriadPro-Regular'" font-size="4">bulb</text>
</g>
<rect x="371.562" y="268.144" fill="none" width="14.044" height="14.044"/>
<g>
	<circle fill="none" stroke="#BABABA" stroke-miterlimit="10" cx="378.583" cy="275.166" r="6.522"/>
	<text transform="matrix(1 0 0 1 374.8818 276.8098)" font-family="'MyriadPro-Regular'" font-size="4">bulb</text>
</g>
<rect x="357.518" y="268.144" fill="none" width="14.044" height="14.044"/>
<g>
	<circle fill="none" stroke="#BABABA" stroke-miterlimit="10" cx="364.54" cy="275.166" r="6.522"/>
	<text transform="matrix(1 0 0 1 360.8379 276.8098)" font-family="'MyriadPro-Regular'" font-size="4">bulb</text>
</g>
<rect x="343.474" y="268.144" fill="none" width="14.044" height="14.044"/>
<g>
	<circle fill="none" stroke="#BABABA" stroke-miterlimit="10" cx="350.496" cy="275.166" r="6.522"/>
	<text transform="matrix(1 0 0 1 346.7939 276.8098)" font-family="'MyriadPro-Regular'" font-size="4">bulb</text>
</g>
<rect x="329.43" y="268.144" fill="none" width="14.044" height="14.044"/>
<g>
	<circle fill="none" stroke="#BABABA" stroke-miterlimit="10" cx="336.452" cy="275.166" r="6.522"/>
	<text transform="matrix(1 0 0 1 332.75 276.8098)" font-family="'MyriadPro-Regular'" font-size="4">bulb</text>
</g>
<rect x="315.386" y="268.144" fill="none" width="14.044" height="14.044"/>
<g>
	<circle fill="none" stroke="#BABABA" stroke-miterlimit="10" cx="322.408" cy="275.166" r="6.522"/>
	<text transform="matrix(1 0 0 1 318.7061 276.8098)" font-family="'MyriadPro-Regular'" font-size="4">bulb</text>
</g>
<rect x="301.342" y="268.144" fill="none" width="14.044" height="14.044"/>
<g>
	<circle fill="none" stroke="#BABABA" stroke-miterlimit="10" cx="308.364" cy="275.166" r="6.522"/>
	<text transform="matrix(1 0 0 1 304.6621 276.8098)" font-family="'MyriadPro-Regular'" font-size="4">bulb</text>
</g>
<rect x="287.298" y="268.144" fill="none" width="14.044" height="14.044"/>
<g>
	<circle fill="none" stroke="#BABABA" stroke-miterlimit="10" cx="294.32" cy="275.166" r="6.522"/>
	<text transform="matrix(1 0 0 1 290.6182 276.8098)" font-family="'MyriadPro-Regular'" font-size="4">bulb</text>
</g>
<rect x="273.254" y="268.144" fill="none" width="14.044" height="14.044"/>
<g>
	<circle fill="none" stroke="#BABABA" stroke-miterlimit="10" cx="280.276" cy="275.166" r="6.522"/>
	<text transform="matrix(1 0 0 1 276.5742 276.8098)" font-family="'MyriadPro-Regular'" font-size="4">bulb</text>
</g>
<rect x="259.21" y="268.144" fill="none" width="14.044" height="14.044"/>
<g>
	<circle fill="none" stroke="#BABABA" stroke-miterlimit="10" cx="266.232" cy="275.166" r="6.522"/>
	<text transform="matrix(1 0 0 1 262.5303 276.8098)" font-family="'MyriadPro-Regular'" font-size="4">bulb</text>
</g>
<rect x="245.166" y="268.144" fill="none" width="14.044" height="14.044"/>
<g>
	<circle fill="none" stroke="#BABABA" stroke-miterlimit="10" cx="252.188" cy="275.166" r="6.522"/>
	<text transform="matrix(1 0 0 1 248.4863 276.8098)" font-family="'MyriadPro-Regular'" font-size="4">bulb</text>
</g>
<rect x="231.122" y="268.144" fill="none" width="14.044" height="14.044"/>
<g>
	<circle fill="none" stroke="#BABABA" stroke-miterlimit="10" cx="238.144" cy="275.166" r="6.522"/>
	<text transform="matrix(1 0 0 1 234.4424 276.8098)" font-family="'MyriadPro-Regular'" font-size="4">bulb</text>
</g>
<rect x="217.078" y="268.144" fill="none" width="14.044" height="14.044"/>
<g>
	<circle fill="none" stroke="#BABABA" stroke-miterlimit="10" cx="224.1" cy="275.166" r="6.522"/>
	<text transform="matrix(1 0 0 1 220.3984 276.8098)" font-family="'MyriadPro-Regular'" font-size="4">bulb</text>
</g>
<rect x="203.034" y="268.144" fill="none" width="14.044" height="14.044"/>
<g>
	<circle fill="none" stroke="#BABABA" stroke-miterlimit="10" cx="210.056" cy="275.166" r="6.522"/>
	<text transform="matrix(1 0 0 1 206.3545 276.8098)" font-family="'MyriadPro-Regular'" font-size="4">bulb</text>
</g>
<rect x="188.99" y="268.144" fill="none" width="14.044" height="14.044"/>
<g>
	<circle fill="none" stroke="#BABABA" stroke-miterlimit="10" cx="196.012" cy="275.166" r="6.522"/>
	<text transform="matrix(1 0 0 1 192.3105 276.8098)" font-family="'MyriadPro-Regular'" font-size="4">bulb</text>
</g>
<rect x="174.946" y="268.144" fill="none" width="14.044" height="14.044"/>
<g>
	<circle fill="none" stroke="#BABABA" stroke-miterlimit="10" cx="181.968" cy="275.166" r="6.522"/>
	<text transform="matrix(1 0 0 1 178.2666 276.8098)" font-family="'MyriadPro-Regular'" font-size="4">bulb</text>
</g>
<rect x="160.902" y="268.144" fill="none" width="14.044" height="14.044"/>
<g>
	<circle fill="none" stroke="#BABABA" stroke-miterlimit="10" cx="167.924" cy="275.166" r="6.522"/>
	<text transform="matrix(1 0 0 1 164.2227 276.8098)" font-family="'MyriadPro-Regular'" font-size="4">bulb</text>
</g>
<rect x="146.858" y="268.144" fill="none" width="14.044" height="14.044"/>
<g>
	<circle fill="none" stroke="#BABABA" stroke-miterlimit="10" cx="153.88" cy="275.166" r="6.522"/>
	<text transform="matrix(1 0 0 1 150.1787 276.8098)" font-family="'MyriadPro-Regular'" font-size="4">bulb</text>
</g>
<rect x="132.814" y="268.144" fill="none" width="14.044" height="14.044"/>
<g>
	<circle fill="none" stroke="#BABABA" stroke-miterlimit="10" cx="139.836" cy="275.166" r="6.522"/>
	<text transform="matrix(1 0 0 1 136.1348 276.8098)" font-family="'MyriadPro-Regular'" font-size="4">bulb</text>
</g>
<rect x="118.771" y="268.144" fill="none" width="14.044" height="14.044"/>
<g>
	<circle fill="none" stroke="#BABABA" stroke-miterlimit="10" cx="125.792" cy="275.166" r="6.522"/>
	<text transform="matrix(1 0 0 1 122.0908 276.8098)" font-family="'MyriadPro-Regular'" font-size="4">bulb</text>
</g>
<rect x="104.727" y="268.144" fill="none" width="14.044" height="14.044"/>
<g>
	<circle fill="none" stroke="#BABABA" stroke-miterlimit="10" cx="111.749" cy="275.166" r="6.522"/>
	<text transform="matrix(1 0 0 1 108.0469 276.8098)" font-family="'MyriadPro-Regular'" font-size="4">bulb</text>
</g>
<rect x="90.683" y="268.144" fill="none" width="14.044" height="14.044"/>
<g>
	<circle fill="none" stroke="#BABABA" stroke-miterlimit="10" cx="97.705" cy="275.166" r="6.522"/>
	<text transform="matrix(1 0 0 1 94.0029 276.8098)" font-family="'MyriadPro-Regular'" font-size="4">bulb</text>
</g>
<rect x="76.639" y="268.144" fill="none" width="14.044" height="14.044"/>
<g>
	<circle fill="none" stroke="#BABABA" stroke-miterlimit="10" cx="83.661" cy="275.166" r="6.522"/>
	<text transform="matrix(1 0 0 1 79.959 276.8098)" font-family="'MyriadPro-Regular'" font-size="4">bulb</text>
</g>
</svg>
