<?xml version="1.0" encoding="utf-8"?>
<!-- Generator: Adobe Illustrator 16.0.0, SVG Export Plug-In . SVG Version: 6.00 Build 0)  -->
<!DOCTYPE svg PUBLIC "-//W3C//DTD SVG 1.1//EN" "http://www.w3.org/Graphics/SVG/1.1/DTD/svg11.dtd">
<svg version="1.1" id="Layer_1" xmlns="http://www.w3.org/2000/svg" xmlns:xlink="http://www.w3.org/1999/xlink" x="0px" y="0px"
	 width="480px" height="320px" viewBox="0 0 480 320" enable-background="new 0 0 480 320" xml:space="preserve">
<g>
	<circle fill="#FFFFFF" stroke="#00FF00" stroke-miterlimit="10" cx="130.977" cy="211.74" r="6.522"/>
	<text transform="matrix(1 0 0 1 123.2754 224.7825)" fill="#010101" font-family="'MyriadPro-Regular'" font-size="8">bulb</text>
</g>
<g>
	<circle fill="#FFFFFF" stroke="#00FF00" stroke-miterlimit="10" cx="186.156" cy="211.74" r="6.522"/>
	<text transform="matrix(1 0 0 1 178.4546 224.7825)" fill="#010101" font-family="'MyriadPro-Regular'" font-size="8">bulb</text>
</g>
<g>
	<circle fill="#FFFFFF" stroke="#00FF00" stroke-miterlimit="10" cx="241.334" cy="211.74" r="6.522"/>
	<text transform="matrix(1 0 0 1 233.6333 224.7825)" fill="#010101" font-family="'MyriadPro-Regular'" font-size="8">bulb</text>
</g>
<g>
	<circle fill="#FFFFFF" stroke="#00FF00" stroke-miterlimit="10" cx="351.691" cy="211.74" r="6.522"/>
	<text transform="matrix(1 0 0 1 343.9912 224.7834)" fill="#010101" font-family="'MyriadPro-Regular'" font-size="8">bulb</text>
</g>
<g>
	<circle fill="#FFFFFF" stroke="#00FF00" stroke-miterlimit="10" cx="217.074" cy="185.74" r="6.522"/>
	<text transform="matrix(1 0 0 1 209.3735 198.7825)" fill="#010101" font-family="'MyriadPro-Regular'" font-size="8">bulb</text>
</g>
<g>
	<circle fill="#FFFFFF" stroke="#00FF00" stroke-miterlimit="10" cx="271.273" cy="185.74" r="6.522"/>
	<text transform="matrix(1 0 0 1 263.5723 198.7825)" fill="#010101" font-family="'MyriadPro-Regular'" font-size="8">bulb</text>
</g>
<g>
	<circle fill="#FFFFFF" stroke="#00FF00" stroke-miterlimit="10" cx="325.473" cy="185.74" r="6.522"/>
	<text transform="matrix(1 0 0 1 317.7715 198.7834)" fill="#010101" font-family="'MyriadPro-Regular'" font-size="8">bulb</text>
</g>
<g>
	<circle fill="#FFFFFF" stroke="#00FF00" stroke-miterlimit="10" cx="162.876" cy="235.74" r="6.522"/>
	<text transform="matrix(1 0 0 1 155.1748 248.7825)" fill="#010101" font-family="'MyriadPro-Regular'" font-size="8">bulb</text>
</g>
<g>
	<circle fill="#FFFFFF" stroke="#00FF00" stroke-miterlimit="10" cx="271.273" cy="235.74" r="6.522"/>
	<text transform="matrix(1 0 0 1 263.5723 248.7825)" fill="#010101" font-family="'MyriadPro-Regular'" font-size="8">bulb</text>
</g>
<g>
	<circle fill="#FFFFFF" stroke="#00FF00" stroke-miterlimit="10" cx="325.473" cy="235.74" r="6.522"/>
	<text transform="matrix(1 0 0 1 317.7715 248.7834)" fill="#010101" font-family="'MyriadPro-Regular'" font-size="8">bulb</text>
</g>
<g>
	<circle fill="#FFFFFF" stroke="#00FF00" stroke-miterlimit="10" cx="130.966" cy="161.74" r="6.522"/>
	<text transform="matrix(1 0 0 1 123.2646 174.7825)" fill="#010101" font-family="'MyriadPro-Regular'" font-size="8">bulb</text>
</g>
<g>
	<circle fill="#FFFFFF" stroke="#00FF00" stroke-miterlimit="10" cx="186.134" cy="161.74" r="6.522"/>
	<text transform="matrix(1 0 0 1 178.4331 174.7825)" fill="#010101" font-family="'MyriadPro-Regular'" font-size="8">bulb</text>
</g>
<g>
	<circle fill="#FFFFFF" stroke="#00FF00" stroke-miterlimit="10" cx="241.302" cy="161.74" r="6.522"/>
	<text transform="matrix(1 0 0 1 233.6011 174.7825)" fill="#010101" font-family="'MyriadPro-Regular'" font-size="8">bulb</text>
</g>
<g>
	<circle fill="#FFFFFF" stroke="#00FF00" stroke-miterlimit="10" cx="296.471" cy="161.74" r="6.522"/>
	<text transform="matrix(1 0 0 1 288.7695 174.7825)" fill="#010101" font-family="'MyriadPro-Regular'" font-size="8">bulb</text>
</g>
<g>
	<circle fill="#FFFFFF" stroke="#00FF00" stroke-miterlimit="10" cx="186.032" cy="111.74" r="6.522"/>
	<text transform="matrix(1 0 0 1 178.3306 124.7825)" fill="#010101" font-family="'MyriadPro-Regular'" font-size="8">bulb</text>
</g>
<g>
	<circle fill="#FFFFFF" stroke="#00FF00" stroke-miterlimit="10" cx="162.876" cy="135.74" r="6.522"/>
	<text transform="matrix(1 0 0 1 155.1748 148.7825)" fill="#010101" font-family="'MyriadPro-Regular'" font-size="8">bulb</text>
</g>
<g>
	<circle fill="#FFFFFF" stroke="#00FF00" stroke-miterlimit="10" cx="271.273" cy="135.74" r="6.522"/>
	<text transform="matrix(1 0 0 1 263.5723 148.7825)" fill="#010101" font-family="'MyriadPro-Regular'" font-size="8">bulb</text>
</g>
<g>
	<circle fill="#FFFFFF" stroke="#00FF00" stroke-miterlimit="10" cx="325.473" cy="135.74" r="6.522"/>
	<text transform="matrix(1 0 0 1 317.7715 148.7825)" fill="#010101" font-family="'MyriadPro-Regular'" font-size="8">bulb</text>
</g>
<g>
	<circle fill="#FFFFFF" stroke="#00FF00" stroke-miterlimit="10" cx="241.209" cy="111.74" r="6.522"/>
	<text transform="matrix(1 0 0 1 233.5083 124.7825)" fill="#010101" font-family="'MyriadPro-Regular'" font-size="8">bulb</text>
</g>
<g>
	<circle fill="#FFFFFF" stroke="#00FF00" stroke-miterlimit="10" cx="351.563" cy="111.647" r="6.522"/>
	<text transform="matrix(1 0 0 1 343.8633 124.6897)" fill="#010101" font-family="'MyriadPro-Regular'" font-size="8">bulb</text>
</g>
<g>
	<circle fill="#FFFFFF" stroke="#00FF00" stroke-miterlimit="10" cx="130.854" cy="111.74" r="6.522"/>
	<text transform="matrix(1 0 0 1 123.1533 124.7825)" fill="#010101" font-family="'MyriadPro-Regular'" font-size="8">bulb</text>
</g>
<g>
	<circle fill="#FFFFFF" stroke="#00FF00" stroke-miterlimit="10" cx="296.386" cy="111.74" r="6.522"/>
	<text transform="matrix(1 0 0 1 288.6855 124.7825)" fill="#010101" font-family="'MyriadPro-Regular'" font-size="8">bulb</text>
</g>
<g>
	<circle fill="#FFFFFF" stroke="#00FF00" stroke-miterlimit="10" cx="217.075" cy="135.74" r="6.522"/>
	<text transform="matrix(1 0 0 1 209.3735 148.7825)" fill="#010101" font-family="'MyriadPro-Regular'" font-size="8">bulb</text>
</g>
<g>
	<circle fill="#FFFFFF" stroke="#00FF00" stroke-miterlimit="10" cx="351.639" cy="161.74" r="6.522"/>
	<text transform="matrix(1 0 0 1 343.9375 174.7825)" fill="#010101" font-family="'MyriadPro-Regular'" font-size="8">bulb</text>
</g>
<g>
	<circle fill="#FFFFFF" stroke="#00FF00" stroke-miterlimit="10" cx="162.876" cy="185.74" r="6.522"/>
	<text transform="matrix(1 0 0 1 155.1748 198.7825)" fill="#010101" font-family="'MyriadPro-Regular'" font-size="8">bulb</text>
</g>
<g>
	<circle fill="#FFFFFF" stroke="#00FF00" stroke-miterlimit="10" cx="296.514" cy="211.74" r="6.522"/>
	<text transform="matrix(1 0 0 1 288.8125 224.7825)" fill="#010101" font-family="'MyriadPro-Regular'" font-size="8">bulb</text>
</g>
<g>
	<circle fill="#FFFFFF" stroke="#00FF00" stroke-miterlimit="10" cx="217.074" cy="235.74" r="6.522"/>
	<text transform="matrix(1 0 0 1 209.3735 248.7825)" fill="#010101" font-family="'MyriadPro-Regular'" font-size="8">bulb</text>
</g>
<g>
	<circle fill="#FFFFFF" stroke="#00FF00" stroke-miterlimit="10" cx="130.977" cy="261.74" r="6.522"/>
	<text transform="matrix(1 0 0 1 123.2754 274.7825)" fill="#010101" font-family="'MyriadPro-Regular'" font-size="8">bulb</text>
</g>
<g>
	<circle fill="#FFFFFF" stroke="#00FF00" stroke-miterlimit="10" cx="186.156" cy="261.74" r="6.522"/>
	<text transform="matrix(1 0 0 1 178.4546 274.7825)" fill="#010101" font-family="'MyriadPro-Regular'" font-size="8">bulb</text>
</g>
<g>
	<circle fill="#FFFFFF" stroke="#00FF00" stroke-miterlimit="10" cx="241.334" cy="261.74" r="6.522"/>
	<text transform="matrix(1 0 0 1 233.6333 274.7825)" fill="#010101" font-family="'MyriadPro-Regular'" font-size="8">bulb</text>
</g>
<g>
	<circle fill="#FFFFFF" stroke="#00FF00" stroke-miterlimit="10" cx="351.691" cy="261.74" r="6.522"/>
	<text transform="matrix(1 0 0 1 343.9912 274.7834)" fill="#010101" font-family="'MyriadPro-Regular'" font-size="8">bulb</text>
</g>
<g>
	<circle fill="#FFFFFF" stroke="#00FF00" stroke-miterlimit="10" cx="296.514" cy="261.74" r="6.522"/>
	<text transform="matrix(1 0 0 1 288.8125 274.7825)" fill="#010101" font-family="'MyriadPro-Regular'" font-size="8">bulb</text>
</g>
<g>
	<circle fill="#FFFFFF" stroke="#00FF00" stroke-miterlimit="10" cx="379.672" cy="185.74" r="6.522"/>
	<text transform="matrix(1 0 0 1 371.9707 198.7834)" fill="#010101" font-family="'MyriadPro-Regular'" font-size="8">bulb</text>
</g>
<g>
	<circle fill="#FFFFFF" stroke="#00FF00" stroke-miterlimit="10" cx="379.672" cy="235.74" r="6.522"/>
	<text transform="matrix(1 0 0 1 371.9707 248.7834)" fill="#010101" font-family="'MyriadPro-Regular'" font-size="8">bulb</text>
</g>
<g>
	<circle fill="#FFFFFF" stroke="#00FF00" stroke-miterlimit="10" cx="379.672" cy="135.74" r="6.522"/>
	<text transform="matrix(1 0 0 1 371.9707 148.7825)" fill="#010101" font-family="'MyriadPro-Regular'" font-size="8">bulb</text>
</g>
<g>
	<circle fill="#FFFFFF" stroke="#00FF00" stroke-miterlimit="10" cx="75.798" cy="211.74" r="6.522"/>
	<text transform="matrix(1 0 0 1 68.0967 224.7825)" fill="#010101" font-family="'MyriadPro-Regular'" font-size="8">bulb</text>
</g>
<g>
	<circle fill="#FFFFFF" stroke="#00FF00" stroke-miterlimit="10" cx="108.677" cy="235.74" r="6.522"/>
	<text transform="matrix(1 0 0 1 100.9756 248.7825)" fill="#010101" font-family="'MyriadPro-Regular'" font-size="8">bulb</text>
</g>
<g>
	<circle fill="#FFFFFF" stroke="#00FF00" stroke-miterlimit="10" cx="75.798" cy="161.74" r="6.522"/>
	<text transform="matrix(1 0 0 1 68.0967 174.7825)" fill="#010101" font-family="'MyriadPro-Regular'" font-size="8">bulb</text>
</g>
<g>
	<circle fill="#FFFFFF" stroke="#00FF00" stroke-miterlimit="10" cx="108.677" cy="135.74" r="6.522"/>
	<text transform="matrix(1 0 0 1 100.9756 148.7825)" fill="#010101" font-family="'MyriadPro-Regular'" font-size="8">bulb</text>
</g>
<g>
	<circle fill="#FFFFFF" stroke="#00FF00" stroke-miterlimit="10" cx="75.677" cy="111.74" r="6.522"/>
	<text transform="matrix(1 0 0 1 67.9756 124.7825)" fill="#010101" font-family="'MyriadPro-Regular'" font-size="8">bulb</text>
</g>
<g>
	<circle fill="#FFFFFF" stroke="#00FF00" stroke-miterlimit="10" cx="108.677" cy="185.74" r="6.522"/>
	<text transform="matrix(1 0 0 1 100.9756 198.7825)" fill="#010101" font-family="'MyriadPro-Regular'" font-size="8">bulb</text>
</g>
<g>
	<circle fill="#FFFFFF" stroke="#00FF00" stroke-miterlimit="10" cx="75.798" cy="261.74" r="6.522"/>
	<text transform="matrix(1 0 0 1 68.0967 274.7825)" fill="#010101" font-family="'MyriadPro-Regular'" font-size="8">bulb</text>
</g>
<g>
	<circle fill="#FFFFFF" stroke="#00FF00" stroke-miterlimit="10" cx="406.871" cy="211.74" r="6.522"/>
	<text transform="matrix(1 0 0 1 399.1699 224.7834)" fill="#010101" font-family="'MyriadPro-Regular'" font-size="8">bulb</text>
</g>
<g>
	<circle fill="#FFFFFF" stroke="#00FF00" stroke-miterlimit="10" cx="406.741" cy="111.647" r="6.522"/>
	<text transform="matrix(1 0 0 1 399.041 124.6897)" fill="#010101" font-family="'MyriadPro-Regular'" font-size="8">bulb</text>
</g>
<g>
	<circle fill="#FFFFFF" stroke="#00FF00" stroke-miterlimit="10" cx="406.807" cy="161.74" r="6.522"/>
	<text transform="matrix(1 0 0 1 399.1055 174.7825)" fill="#010101" font-family="'MyriadPro-Regular'" font-size="8">bulb</text>
</g>
<g>
	<circle fill="#FFFFFF" stroke="#00FF00" stroke-miterlimit="10" cx="406.871" cy="261.74" r="6.522"/>
	<text transform="matrix(1 0 0 1 399.1699 274.7834)" fill="#010101" font-family="'MyriadPro-Regular'" font-size="8">bulb</text>
</g>
<g>
	
		<rect x="439.999" y="168.261" transform="matrix(-0.938 0.3467 -0.3467 -0.938 951.0966 172.8969)" fill="none" stroke="#000000" stroke-miterlimit="10" width="40.167" height="6.522"/>
	<text transform="matrix(0.6748 0 0 1 453.1992 174.262)" font-family="'MyriadPro-Regular'" font-size="6">box</text>
</g>
<g>
	
		<rect x="0" y="218.262" transform="matrix(-0.9414 -0.3373 0.3373 -0.9414 -35.7397 436.8341)" fill="none" stroke="#000000" stroke-miterlimit="10" width="40.166" height="6.521"/>
	<text transform="matrix(0.6748 0 0 1 13.1992 224.262)" font-family="'MyriadPro-Regular'" font-size="6">box</text>
</g>
<g>
	
		<rect x="0" y="268.262" transform="matrix(-0.9414 -0.3373 0.3373 -0.9414 -52.6069 533.9032)" fill="none" stroke="#000000" stroke-miterlimit="10" width="40.166" height="6.521"/>
	<text transform="matrix(0.6748 0 0 1 13.1992 274.262)" font-family="'MyriadPro-Regular'" font-size="6">box</text>
</g>
<g>
	
		<rect x="439.999" y="218.261" transform="matrix(-0.938 0.3467 -0.3467 -0.938 968.4314 269.7958)" fill="none" stroke="#000000" stroke-miterlimit="10" width="40.167" height="6.522"/>
	<text transform="matrix(0.6748 0 0 1 453.1992 224.262)" font-family="'MyriadPro-Regular'" font-size="6">box</text>
</g>
<g>
	
		<rect x="439.999" y="268.261" transform="matrix(-0.938 0.3467 -0.3467 -0.938 985.7662 366.6947)" fill="none" stroke="#000000" stroke-miterlimit="10" width="40.167" height="6.522"/>
	<text transform="matrix(0.6748 0 0 1 453.1992 274.262)" font-family="'MyriadPro-Regular'" font-size="6">box</text>
</g>
<g>
	
		<rect x="0" y="168.262" transform="matrix(-0.9414 -0.3373 0.3373 -0.9414 -18.8724 339.7651)" fill="none" stroke="#000000" stroke-miterlimit="10" width="40.166" height="6.521"/>
	<text transform="matrix(0.6748 0 0 1 13.1992 174.262)" font-family="'MyriadPro-Regular'" font-size="6">box</text>
</g>
</svg>
